<?xml version="1.0" encoding="UTF-8"?>
<svg width="65px" height="65px" viewBox="0 0 65 65" version="1.1" xmlns="http://www.w3.org/2000/svg" xmlns:xlink="http://www.w3.org/1999/xlink">
    <!-- Generator: Sketch 51.2 (57519) - http://www.bohemiancoding.com/sketch -->
    <title>icon/company</title>
    <desc>Created with Sketch.</desc>
    <defs>
        <radialGradient cx="50%" cy="10.4223656%" fx="50%" fy="10.4223656%" r="99.4964776%" id="radialGradient-1">
            <stop stop-color="#269DEF" offset="0%"></stop>
            <stop stop-color="#4CD4BF" offset="100%"></stop>
        </radialGradient>
        <radialGradient cx="50%" cy="10.4223656%" fx="50%" fy="10.4223656%" r="99.4964776%" gradientTransform="translate(0.500000,0.104224),scale(0.628571,1.000000),rotate(90.000000),translate(-0.500000,-0.104224)" id="radialGradient-2">
            <stop stop-color="#269DEF" offset="0%"></stop>
            <stop stop-color="#4CD4BF" offset="100%"></stop>
        </radialGradient>
        <radialGradient cx="50%" cy="10.4223656%" fx="50%" fy="10.4223656%" r="99.4964776%" gradientTransform="translate(0.500000,0.104224),scale(0.823324,1.000000),rotate(90.000000),translate(-0.500000,-0.104224)" id="radialGradient-3">
            <stop stop-color="#269DEF" offset="0%"></stop>
            <stop stop-color="#4CD4BF" offset="100%"></stop>
        </radialGradient>
    </defs>
    <g id="icon" stroke="none" stroke-width="1" fill="none" fill-rule="evenodd">
        <g id="icon/company" transform="translate(1.000000, 1.000000)" fill-rule="nonzero">
            <circle id="Oval-3" stroke="#E5E5E5" stroke-width="2" cx="31.5" cy="31.5" r="31.5"></circle>
            <circle id="Oval" stroke="url(#radialGradient-1)" stroke-width="2" cx="31" cy="17" r="10"></circle>
            <path d="M46.9368561,49 C46.9788562,48.5035897 47,48.0032623 47,47.5 C47,38.3745746 40.0468297,31 31.5,31 C22.9531703,31 16,38.3745746 16,47.5 C16,48.0032623 16.0211438,48.5035897 16.0631439,49 L46.9368561,49 Z M14.1760673,50.1336551 C14.0590898,49.2662889 14,48.3869014 14,47.5 C14,37.2954591 21.8214329,29 31.5,29 C41.1785671,29 49,37.2954591 49,47.5 C49,48.3869014 48.9409102,49.2662889 48.8239327,50.1336551 L48.707093,51 L14.292907,51 L14.1760673,50.1336551 Z" id="Combined-Shape" fill="url(#radialGradient-2)"></path>
            <path d="M33.8392644,35.5335707 L35,42.2448135 L32,44.6041832 L29,42.2448135 L30.2758005,34.8682783 L29.4762664,36.2792209 L23,33.7077622 L23.7380659,31.8489295 L28.5951328,33.7774708 L31.8690329,30 L35.1429331,33.7774708 L40,31.8489295 L40.7380659,33.7077622 L34.2617995,36.2792209 L33.8392644,35.5335707 Z" id="Combined-Shape" fill="url(#radialGradient-3)"></path>
        </g>
    </g>
</svg>