<svg id="圖層_1" data-name="圖層 1" xmlns="http://www.w3.org/2000/svg" xmlns:xlink="http://www.w3.org/1999/xlink" width="100" height="100" viewBox="0 0 100 100"><defs><style>.cls-1{fill:none;stroke-miterlimit:10;stroke-width:5px;stroke:url(#未命名漸層_431);}</style><linearGradient id="未命名漸層_431" x1="23.01" y1="49.25" x2="72.84" y2="49.25" gradientUnits="userSpaceOnUse"><stop offset="0" stop-color="#69ffc2"/><stop offset="0.37" stop-color="#3bd1c8"/><stop offset="0.85" stop-color="#049ad0"/></linearGradient></defs><title>formosa</title><path class="cls-1" d="M47.22,16.54a34.63,34.63,0,0,0,8.88-4.62c2.4-1.88,3.27-2.05,5.8-.08,1.89,1.47,7.49,2,6.38,5.12-.5,1.43-3,2.12-3.62,3.52-1,2.51,1.11,2.71,1.94,4.25s.77.12.86,1.77a10.23,10.23,0,0,1-.8,2.58,42.68,42.68,0,0,1-2.07,5.49C63,38,62.59,41.34,61.89,45c-.64,3.32-1.1,6.56-1.45,9.92-.48,4.56-1.87,6.75-4.66,10.34-2.56,3.3-5.05,5.62-6.28,9.69-1,3.47.56,8.93-1.68,11.81-2-2.67-3.87-5.77-6.42-7.9s-7-3.59-9.15-6.11c-.81-.94-1.17-2.84-1.72-4-1.18-2.4-3.32-4-4.47-6.3s-.17-4.39.11-6.71c.23-2.06-.31-4.14,0-6.16.72-4.1,4.5-8,6.72-11.44,2.38-3.69,3.85-8.5,7-11.63,1-1,2.35-1.16,3.12-2.53.5-.9.17-2.1.61-3,1.49-3.13,5.47-5.3,8.48-6.42a12.26,12.26,0,0,0,3.48-1.48c1.18-.9,1.89-2.95,3.87-3,.88,0,2.45,1.94,3.18,2.39a8.9,8.9,0,0,0,2.85,1.2c.95.29,4.81,1.51,4.83,2.59,0,.84-3.27,2.93-3.58,4.74-.45,2.61,1.66,2.83,2,4.64C68.94,27,66.51,31.1,66,32.22a53.5,53.5,0,0,0-4.81,18,52.84,52.84,0,0,1-1.34,8.17c-1.08,4.28-4.21,7.29-7.13,10.58a16.44,16.44,0,0,0-3.88,11.39c0,.67.5,7.79-.5,7.69-.19,0-1-.94-1.38-1.08-1.6-.55-.06.79-1.58-.48-2-1.65-.78-3.61-2.23-5.69-3-4.35-8.82-4.94-11.8-9.07"/></svg>