<svg id="圖層_1" data-name="圖層 1" xmlns="http://www.w3.org/2000/svg" xmlns:xlink="http://www.w3.org/1999/xlink" width="934.99" height="402" viewBox="0 0 934.99 402"><defs><style>.cls-1{fill:none;}.cls-2{clip-path:url(#clip-path);}.cls-3{clip-path:url(#clip-path-2);}.cls-4{fill:#fff;}.cls-5{fill:#0b304f;}.cls-6{clip-path:url(#clip-path-3);}.cls-7,.cls-8{opacity:0.1;}.cls-7{fill:url(#未命名漸層_588);}.cls-8{fill:url(#未命名漸層_588-2);}.cls-9{fill:url(#未命名漸層_389);}.cls-10{fill:url(#未命名漸層_389-2);}.cls-11{fill:url(#未命名漸層_389-3);}.cls-12{fill:#333;}.cls-13{fill:url(#未命名漸層_389-4);}.cls-14{fill:url(#未命名漸層_389-5);}.cls-15{fill:url(#未命名漸層_389-6);}.cls-16{fill:url(#未命名漸層_389-7);}.cls-17{fill:url(#未命名漸層_389-8);}.cls-18{fill:url(#未命名漸層_389-11);}</style><clipPath id="clip-path"><rect class="cls-1" x="1.89" y="0.55" width="932" height="400"/></clipPath><clipPath id="clip-path-2"><rect class="cls-1" x="-1.11" y="-2.45" width="935" height="403"/></clipPath><clipPath id="clip-path-3"><rect class="cls-1" x="271.59" y="-1.03" width="670.36" height="401.98"/></clipPath><linearGradient id="未命名漸層_588" x1="1065.3" y1="404.84" x2="843.67" y2="550.48" gradientUnits="userSpaceOnUse"><stop offset="0" stop-color="#69ffc2"/><stop offset="0.28" stop-color="#049ad0"/><stop offset="0.4" stop-color="#049ad0" stop-opacity="0.98"/><stop offset="0.5" stop-color="#059bd0" stop-opacity="0.93"/><stop offset="0.6" stop-color="#069cd0" stop-opacity="0.85"/><stop offset="0.69" stop-color="#089ecf" stop-opacity="0.73"/><stop offset="0.78" stop-color="#0aa0cf" stop-opacity="0.58"/><stop offset="0.86" stop-color="#0da3cf" stop-opacity="0.39"/><stop offset="0.94" stop-color="#10a6ce" stop-opacity="0.17"/><stop offset="1" stop-color="#12a8ce" stop-opacity="0"/></linearGradient><linearGradient id="未命名漸層_588-2" x1="707.73" y1="267.11" x2="486.1" y2="412.75" xlink:href="#未命名漸層_588"/><linearGradient id="未命名漸層_389" x1="147.1" y1="203.29" x2="206.04" y2="203.29" gradientUnits="userSpaceOnUse"><stop offset="0" stop-color="#69ffc2"/><stop offset="0.37" stop-color="#3bd1c8"/><stop offset="0.85" stop-color="#049ad0"/></linearGradient><linearGradient id="未命名漸層_389-2" x1="857.52" y1="-215.02" x2="937.67" y2="-215.02" gradientTransform="translate(-708 -188.38) rotate(39.99)" xlink:href="#未命名漸層_389"/><linearGradient id="未命名漸層_389-3" x1="881.81" y1="-227.07" x2="916.18" y2="-227.07" gradientTransform="translate(-708 -188.38) rotate(39.99)" xlink:href="#未命名漸層_389"/><linearGradient id="未命名漸層_389-4" x1="617.15" y1="193.32" x2="676.08" y2="193.32" xlink:href="#未命名漸層_389"/><linearGradient id="未命名漸層_389-5" x1="1211.23" y1="-524.75" x2="1291.38" y2="-524.75" gradientTransform="translate(-708 -188.38) rotate(39.99)" xlink:href="#未命名漸層_389"/><linearGradient id="未命名漸層_389-6" x1="1235.52" y1="-536.79" x2="1269.89" y2="-536.79" gradientTransform="translate(-708 -188.38) rotate(39.99)" xlink:href="#未命名漸層_389"/><linearGradient id="未命名漸層_389-7" x1="517.06" y1="228.27" x2="707.18" y2="228.27" xlink:href="#未命名漸層_389"/><linearGradient id="未命名漸層_389-8" x1="517.06" y1="228.27" x2="707.18" y2="228.27" xlink:href="#未命名漸層_389"/><linearGradient id="未命名漸層_389-11" x1="517.06" y1="228.78" x2="707.18" y2="228.78" xlink:href="#未命名漸層_389"/></defs><title>fomosaas_dark_simple</title><g class="cls-2"><g class="cls-3"><rect class="cls-4" x="-33.43" y="-5.79" width="366.81" height="425.41"/><rect class="cls-5" x="271.59" y="-1.03" width="671.98" height="408.02"/><g class="cls-6"><path class="cls-7" d="M377.2,628.72,780,227a48.12,48.12,0,0,1,66.65-1.26l435.8,403Z"/><path class="cls-8" d="M19.63,491,422.38,89.27A48.12,48.12,0,0,1,489,88l435.8,403Z"/></g><path class="cls-9" d="M147.1,194.87l10.65-10.54a5.17,5.17,0,0,1,7.19-.08l41.1,39.5H181.88Z"/><path id="_路徑_" data-name="&lt;路徑&gt;" class="cls-10" d="M113.12,177.37a5.27,5.27,0,0,0-7.36.7l-2.91,3.47L65.56,223.75h20l7.67-9.07,11.46,9.07h14.89L99.88,207.61l11.66-13.81a3.82,3.82,0,0,1,5.37-.47l36.26,30.42h17Z"/><path class="cls-11" d="M131.09,223.75l-19-15.91a1.16,1.16,0,0,1-.14-1.63l3.07-3.66a1.16,1.16,0,0,1,1.63-.15l25.45,21.35Z"/><path class="cls-12" d="M71.54,234.12H65.35v2.5h5.74v2.6H65.35V245H61.9V231.51h9.64Z"/><path class="cls-12" d="M89.52,238.25a7,7,0,0,1-1.85,5.11,7.8,7.8,0,0,1-10.18,0,8,8,0,0,1,0-10.24,7.8,7.8,0,0,1,10.18,0A7,7,0,0,1,89.52,238.25Zm-4.6,3.4a3.92,3.92,0,0,0,.75-1.45,7.1,7.1,0,0,0,.24-2,6.49,6.49,0,0,0-.28-2.06,3.91,3.91,0,0,0-.73-1.38,2.73,2.73,0,0,0-1.06-.78,3.17,3.17,0,0,0-1.25-.25,3.27,3.27,0,0,0-1.25.24,3,3,0,0,0-1.07.78,3.78,3.78,0,0,0-.73,1.39,6.81,6.81,0,0,0-.29,2.07,6.4,6.4,0,0,0,.28,2,3.76,3.76,0,0,0,.73,1.38,2.75,2.75,0,0,0,1,.79,3.28,3.28,0,0,0,1.28.25,3.24,3.24,0,0,0,1.27-.26A2.81,2.81,0,0,0,84.92,241.65Z"/><path class="cls-12" d="M106.59,245h-4.24L98.69,240H97.08V245H93.63V231.51h5.82a13.37,13.37,0,0,1,2,.14,4.47,4.47,0,0,1,1.61.59,3.45,3.45,0,0,1,1.2,1.17,3.34,3.34,0,0,1,.45,1.8,4,4,0,0,1-.69,2.43,5.1,5.1,0,0,1-2,1.56Zm-5.42-9.34a1.79,1.79,0,0,0-.2-.86,1.42,1.42,0,0,0-.72-.57,2.48,2.48,0,0,0-.82-.18c-.31,0-.68,0-1.09,0H97.08v3.62h1.07a9.21,9.21,0,0,0,1.39-.08,2,2,0,0,0,.94-.37,1.81,1.81,0,0,0,.53-.62A2.09,2.09,0,0,0,101.17,235.63Z"/><path class="cls-12" d="M123.36,245H119.9v-9l-2.49,5.85H115l-2.5-5.85v9h-3.27V231.51h4l3,6.75,3-6.75h4Z"/><path class="cls-12" d="M141.84,238.75a7,7,0,0,1-1.84,5.11,7.81,7.81,0,0,1-10.19,0,8,8,0,0,1,0-10.24,7.83,7.83,0,0,1,10.18,0A7,7,0,0,1,141.84,238.75Zm-4.6,3.41a3.92,3.92,0,0,0,.75-1.45,7.15,7.15,0,0,0,.25-2,6.84,6.84,0,0,0-.28-2.06,4.13,4.13,0,0,0-.74-1.37,2.69,2.69,0,0,0-1.06-.79,3.35,3.35,0,0,0-1.25-.24,3.41,3.41,0,0,0-1.24.23,2.92,2.92,0,0,0-1.07.78,3.84,3.84,0,0,0-.74,1.4,6.75,6.75,0,0,0-.28,2.06,6.84,6.84,0,0,0,.27,2.05,4.09,4.09,0,0,0,.73,1.38,2.79,2.79,0,0,0,1.06.78,3.23,3.23,0,0,0,2.54,0A2.74,2.74,0,0,0,137.24,242.16Z"/><path class="cls-12" d="M157,240.74a3.82,3.82,0,0,1-1.69,3.23,7.51,7.51,0,0,1-4.57,1.24,12.59,12.59,0,0,1-2.92-.29,14.33,14.33,0,0,1-2.32-.75V241h.38a8.13,8.13,0,0,0,2.4,1.32,7.8,7.8,0,0,0,2.57.46,7.62,7.62,0,0,0,.83-.06,2.93,2.93,0,0,0,.84-.18,2,2,0,0,0,.65-.4,1,1,0,0,0,.26-.73,1,1,0,0,0-.37-.76,2.62,2.62,0,0,0-1.1-.49c-.51-.12-1-.24-1.61-.34a13.49,13.49,0,0,1-1.58-.4,5,5,0,0,1-2.45-1.5,3.7,3.7,0,0,1-.74-2.34,3.6,3.6,0,0,1,1.68-3.07,7.39,7.39,0,0,1,4.34-1.19,13.53,13.53,0,0,1,2.62.26,13,13,0,0,1,2.25.64v3.1h-.37a7.58,7.58,0,0,0-2-1.09,6.87,6.87,0,0,0-2.4-.43,6.36,6.36,0,0,0-.87.06,2.93,2.93,0,0,0-.82.22,1.5,1.5,0,0,0-.61.41.88.88,0,0,0-.25.63.93.93,0,0,0,.4.81,4.45,4.45,0,0,0,1.54.52l1.42.3a14.93,14.93,0,0,1,1.47.4,4.93,4.93,0,0,1,2.28,1.38A3.38,3.38,0,0,1,157,240.74Z"/><path class="cls-12" d="M173.55,245H170l-.93-2.72h-5l-.94,2.72h-3.5l5-13.46h4Zm-5.36-5.19L166.54,235l-1.66,4.82Z"/><path class="cls-12" d="M190.15,245h-3.59l-.93-2.72h-5l-.94,2.72h-3.5l5-13.46h4Zm-5.36-5.19L183.14,235l-1.66,4.82Z"/><path class="cls-12" d="M204.31,240.74a3.84,3.84,0,0,1-1.68,3.23,7.56,7.56,0,0,1-4.58,1.24,12.5,12.5,0,0,1-2.91-.29,14.45,14.45,0,0,1-2.33-.75V241h.38a8.18,8.18,0,0,0,2.41,1.32,7.75,7.75,0,0,0,2.56.46,7.46,7.46,0,0,0,.83-.06,2.93,2.93,0,0,0,.84-.18,2,2,0,0,0,.66-.4,1,1,0,0,0,.25-.73,1,1,0,0,0-.37-.76,2.62,2.62,0,0,0-1.1-.49c-.51-.12-1-.24-1.6-.34a13.18,13.18,0,0,1-1.59-.4,5,5,0,0,1-2.44-1.5,3.65,3.65,0,0,1-.75-2.34,3.59,3.59,0,0,1,1.69-3.07,7.34,7.34,0,0,1,4.33-1.19,13.53,13.53,0,0,1,2.62.26,12.76,12.76,0,0,1,2.25.64v3.1h-.37a7.51,7.51,0,0,0-2-1.09,6.92,6.92,0,0,0-2.41-.43,6.11,6.11,0,0,0-.86.06,2.91,2.91,0,0,0-.83.22,1.5,1.5,0,0,0-.61.41.88.88,0,0,0-.25.63.94.94,0,0,0,.41.81,4.37,4.37,0,0,0,1.53.52l1.43.3c.45.1.94.23,1.46.4a4.92,4.92,0,0,1,2.29,1.38A3.37,3.37,0,0,1,204.31,240.74Z"/><path class="cls-13" d="M617.15,184.9l10.65-10.54a5.17,5.17,0,0,1,7.19-.08l41.09,39.5H651.93Z"/><path id="_路徑_2" data-name="&lt;路徑&gt;" class="cls-14" d="M583.17,167.4a5.27,5.27,0,0,0-7.37.7l-2.91,3.47L535.6,213.78h20l7.67-9.07,11.45,9.07H589.6l-19.67-16.14,11.66-13.81a3.8,3.8,0,0,1,5.36-.47l36.27,30.42h17Z"/><path class="cls-15" d="M601.14,213.78l-19-15.91a1.17,1.17,0,0,1-.14-1.63l3.08-3.66a1.15,1.15,0,0,1,1.62-.15l25.46,21.35Z"/><path class="cls-16" d="M541.58,224.15h-6.19v2.5h5.74v2.6h-5.74V235h-3.45V221.54h9.64Z"/><path class="cls-17" d="M559.56,228.28a7,7,0,0,1-1.84,5.11,7.8,7.8,0,0,1-10.18,0,8,8,0,0,1,0-10.24,7.79,7.79,0,0,1,10.17,0A7,7,0,0,1,559.56,228.28Zm-4.6,3.4a3.92,3.92,0,0,0,.75-1.45,7.76,7.76,0,0,0,0-4,4.08,4.08,0,0,0-.73-1.38,2.76,2.76,0,0,0-1.07-.78,3.14,3.14,0,0,0-1.25-.25,3.22,3.22,0,0,0-1.24.24,2.78,2.78,0,0,0-1.07.77,3.92,3.92,0,0,0-.74,1.4,7.82,7.82,0,0,0,0,4.11,4.18,4.18,0,0,0,.73,1.38,2.71,2.71,0,0,0,1.06.79,3.42,3.42,0,0,0,1.27.25,3.29,3.29,0,0,0,1.28-.26A2.78,2.78,0,0,0,555,231.68Z"/><path class="cls-16" d="M576.63,235h-4.24l-3.66-4.94h-1.6V235h-3.46V221.54h5.82a13.28,13.28,0,0,1,2,.14,4.23,4.23,0,0,1,1.61.59,3.48,3.48,0,0,1,1.21,1.17,3.31,3.31,0,0,1,.45,1.8,4,4,0,0,1-.7,2.43,5.07,5.07,0,0,1-2,1.56Zm-5.41-9.34a1.69,1.69,0,0,0-.21-.86,1.43,1.43,0,0,0-.71-.57,2.54,2.54,0,0,0-.83-.18c-.31,0-.67,0-1.09,0h-1.25v3.62h1.06a9,9,0,0,0,1.39-.08,1.94,1.94,0,0,0,.94-.37,1.8,1.8,0,0,0,.53-.62A2.08,2.08,0,0,0,571.22,225.66Z"/><path class="cls-16" d="M593.4,235H590v-9l-2.49,5.85h-2.4L582.57,226v9H579.3V221.54h4l3,6.75,3-6.75h4Z"/><path class="cls-18" d="M611.89,228.78a7,7,0,0,1-1.85,5.11,7.8,7.8,0,0,1-10.18,0,8,8,0,0,1,0-10.24,7.82,7.82,0,0,1,10.17,0A7,7,0,0,1,611.89,228.78Zm-4.6,3.41a4.34,4.34,0,0,0,.75-1.45,7.23,7.23,0,0,0,.24-2,6.53,6.53,0,0,0-.28-2.06,4,4,0,0,0-.73-1.37,2.76,2.76,0,0,0-1.06-.79,3.35,3.35,0,0,0-1.25-.24,3.47,3.47,0,0,0-1.25.23,3,3,0,0,0-1.07.78,3.83,3.83,0,0,0-.73,1.4,6.74,6.74,0,0,0-.29,2.06,6.51,6.51,0,0,0,.28,2.05,3.94,3.94,0,0,0,.72,1.37,2.86,2.86,0,0,0,1.06.79,3.28,3.28,0,0,0,1.28.25,3.23,3.23,0,0,0,1.27-.25A2.92,2.92,0,0,0,607.29,232.19Z"/><path class="cls-16" d="M627,230.77a3.86,3.86,0,0,1-1.69,3.23,7.54,7.54,0,0,1-4.58,1.24,13.13,13.13,0,0,1-2.91-.29,15.51,15.51,0,0,1-2.33-.75V231h.38a8.18,8.18,0,0,0,2.41,1.32,8,8,0,0,0,2.56.46,7.46,7.46,0,0,0,.83-.06,2.78,2.78,0,0,0,.84-.18,2.11,2.11,0,0,0,.66-.4,1,1,0,0,0-.12-1.49,2.62,2.62,0,0,0-1.1-.49c-.5-.12-1-.24-1.6-.34a14.2,14.2,0,0,1-1.59-.4,5,5,0,0,1-2.44-1.5,3.65,3.65,0,0,1-.75-2.34,3.59,3.59,0,0,1,1.69-3.07,7.36,7.36,0,0,1,4.33-1.19,12.89,12.89,0,0,1,2.63.26,12.06,12.06,0,0,1,2.24.64v3.1h-.37a7.35,7.35,0,0,0-2-1.09,6.92,6.92,0,0,0-2.41-.43,6.11,6.11,0,0,0-.86.05,3.41,3.41,0,0,0-.83.23,1.47,1.47,0,0,0-.6.41.89.89,0,0,0-.26.62.94.94,0,0,0,.41.82,4.37,4.37,0,0,0,1.54.52l1.42.3c.45.1.94.23,1.47.4a4.85,4.85,0,0,1,2.28,1.38A3.38,3.38,0,0,1,627,230.77Z"/><path class="cls-16" d="M643.59,235H640l-.94-2.72h-5l-.93,2.72h-3.5l5-13.46h4Zm-5.35-5.19L636.58,225l-1.65,4.82Z"/><path class="cls-16" d="M660.19,235h-3.58l-.94-2.72h-5l-.94,2.72h-3.49l5-13.46h4Zm-5.35-5.19L653.18,225l-1.65,4.82Z"/><path class="cls-16" d="M674.36,230.77a3.84,3.84,0,0,1-1.69,3.23,7.53,7.53,0,0,1-4.57,1.24,13.16,13.16,0,0,1-2.92-.29,15.38,15.38,0,0,1-2.32-.75V231h.37a8.18,8.18,0,0,0,2.41,1.32,8.06,8.06,0,0,0,2.56.46,7.61,7.61,0,0,0,.84-.06,2.93,2.93,0,0,0,.84-.18,2.17,2.17,0,0,0,.65-.4,1,1,0,0,0-.12-1.49,2.57,2.57,0,0,0-1.09-.49c-.51-.12-1-.24-1.61-.34a13.49,13.49,0,0,1-1.58-.4,5,5,0,0,1-2.45-1.5,3.64,3.64,0,0,1-.74-2.34,3.6,3.6,0,0,1,1.68-3.07A7.38,7.38,0,0,1,669,221.3a12.82,12.82,0,0,1,2.63.26,12.41,12.41,0,0,1,2.25.64v3.1h-.37a7.58,7.58,0,0,0-2-1.09,6.88,6.88,0,0,0-2.41-.43,6.29,6.29,0,0,0-.86.05,3.54,3.54,0,0,0-.83.23,1.53,1.53,0,0,0-.6.41.88.88,0,0,0-.25.62.93.93,0,0,0,.4.82,4.45,4.45,0,0,0,1.54.52l1.42.3a14.93,14.93,0,0,1,1.47.4,4.85,4.85,0,0,1,2.28,1.38A3.38,3.38,0,0,1,674.36,230.77Z"/></g></g></svg>