<svg xmlns="http://www.w3.org/2000/svg" xmlns:xlink="http://www.w3.org/1999/xlink" width="934.99" height="402" viewBox="0 0 934.99 402"><defs><style>.cls-1{fill:none;}.cls-2{isolation:isolate;}.cls-3{clip-path:url(#clip-path);}.cls-4{fill:#fff;}.cls-5{fill:url(#未命名漸層_389);}.cls-6{clip-path:url(#clip-path-2);}.cls-7,.cls-8,.cls-9{opacity:0.2;}.cls-7{fill:url(#未命名漸層_588);}.cls-8{fill:url(#未命名漸層_588-2);}.cls-9{fill:url(#未命名漸層_588-3);}.cls-10{fill:url(#未命名漸層_389-2);}.cls-11{fill:url(#未命名漸層_389-3);}.cls-12{fill:url(#未命名漸層_389-4);}.cls-13{fill:#0b304f;}.cls-14{clip-path:url(#clip-path-3);}.cls-15{clip-path:url(#clip-path-4);}.cls-16,.cls-19,.cls-20{mix-blend-mode:overlay;}.cls-17,.cls-19,.cls-20{opacity:0.5;}.cls-17{fill:url(#未命名漸層_15);}.cls-18{clip-path:url(#clip-path-5);}.cls-19{fill:url(#未命名漸層_49);}.cls-20{fill:url(#未命名漸層_49-2);}.cls-21{clip-path:url(#clip-path-6);}.cls-22{clip-path:url(#clip-path-7);}.cls-23{clip-path:url(#clip-path-8);}.cls-24,.cls-25{opacity:0.1;}.cls-24{fill:url(#未命名漸層_588-4);}.cls-25{fill:url(#未命名漸層_588-5);}</style><clipPath id="clip-path"><rect class="cls-1" x="1.4" y="0.7" width="933.59" height="401.3"/></clipPath><linearGradient id="未命名漸層_389" x1="272" y1="201.07" x2="943.98" y2="201.07" gradientUnits="userSpaceOnUse"><stop offset="0" stop-color="#69ffc2"/><stop offset="0.37" stop-color="#3bd1c8"/><stop offset="0.85" stop-color="#049ad0"/></linearGradient><clipPath id="clip-path-2"><rect class="cls-1" x="274.76" y="6.2" width="662.99" height="395.51"/></clipPath><linearGradient id="未命名漸層_588" x1="929.29" y1="175.48" x2="916.65" y2="387.23" gradientUnits="userSpaceOnUse"><stop offset="0" stop-color="#69ffc2"/><stop offset="0.28" stop-color="#049ad0"/><stop offset="0.4" stop-color="#049ad0" stop-opacity="0.98"/><stop offset="0.5" stop-color="#059bd0" stop-opacity="0.93"/><stop offset="0.6" stop-color="#069cd0" stop-opacity="0.85"/><stop offset="0.69" stop-color="#089ecf" stop-opacity="0.73"/><stop offset="0.78" stop-color="#0aa0cf" stop-opacity="0.58"/><stop offset="0.86" stop-color="#0da3cf" stop-opacity="0.39"/><stop offset="0.94" stop-color="#10a6ce" stop-opacity="0.17"/><stop offset="1" stop-color="#12a8ce" stop-opacity="0"/></linearGradient><linearGradient id="未命名漸層_588-2" x1="157.17" y1="327.74" x2="307.17" y2="429.07" xlink:href="#未命名漸層_588"/><linearGradient id="未命名漸層_588-3" x1="890.06" y1="235.58" x2="668.43" y2="381.22" xlink:href="#未命名漸層_588"/><linearGradient id="未命名漸層_389-2" x1="147.1" y1="203.29" x2="206.04" y2="203.29" xlink:href="#未命名漸層_389"/><linearGradient id="未命名漸層_389-3" x1="1169.71" y1="-318.79" x2="1249.87" y2="-318.79" gradientTransform="translate(-1013.87 -309.52) rotate(39.99)" xlink:href="#未命名漸層_389"/><linearGradient id="未命名漸層_389-4" x1="1194" y1="-330.84" x2="1228.38" y2="-330.84" gradientTransform="translate(-1013.87 -309.52) rotate(39.99)" xlink:href="#未命名漸層_389"/><clipPath id="clip-path-3"><rect class="cls-1" x="-7.6" y="453.7" width="947.08" height="412.49"/></clipPath><clipPath id="clip-path-4"><rect class="cls-1" x="266.29" y="454.42" width="673.19" height="411.77"/></clipPath><linearGradient id="未命名漸層_15" x1="457.47" y1="629.52" x2="950.47" y2="629.52" gradientUnits="userSpaceOnUse"><stop offset="0" stop-color="#feff7f"/><stop offset="0.22" stop-color="#fee08a" stop-opacity="0.76"/><stop offset="0.6" stop-color="#ffaa9c" stop-opacity="0.36"/><stop offset="0.87" stop-color="#ff88a8" stop-opacity="0.1"/><stop offset="1" stop-color="#ff7bac" stop-opacity="0"/></linearGradient><clipPath id="clip-path-5"><rect class="cls-1" x="266.2" y="451.03" width="677.78" height="419"/></clipPath><linearGradient id="未命名漸層_49" x1="598.59" y1="604.44" x2="712.59" y2="715.44" gradientTransform="translate(644.6 -270.12) rotate(44.15)" gradientUnits="userSpaceOnUse"><stop offset="0" stop-color="#edff6a"/><stop offset="0.22" stop-color="#f1ff8d" stop-opacity="0.76"/><stop offset="0.6" stop-color="#f9ffca" stop-opacity="0.36"/><stop offset="0.87" stop-color="#fdfff0" stop-opacity="0.1"/><stop offset="1" stop-color="#fff" stop-opacity="0"/></linearGradient><linearGradient id="未命名漸層_49-2" x1="888.4" y1="564.45" x2="493.4" y2="973.45" gradientTransform="matrix(1, 0, 0, 1, 0, 0)" xlink:href="#未命名漸層_49"/><clipPath id="clip-path-6"><rect class="cls-1" x="15.4" y="-480.3" width="932" height="400"/></clipPath><clipPath id="clip-path-7"><rect class="cls-1" x="12.4" y="-483.3" width="935" height="403"/></clipPath><clipPath id="clip-path-8"><rect class="cls-1" x="285.1" y="-481.88" width="670.36" height="401.98"/></clipPath><linearGradient id="未命名漸層_588-4" x1="1078.81" y1="-76.02" x2="857.18" y2="69.63" xlink:href="#未命名漸層_588"/><linearGradient id="未命名漸層_588-5" x1="721.24" y1="-213.74" x2="499.61" y2="-68.1" xlink:href="#未命名漸層_588"/></defs><title>fomosaas_simple</title><g class="cls-2"><g id="圖層_1" data-name="圖層 1"><g class="cls-3"><rect class="cls-4" x="-19.92" y="-4.64" width="366.81" height="425.41"/><rect class="cls-5" x="272" y="-0.25" width="671.98" height="402.64"/><g class="cls-6"><path class="cls-7" d="M656.21,418.05,882.72,192.12a32.81,32.81,0,0,1,45.43-.86L1173.4,418.05Z"/><path class="cls-8" d="M-41.47,532.46,318.6,173.3a77.29,77.29,0,0,1,107-2L816.24,532.46Z"/><path class="cls-9" d="M202,459.46,604.71,57.73a48.12,48.12,0,0,1,66.65-1.26l435.8,403Z"/></g><path class="cls-10" d="M147.1,194.87l10.65-10.54a5.17,5.17,0,0,1,7.19-.08l41.1,39.5H181.88Z"/><path id="_路徑_" data-name="&lt;路徑&gt;" class="cls-11" d="M113.12,177.37a5.27,5.27,0,0,0-7.36.7l-2.91,3.47L65.56,223.75h20l7.67-9.07,11.46,9.07h14.89L99.88,207.61l11.66-13.81a3.82,3.82,0,0,1,5.37-.47l36.26,30.42h17Z"/><path class="cls-12" d="M131.09,223.75l-19-15.91a1.16,1.16,0,0,1-.14-1.63l3.07-3.66a1.16,1.16,0,0,1,1.63-.15l25.45,21.35Z"/><path class="cls-13" d="M71.54,234.12H65.35v2.5h5.74v2.6H65.35V245H61.9V231.51h9.64Z"/><path class="cls-13" d="M89.52,238.25a7,7,0,0,1-1.85,5.11,7.8,7.8,0,0,1-10.18,0,8,8,0,0,1,0-10.24,7.8,7.8,0,0,1,10.18,0A7,7,0,0,1,89.52,238.25Zm-4.6,3.4a3.92,3.92,0,0,0,.75-1.45,7.1,7.1,0,0,0,.24-2,6.49,6.49,0,0,0-.28-2.06,3.91,3.91,0,0,0-.73-1.38,2.73,2.73,0,0,0-1.06-.78,3.17,3.17,0,0,0-1.25-.25,3.27,3.27,0,0,0-1.25.24,3,3,0,0,0-1.07.78,3.78,3.78,0,0,0-.73,1.39,6.81,6.81,0,0,0-.29,2.07,6.4,6.4,0,0,0,.28,2,3.76,3.76,0,0,0,.73,1.38,2.75,2.75,0,0,0,1,.79,3.28,3.28,0,0,0,1.28.25,3.24,3.24,0,0,0,1.27-.26A2.81,2.81,0,0,0,84.92,241.65Z"/><path class="cls-13" d="M106.59,245h-4.24L98.69,240H97.08V245H93.63V231.51h5.82a13.37,13.37,0,0,1,2,.14,4.47,4.47,0,0,1,1.61.59,3.45,3.45,0,0,1,1.2,1.17,3.34,3.34,0,0,1,.45,1.8,4,4,0,0,1-.69,2.43,5.1,5.1,0,0,1-2,1.56Zm-5.42-9.34a1.79,1.79,0,0,0-.2-.86,1.42,1.42,0,0,0-.72-.57,2.48,2.48,0,0,0-.82-.18c-.31,0-.68,0-1.09,0H97.08v3.62h1.07a9.21,9.21,0,0,0,1.39-.08,2,2,0,0,0,.94-.37,1.81,1.81,0,0,0,.53-.62A2.09,2.09,0,0,0,101.17,235.63Z"/><path class="cls-13" d="M123.36,245H119.9v-9l-2.49,5.85H115l-2.5-5.85v9h-3.27V231.51h4l3,6.75,3-6.75h4Z"/><path class="cls-13" d="M141.84,238.75a7,7,0,0,1-1.84,5.11,7.81,7.81,0,0,1-10.19,0,8,8,0,0,1,0-10.24,7.83,7.83,0,0,1,10.18,0A7,7,0,0,1,141.84,238.75Zm-4.6,3.41a3.92,3.92,0,0,0,.75-1.45,7.15,7.15,0,0,0,.25-2,6.84,6.84,0,0,0-.28-2.06,4.13,4.13,0,0,0-.74-1.37,2.69,2.69,0,0,0-1.06-.79,3.35,3.35,0,0,0-1.25-.24,3.41,3.41,0,0,0-1.24.23,2.92,2.92,0,0,0-1.07.78,3.84,3.84,0,0,0-.74,1.4,6.75,6.75,0,0,0-.28,2.06,6.84,6.84,0,0,0,.27,2.05,4.09,4.09,0,0,0,.73,1.38,2.79,2.79,0,0,0,1.06.78,3.23,3.23,0,0,0,2.54,0A2.74,2.74,0,0,0,137.24,242.16Z"/><path class="cls-13" d="M157,240.74a3.82,3.82,0,0,1-1.69,3.23,7.51,7.51,0,0,1-4.57,1.24,12.59,12.59,0,0,1-2.92-.29,14.33,14.33,0,0,1-2.32-.75V241h.38a8.13,8.13,0,0,0,2.4,1.32,7.8,7.8,0,0,0,2.57.46,7.62,7.62,0,0,0,.83-.06,2.93,2.93,0,0,0,.84-.18,2,2,0,0,0,.65-.4,1,1,0,0,0,.26-.73,1,1,0,0,0-.37-.76,2.62,2.62,0,0,0-1.1-.49c-.51-.12-1-.24-1.61-.34a13.49,13.49,0,0,1-1.58-.4,5,5,0,0,1-2.45-1.5,3.7,3.7,0,0,1-.74-2.34,3.6,3.6,0,0,1,1.68-3.07,7.39,7.39,0,0,1,4.34-1.19,13.53,13.53,0,0,1,2.62.26,13,13,0,0,1,2.25.64v3.1h-.37a7.58,7.58,0,0,0-2-1.09,6.87,6.87,0,0,0-2.4-.43,6.36,6.36,0,0,0-.87.06,2.93,2.93,0,0,0-.82.22,1.5,1.5,0,0,0-.61.41.88.88,0,0,0-.25.63.93.93,0,0,0,.4.81,4.45,4.45,0,0,0,1.54.52l1.42.3a14.93,14.93,0,0,1,1.47.4,4.93,4.93,0,0,1,2.28,1.38A3.38,3.38,0,0,1,157,240.74Z"/><path class="cls-13" d="M173.55,245H170l-.93-2.72h-5l-.94,2.72h-3.5l5-13.46h4Zm-5.36-5.19L166.54,235l-1.66,4.82Z"/><path class="cls-13" d="M190.15,245h-3.59l-.93-2.72h-5l-.94,2.72h-3.5l5-13.46h4Zm-5.36-5.19L183.14,235l-1.66,4.82Z"/><path class="cls-13" d="M204.31,240.74a3.84,3.84,0,0,1-1.68,3.23,7.56,7.56,0,0,1-4.58,1.24,12.5,12.5,0,0,1-2.91-.29,14.45,14.45,0,0,1-2.33-.75V241h.38a8.18,8.18,0,0,0,2.41,1.32,7.75,7.75,0,0,0,2.56.46,7.46,7.46,0,0,0,.83-.06,2.93,2.93,0,0,0,.84-.18,2,2,0,0,0,.66-.4,1,1,0,0,0,.25-.73,1,1,0,0,0-.37-.76,2.62,2.62,0,0,0-1.1-.49c-.51-.12-1-.24-1.6-.34a13.18,13.18,0,0,1-1.59-.4,5,5,0,0,1-2.44-1.5,3.65,3.65,0,0,1-.75-2.34,3.59,3.59,0,0,1,1.69-3.07,7.34,7.34,0,0,1,4.33-1.19,13.53,13.53,0,0,1,2.62.26,12.76,12.76,0,0,1,2.25.64v3.1h-.37a7.51,7.51,0,0,0-2-1.09,6.92,6.92,0,0,0-2.41-.43,6.11,6.11,0,0,0-.86.06,2.91,2.91,0,0,0-.83.22,1.5,1.5,0,0,0-.61.41.88.88,0,0,0-.25.63.94.94,0,0,0,.41.81,4.37,4.37,0,0,0,1.53.52l1.43.3c.45.1.94.23,1.46.4a4.92,4.92,0,0,1,2.29,1.38A3.37,3.37,0,0,1,204.31,240.74Z"/><path class="cls-4" d="M619.39,187.85,630,177.32a5.17,5.17,0,0,1,7.19-.09l41.1,39.51H654.17Z"/><path id="_路徑_2" data-name="&lt;路徑&gt;" class="cls-4" d="M585.41,170.35a5.27,5.27,0,0,0-7.36.71l-2.91,3.47-37.29,42.21h20l7.67-9.07L577,216.74h14.88L572.17,200.6l11.66-13.82a3.82,3.82,0,0,1,5.37-.46l36.26,30.42h17Z"/><path class="cls-4" d="M603.38,216.74l-19-15.92a1.15,1.15,0,0,1-.15-1.62l3.08-3.67a1.16,1.16,0,0,1,1.63-.14l25.45,21.35Z"/><path class="cls-4" d="M543.83,227.1h-6.19v2.5h5.73v2.61h-5.73V238h-3.46V224.5h9.65Z"/><path class="cls-4" d="M561.81,231.23a7,7,0,0,1-1.85,5.11,7.8,7.8,0,0,1-10.18,0,8,8,0,0,1,0-10.24,7.82,7.82,0,0,1,10.17,0A7,7,0,0,1,561.81,231.23Zm-4.6,3.41a4.25,4.25,0,0,0,.75-1.45,7.18,7.18,0,0,0,.24-2,6.58,6.58,0,0,0-.28-2.06,4.12,4.12,0,0,0-.73-1.37,2.76,2.76,0,0,0-1.06-.79,3.35,3.35,0,0,0-1.25-.24,3.47,3.47,0,0,0-1.25.23,3,3,0,0,0-1.07.78,3.68,3.68,0,0,0-.73,1.4,6.74,6.74,0,0,0-.29,2.06,6.47,6.47,0,0,0,.28,2.05,4.08,4.08,0,0,0,.72,1.38,2.86,2.86,0,0,0,1.06.78,3.26,3.26,0,0,0,2.55,0A2.81,2.81,0,0,0,557.21,234.64Z"/><path class="cls-4" d="M578.87,238h-4.23L571,233h-1.61V238h-3.45V224.5h5.82a13.58,13.58,0,0,1,2,.13,4.67,4.67,0,0,1,1.61.59,3.54,3.54,0,0,1,1.2,1.17,3.35,3.35,0,0,1,.45,1.81,4,4,0,0,1-.69,2.43,5.29,5.29,0,0,1-2,1.56Zm-5.41-9.33a1.7,1.7,0,0,0-.21-.87,1.39,1.39,0,0,0-.71-.57,2.83,2.83,0,0,0-.82-.17c-.32,0-.68,0-1.1,0h-1.25v3.62h1.06a10.8,10.8,0,0,0,1.4-.08,2.14,2.14,0,0,0,.94-.37,1.85,1.85,0,0,0,.52-.62A2,2,0,0,0,573.46,228.62Z"/><path class="cls-4" d="M595.64,238h-3.45v-9l-2.49,5.84h-2.4L584.81,229v9h-3.27V224.5h4l3,6.75,3-6.75h4Z"/><path class="cls-4" d="M614.13,231.74a7,7,0,0,1-1.84,5.11,7.81,7.81,0,0,1-10.19,0,8,8,0,0,1,0-10.24,7.8,7.8,0,0,1,10.18,0A7,7,0,0,1,614.13,231.74Zm-4.6,3.4a3.92,3.92,0,0,0,.75-1.45,7.1,7.1,0,0,0,.24-2,6.49,6.49,0,0,0-.28-2.06,3.91,3.91,0,0,0-.73-1.38,2.73,2.73,0,0,0-1.06-.78,3.29,3.29,0,0,0-2.49,0,2.71,2.71,0,0,0-1.07.78,3.64,3.64,0,0,0-.74,1.39,7.55,7.55,0,0,0,0,4.11,3.91,3.91,0,0,0,.73,1.38,2.75,2.75,0,0,0,1,.79,3.28,3.28,0,0,0,1.28.25,3.24,3.24,0,0,0,1.27-.26A2.74,2.74,0,0,0,609.53,235.14Z"/><path class="cls-4" d="M629.24,233.73a3.84,3.84,0,0,1-1.69,3.23A7.6,7.6,0,0,1,623,238.2a12.55,12.55,0,0,1-2.92-.3,14.76,14.76,0,0,1-2.33-.74v-3.23h.38a8.31,8.31,0,0,0,5,1.78,7.23,7.23,0,0,0,.84-.05,3.81,3.81,0,0,0,.84-.18,2.19,2.19,0,0,0,.65-.41,1,1,0,0,0,.26-.72,1,1,0,0,0-.38-.76,2.57,2.57,0,0,0-1.09-.5c-.51-.12-1.05-.23-1.61-.34a11.76,11.76,0,0,1-1.58-.4,5,5,0,0,1-2.45-1.49,3.81,3.81,0,0,1,.94-5.42,7.36,7.36,0,0,1,4.33-1.18,13.63,13.63,0,0,1,2.63.25,12.38,12.38,0,0,1,2.25.65v3.1h-.38a7.39,7.39,0,0,0-4.4-1.53,6.22,6.22,0,0,0-.86.06,3.39,3.39,0,0,0-.83.22,1.65,1.65,0,0,0-.6.41.92.92,0,0,0-.25.63.93.93,0,0,0,.4.82,4.67,4.67,0,0,0,1.54.52l1.42.3a14.74,14.74,0,0,1,1.47.39,4.93,4.93,0,0,1,2.28,1.38A3.41,3.41,0,0,1,629.24,233.73Z"/><path class="cls-4" d="M645.84,238h-3.59l-.93-2.72h-5L635.4,238h-3.5l5-13.45h4Zm-5.36-5.18L638.83,228l-1.66,4.82Z"/><path class="cls-4" d="M662.43,238h-3.58l-.94-2.72h-5L652,238h-3.5l5-13.45h4Zm-5.35-5.18L655.42,228l-1.65,4.82Z"/><path class="cls-4" d="M676.6,233.73a3.85,3.85,0,0,1-1.68,3.23,7.63,7.63,0,0,1-4.58,1.24,12.55,12.55,0,0,1-2.92-.3,14.64,14.64,0,0,1-2.32-.74v-3.23h.38a8.31,8.31,0,0,0,5,1.78,7.08,7.08,0,0,0,.83-.05,3.81,3.81,0,0,0,.84-.18,2.19,2.19,0,0,0,.65-.41.91.91,0,0,0,.26-.72,1,1,0,0,0-.37-.76,2.62,2.62,0,0,0-1.1-.5c-.51-.12-1-.23-1.61-.34a11.76,11.76,0,0,1-1.58-.4,5,5,0,0,1-2.45-1.49,3.71,3.71,0,0,1-.74-2.35,3.63,3.63,0,0,1,1.68-3.07,7.39,7.39,0,0,1,4.34-1.18,13.52,13.52,0,0,1,2.62.25,11.92,11.92,0,0,1,2.25.65v3.1h-.37a7.39,7.39,0,0,0-4.4-1.53,6.36,6.36,0,0,0-.87.06,3.31,3.31,0,0,0-.82.22,1.6,1.6,0,0,0-.61.41,1,1,0,0,0,.16,1.45,4.59,4.59,0,0,0,1.53.52l1.42.3a14.74,14.74,0,0,1,1.47.39,5,5,0,0,1,2.29,1.38A3.4,3.4,0,0,1,676.6,233.73Z"/></g><g class="cls-14"><g class="cls-15"><g class="cls-16"><path class="cls-17" d="M531.78,877.19a233.78,233.78,0,0,1-66.93-164c0-129.57,105-234.61,234.61-234.61a234.34,234.34,0,0,1,196.17,106h109.24c-50.22-119.09-168-202.68-305.41-202.68-183,0-331.31,148.33-331.31,331.31a329.62,329.62,0,0,0,43.49,164Z"/></g></g><g class="cls-18"><ellipse class="cls-19" cx="655.35" cy="659.71" rx="369.17" ry="125.57" transform="translate(-274.39 642.79) rotate(-44.15)"/><path class="cls-20" d="M970.81,456.77l-62.28-64.16-1.14,1.11C955.69,443.48,876.25,598.94,730,741,595.46,871.49,451.31,945.21,391.38,917.61l66,68,1-1c54.7,38.08,205.55-36.26,345.88-172.48C950.58,670.19,1030,514.73,981.72,465A45,45,0,0,0,970.81,456.77Z"/></g></g><g class="cls-21"><g class="cls-22"><g class="cls-23"><path class="cls-24" d="M390.71,147.87,793.46-253.86a48.12,48.12,0,0,1,66.65-1.26l435.8,403Z"/><path class="cls-25" d="M33.14,10.14,435.89-391.58a48.11,48.11,0,0,1,66.65-1.26l435.8,403Z"/></g></g></g></g></g></svg>