<?xml version="1.0" encoding="UTF-8"?>
<svg width="62px" height="41px" viewBox="0 0 62 41" version="1.1" xmlns="http://www.w3.org/2000/svg" xmlns:xlink="http://www.w3.org/1999/xlink">
    <!-- Generator: Sketch 51.1 (57501) - http://www.bohemiancoding.com/sketch -->
    <title>footer_logo</title>
    <desc>Created with Sketch.</desc>
    <defs></defs>
    <g id="Symbols" stroke="none" stroke-width="1" fill="none" fill-rule="evenodd" fill-opacity="0.2">
        <g id="footer" transform="translate(-250.000000, -66.000000)" fill="#000000">
            <path d="M250,104.640613 L258.311841,75.342538 C258.509774,74.6448515 259.069881,74.108979 259.775634,73.9420786 C260.850555,73.6878755 261.928023,74.3531987 262.182226,75.4281195 L265.268087,88.4769642 C265.386998,88.9797915 265.695897,89.4170869 266.13006,89.6972249 C267.058195,90.2960907 268.296073,90.0291658 268.894939,89.1010314 L283.227161,66.888663 C283.584618,66.3346691 284.198847,66 284.858153,66 C285.930159,66 286.799192,66.8690323 286.799192,67.9410381 L286.799192,101.376427 C297.232934,97.5779304 303.038432,93.0792184 304.215686,87.8802912 C305.901481,80.4355726 296.16645,76.2169875 294.429295,75.4000248 C291.696112,74.1146429 291.460695,69.141064 294.429295,68.152807 C297.397894,67.1645501 314.02427,76.9180778 311.795047,89.0063918 C310.422647,96.4484438 303.123736,102.439208 289.898315,106.978684 C286.81972,106.323871 283.577606,105.773057 280.202304,105.338192 L280.202304,91.0676258 C280.202304,90.7303433 280.032287,90.4157839 279.750119,90.2310109 C279.28807,89.9284446 278.668226,90.0577315 278.36566,90.5197812 L278.365684,90.5197972 C274.136871,96.977629 271.016563,101.590334 269.004761,104.357914 C266.620946,104.243201 264.193489,104.184146 261.731018,104.184146 C257.715077,104.184146 253.792262,104.341216 250,104.640613 Z" id="footer_logo"></path>
        </g>
    </g>
</svg>