<svg id="圖層_1" data-name="圖層 1" xmlns="http://www.w3.org/2000/svg" xmlns:xlink="http://www.w3.org/1999/xlink" width="904" height="413" viewBox="0 0 904 413"><defs><style>.cls-1{fill:#fff;}.cls-2{fill:url(#未命名漸層_431);}.cls-3{fill:url(#未命名漸層_431-2);}.cls-4{fill:url(#未命名漸層_431-3);}.cls-5{fill:url(#未命名漸層_431-4);}.cls-6{fill:url(#未命名漸層_431-5);}.cls-7{fill:url(#未命名漸層_431-6);}.cls-8{fill:url(#未命名漸層_431-7);}.cls-9{fill:#ccc;}</style><linearGradient id="未命名漸層_431" x1="130.48" y1="162.53" x2="229.7" y2="162.53" gradientUnits="userSpaceOnUse"><stop offset="0" stop-color="#69ffc2"/><stop offset="0.37" stop-color="#3bd1c8"/><stop offset="0.85" stop-color="#049ad0"/></linearGradient><linearGradient id="未命名漸層_431-2" x1="186.59" y1="158.96" x2="229.7" y2="158.96" xlink:href="#未命名漸層_431"/><linearGradient id="未命名漸層_431-3" x1="1256.55" y1="434.49" x2="1347.87" y2="434.49" gradientTransform="translate(-175.48 -1064.32) rotate(45)" xlink:href="#未命名漸層_431"/><linearGradient id="未命名漸層_431-4" x1="1308.2" y1="431.21" x2="1347.87" y2="431.21" gradientTransform="translate(-869.36 -251.56)" xlink:href="#未命名漸層_431"/><linearGradient id="未命名漸層_431-5" x1="738.21" y1="154.28" x2="830" y2="154.28" xlink:href="#未命名漸層_431"/><linearGradient id="未命名漸層_431-6" x1="449.04" y1="106.73" x2="573.87" y2="106.73" gradientTransform="translate(369.43 -224.33) rotate(39.99)" xlink:href="#未命名漸層_431"/><linearGradient id="未命名漸層_431-7" x1="486.86" y1="87.97" x2="540.4" y2="87.97" gradientTransform="translate(369.43 -224.33) rotate(39.99)" xlink:href="#未命名漸層_431"/></defs><title>formosaas_logo_result</title><rect class="cls-1" x="-229" y="-955" width="1604" height="2264"/><polygon id="_路徑_" data-name="&lt;路徑&gt;" class="cls-2" points="130.48 114.62 130.48 136.4 130.48 210.43 163.07 210.43 163.07 197.3 211.26 197.3 211.26 179.44 163.07 179.44 163.07 136.4 229.7 136.4 229.7 114.62 130.48 114.62"/><rect class="cls-3" x="186.59" y="151.01" width="43.11" height="15.89"/><polygon id="_路徑_2" data-name="&lt;路徑&gt;" class="cls-4" points="436.98 100.25 422.81 114.42 374.63 162.6 395.84 183.81 404.38 175.27 435.74 206.63 447.37 195 416 163.64 444.02 135.63 487.38 179 501.55 164.82 436.98 100.25"/><rect class="cls-5" x="438.83" y="172.34" width="39.68" height="14.63" transform="translate(261.37 -271.71) rotate(45)"/><path class="cls-6" d="M738.21,141.16l16.58-16.42a8.06,8.06,0,0,1,11.2-.13l64,61.53H792.38Z"/><path id="_路徑_3" data-name="&lt;路徑&gt;" class="cls-7" d="M685.29,113.9A8.22,8.22,0,0,0,673.82,115l-4.53,5.41-58.08,65.74h31.12L654.28,172l17.84,14.13h23.19L664.67,161l18.15-21.52a6,6,0,0,1,8.36-.72l56.48,47.38h26.49Z"/><path class="cls-8" d="M713.27,186.14l-29.55-24.79a1.79,1.79,0,0,1-.22-2.53l4.79-5.71a1.8,1.8,0,0,1,2.54-.22l39.64,33.25Z"/><path d="M62.91,254.31H73v2.24a28.16,28.16,0,0,1-3.47,12.67,17.47,17.47,0,0,0,4.33,4.49l-1.56,2.37a27.06,27.06,0,0,1-4.23-4.61,25.74,25.74,0,0,1-4.69,4.72L61.79,274a20.91,20.91,0,0,0,4.9-4.85,48,48,0,0,1-3-9.05c-.09-.38-.2-.86-.34-1.43l2.24-.5c.07.31.12.57.16.78a37.24,37.24,0,0,0,2.4,7.75,31.22,31.22,0,0,0,2.21-8.48c0-.38.12-.87.21-1.46H62.44v-1.38H61v21.07h-2.3v-5.06c-1.13.39-2.37.77-3.73,1.15l-4.27,1.17-.76-2.42,1.1-.21.86-.18V255.35h-2v-2.24H62.91Zm-8.71,4.22h4.48v-3.18H54.2Zm0,5.35h4.48v-3.16H54.2Zm2.29,5.87a17.73,17.73,0,0,0,2.19-.68v-3H54.2v4.28Z"/><path d="M95.45,256.37H87.34v4.82h7.59v2.58H87.34v7.9h-3V253.79H95.45Z"/><path d="M113,259.29h4.33v2.16H113V262l2.4,2.17,2.21,2.08-1.38,2.32-1.64-1.95A19.62,19.62,0,0,0,113,265v11.39H110.6V265.68a23.89,23.89,0,0,1-4.59,6l-1.38-2.37a22.63,22.63,0,0,0,5.82-7.88h-5.4v-2.16h5.55V256c-.68.12-1.31.21-1.9.26l-2.4.18-.55-2.13a35.68,35.68,0,0,0,10.2-1.8l1,2a20.28,20.28,0,0,1-4,1.18Zm5.34,16.48V254.1h9.86v21.36h-2.37V273.4h-5.11v2.37Zm7.49-19.43h-5.11v14.89h5.11Z"/><path d="M150.92,266.93q0,5.11-7.31,5.11-6.48,0-6.49-6.1h3.13a2.45,2.45,0,0,0,0,.34,3.33,3.33,0,0,0,3.44,3.39,5.65,5.65,0,0,0,2.87-.64,2,2,0,0,0,1.06-1.76v-.21c0-1.23-1.66-2.33-5-3.3s-5-2.52-5-4.65a5,5,0,0,1,1.88-4.23,8.22,8.22,0,0,1,5.16-1.46,5.86,5.86,0,0,1,4.15,1.5,5.17,5.17,0,0,1,1.62,4h-2.9a3,3,0,0,0-3.36-3.11,3.73,3.73,0,0,0-2.32.76,2.32,2.32,0,0,0-1,1.93,2,2,0,0,0,.72,1.59,8.91,8.91,0,0,0,3,1.23C148.79,262.44,150.92,264.32,150.92,266.93Z"/><path d="M165.68,257.07h3.72v18.65h-2.32V274h-4.59V276h-2.32v-19h2.64a13.05,13.05,0,0,0,1.43-3.57c0-.16.1-.37.18-.65l2.35.7A8.85,8.85,0,0,1,165.68,257.07Zm1.4,2.14h-4.59v5h4.59Zm0,7.17h-4.59v5.43h4.59Zm7.9-9.83h8q0,1.69-.07,7.45a65.56,65.56,0,0,1-.39,8.16,5.29,5.29,0,0,1-1.3,3.24c-.64.56-2.15.84-4.55.84q-1,0-1.23,0l-.81-2.55.76,0c1.39.07,2.29.11,2.7.11a2.11,2.11,0,0,0,1-.19,2,2,0,0,0,.73-1q.68-1.66.68-11.87v-1.87h-6.11a24,24,0,0,1-2.92,6.28l-2-2a24,24,0,0,0,3.66-10.71l2.42.34q0,.33-.06,1.29A12.13,12.13,0,0,1,175,256.55ZM176.16,270a36.24,36.24,0,0,0-3.26-6.49l2.16-1.15a39.89,39.89,0,0,1,3,5.24c.14.3.32.68.55,1.15Z"/><path d="M192.22,264a32,32,0,0,1-.91,7.26,15.31,15.31,0,0,1-2.69,5.2l-1.87-2.14q3-3.46,3.05-10V264h-3.05v-2.43h3.07v-6h-2.61v-2.45h13.46v2.45h-2.61v6h2.61V264h-2.61v12.46h-2.42V264Zm.05-2.43h3.37v-6h-3.37Zm18.49,7.69a22,22,0,0,1-4,4,23.77,23.77,0,0,1-5.74,3l-1.77-2.32a20.72,20.72,0,0,0,6-2.68,21.65,21.65,0,0,0,4-3.81Zm-.23-7.66a29.88,29.88,0,0,1-8.48,6.13l-1.8-2.22a23.45,23.45,0,0,0,8.63-5.66Zm-.19-7a23.87,23.87,0,0,1-8.08,5l-1.59-2.22.78-.26a20.87,20.87,0,0,0,7.07-4.3Z"/><path d="M223.25,276.42H220.8v-9.75h-2.16a20.47,20.47,0,0,1-2.4,9.67l-2.09-1.48a15,15,0,0,0,1.71-3.95,20.85,20.85,0,0,0,.51-4.24h-2.24v-2.24h6.67V261.5h-5.47v-8.21h2.32v6h3.15v-6.83h2.45Zm5.61-14.86h-4.59v-2.32h4.82v-6.81h2.32v6.81h6.73v2.32h-4.87q1.17,8.47,4.87,12.57l-1.59,2.19c-.21,0-.82-.89-1.82-2.65a24.35,24.35,0,0,1-2.29-5.33,48.42,48.42,0,0,1-1.31-6.78,31.89,31.89,0,0,1-2,8.32,23.59,23.59,0,0,1-4.08,6.41l-1.57-2.37A22.2,22.2,0,0,0,228.86,261.56Zm6.08-3.21-1.13-2-1.17-1.85,2-1.12,1.2,1.77L237,257Z"/><path d="M245.57,255.4a9.07,9.07,0,0,0-1.09-2.66l2.35-.31a8.49,8.49,0,0,1,.7,1.59l.44,1.38h3.42v2.25h-9.86V255.4Zm-3.31,3.84h8.29v2.14h-8.29Zm0,3.8h8.35v2.14h-8.35Zm.08,4.07h8.27v9.05h-2.35V275h-3.57v1.43h-2.35Zm5.92,2.11h-3.57v3.66h3.57Zm14.16-10.48a1.72,1.72,0,0,0,.25,1.14,1.38,1.38,0,0,0,.95.24h1.62v2.19h-2.48a3,3,0,0,1-2.1-.62,3.3,3.3,0,0,1-.69-2.45v-3.91h-3.6v.83a8.33,8.33,0,0,1-.66,3.53,12.41,12.41,0,0,1-3,3.46l-1.91-1.7a8.34,8.34,0,0,0,2.58-2.77,10.63,10.63,0,0,0,.58-4.16v-1.39h8.42Zm1.23,6.94a14.31,14.31,0,0,1-2.66,5.13l-.63.79a25,25,0,0,0,5.19,2.4l-1.41,2.26a29.56,29.56,0,0,1-5.84-3,25.54,25.54,0,0,1-5.11,2.55l-1.07.4-1.28-2.25a19.08,19.08,0,0,0,5.56-2.27l-.6-.59a20.35,20.35,0,0,1-2.35-2.87c-.12-.19-.3-.45-.52-.76l1.95-1.17,1.46,1.85a16,16,0,0,0,2.06,2.08l.34-.33a10.59,10.59,0,0,0,2.14-3.37l.26-.65H252V263.7h11.69Z"/><path d="M280.41,257.67H268.89v-2.21h4.48l-.47-1.33a14,14,0,0,0-.65-1.39l2.53-.31a11.21,11.21,0,0,1,1.07,2.74c0,.07,0,.16.08.29h4.48Zm-10.69,1.67h9.86v2.09h-9.86Zm0,3.83h9.86v2.06h-9.86Zm.08,4.07h9.67v8.92H277V275h-4.69v1.38H269.8Zm7.17,2h-4.69V273H277Zm11.29-16.85v7.43h4.64v2.38h-4.64v14.18h-2.58V262.24h-4.95v-2.38h4.95v-7.43Z"/><path d="M85.28,284.14A23.68,23.68,0,0,0,81.75,291a21.69,21.69,0,0,0-.64,5.36,19.24,19.24,0,0,0,.77,5.73,17.14,17.14,0,0,0,3.38,5.58H82.18a15.13,15.13,0,0,1-3.25-5,17,17,0,0,1-1.24-6.49,16,16,0,0,1,.58-4.43,22.09,22.09,0,0,1,2.16-4.8,12.16,12.16,0,0,1,1.8-2.76Z"/><path d="M101.81,307H99.68v-1.15l-7.7.73V296.47H94v7.7l1.72-.19v-9.07H90.91v-2.19h4.85V289h-.93a10.59,10.59,0,0,1-2,3.07l-1.67-1.67a17.5,17.5,0,0,0,3.23-6.7l2.14.47-.42,1.44-.36,1.22h6.05V289H98v3.7h3.89v2.19H98v8.92l1.8-.24v-7.12h2v8.64a15.39,15.39,0,0,0,2.34-3.34,20,20,0,0,0,1.45-4.67h-3.45V295h3.63c0-.17,0-.32,0-.44.07-.87.11-1.58.11-2.14v-2.63h-3v-2.14h3v-3.89h2.21v3.89h5V295H115v2.14H109.9a16.38,16.38,0,0,0,1.93,5.24,12.37,12.37,0,0,0,3.13,3.34l-1.59,2.06a14.2,14.2,0,0,1-3.52-4.15,21.88,21.88,0,0,1-2-6.49,18.9,18.9,0,0,1-1.8,6,18.47,18.47,0,0,1-2.94,4.61l-1.26-2.32Zm9.1-12v-5.21h-2.76v2.68a23.2,23.2,0,0,1-.1,2.53Z"/><path d="M120.69,285.83H140V307H137.3v-2.32H123.38V307h-2.69Zm2.69,2.48v13.9H137.3v-13.9Z"/><path d="M145.7,295.74v-2.21h3.36a19.89,19.89,0,0,0-1.72-3.91l2.35-.63a19.39,19.39,0,0,1,1.54,3.83c.05.19.12.43.21.71h2.29a31.71,31.71,0,0,0,1.72-4.59l2.22.88-.65,1.83c-.14.36-.31.79-.52,1.28-.07.15-.16.35-.26.6h3.31v2.21Zm.42-7.27v-2.19h5.6l-.6-1.12a5,5,0,0,0-.78-1.12l2.48-.32a9.42,9.42,0,0,1,.76,1.33l.57,1.23h5.16v2.19Zm.73,9.31H158v9.93h-2.33v-1.56h-6.54v1.56h-2.32Zm8.86,2.19h-6.54v4h6.54Zm13.69-13.22a54.92,54.92,0,0,1-2.63,7.64q2.74,3.75,2.74,6.86a3.67,3.67,0,0,1-4.36,4.19h-.57a1.11,1.11,0,0,1-.23,0l-.76-2.53a7.52,7.52,0,0,0,1.51.13q2.19,0,2.19-1.83,0-2.4-2.92-6.78c.84-2.08,1.33-3.36,1.49-3.83l1.15-3.47h-4.2v20.6h-2.4V284.84h9Z"/><path d="M180.28,284.09l2.21,1.09a28.69,28.69,0,0,1-7.66,10.69l-1.75-2.21a28.18,28.18,0,0,0,4.62-5A27.53,27.53,0,0,0,180.28,284.09Zm12.85,9.2q-.33,10.45-1.27,12.18a3,3,0,0,1-1.33,1.33,11.63,11.63,0,0,1-4,.42c-.73,0-1.16,0-1.3,0l-.73-2.42c1.79.05,3.12.07,4,.07s1.26-.52,1.5-1.56a58.21,58.21,0,0,0,.58-7.64h-6a17.78,17.78,0,0,1-1.86,5.52,15.4,15.4,0,0,1-3.81,4.45c-1.66,1.37-2.65,2.05-3,2.05l-1.67-2.16a16.08,16.08,0,0,0,5.46-4.34,13.14,13.14,0,0,0,2.28-5.52h-4.22v-2.35Zm-2.81-9a35.76,35.76,0,0,0,3,4.93,37.57,37.57,0,0,0,3.78,4.15l-2.08,2a35.24,35.24,0,0,1-6.1-8.68H184v-2.38Z"/><path d="M224.06,296.47a65.22,65.22,0,0,1-.53,7.24c-.26,1.64-.72,2.71-1.39,3.21a6.28,6.28,0,0,1-3.56.74,8.07,8.07,0,0,1-1,0l-.78-2.37a20.89,20.89,0,0,0,2.37.11,1.89,1.89,0,0,0,1.68-.71c.32-.47.6-2.5.82-6.1H206a34.57,34.57,0,0,1-3.65,4.2l-1.9-1.77a8.44,8.44,0,0,0,1.76-1.65,26.26,26.26,0,0,0,2.94-3.8,28.55,28.55,0,0,0,2.7-5.92h-6.44v-2.19h3.11L204,286.1l-.73-1.41,2.16-.52.21.41a24.3,24.3,0,0,1,1,2.56c0,.07.06.16.11.29h1.64l.34-1.62.26-2,2.35.15-.24,1.85-.34,1.6h10.36l-.68,4.51h2.21l-.67,4.53Zm-16,4.33c-.08.37-.16.68-.23.94a27,27,0,0,1-2,5.48L203.46,306a24.11,24.11,0,0,0,2.43-5.81Zm11.66-4.33.36-2.37H208.65l-.65,1.31a10.56,10.56,0,0,1-.65,1.06ZM209.43,307c-.05-1.14-.08-2.13-.08-2.94a17.19,17.19,0,0,0-.26-3.29l2.19-.18.13.91c.19,1.32.33,2.83.42,4.51,0,.23,0,.51,0,.84Zm8.71-15,.39-2.32h-8.26l-.37,1.22-.36,1.1Zm-4.25,13.71a21.85,21.85,0,0,0-1-5.21L215,300a18.47,18.47,0,0,1,1.12,4.41c0,.19.08.42.13.7Zm4.09-1.48-.62-2a19.61,19.61,0,0,0-.84-2.17l1.86-.6.26.58a30.65,30.65,0,0,1,1.14,2.87l.21.62Z"/><path d="M246.75,298.22q0,5.11-7.3,5.11-6.49,0-6.5-6.1h3.13a2.53,2.53,0,0,0,0,.34A3.33,3.33,0,0,0,239.5,301a5.55,5.55,0,0,0,2.87-.64,2,2,0,0,0,1.07-1.76v-.21q0-1.85-5-3.3t-5-4.65a5.06,5.06,0,0,1,1.88-4.23,8.22,8.22,0,0,1,5.16-1.46,5.86,5.86,0,0,1,4.15,1.5,5.17,5.17,0,0,1,1.62,4h-2.9a3,3,0,0,0-3.36-3.1,3.73,3.73,0,0,0-2.32.75,2.34,2.34,0,0,0-1,1.93,2,2,0,0,0,.71,1.59,8.91,8.91,0,0,0,3,1.23Q246.76,294.32,246.75,298.22Z"/><path d="M265.08,296.11a16.08,16.08,0,0,1-4.49,11.52h-3.1a16.45,16.45,0,0,0,3.46-5.86,21.09,21.09,0,0,0,.69-5.5,20.52,20.52,0,0,0-.73-5.65,24.73,24.73,0,0,0-3.45-6.48h3.08a29.88,29.88,0,0,1,3.38,5.91A15.76,15.76,0,0,1,265.08,296.11Z"/><path d="M632.23,252.41v4.29h5.26v.61q0,7.31-.15,11.89c-.1,3.05-.46,4.91-1.06,5.58s-1.95,1-4,1h-.57l-.2,0-.77-2.61a21.46,21.46,0,0,0,2.33.1,1.68,1.68,0,0,0,1.26-.44c.28-.3.47-1.37.55-3.21q.15-3.68.26-10.62h-2.94a42,42,0,0,1-.8,7.18,30.25,30.25,0,0,1-2.17,6.54c-1,2.11-1.56,3.16-1.73,3.16l-2-2.07a19.94,19.94,0,0,0,3.2-6.57,42.37,42.37,0,0,0,1.11-8.24h-4.26V256.7h4.29v-4.29Zm16.27,23.34h-2.38V274h-4.47v1.94h-2.37V254.37h9.22Zm-6.85-19.1v15h4.47v-15Z"/><path d="M665.71,253.69a25.49,25.49,0,0,0,8.14,17.74,12.94,12.94,0,0,0,2.07,1.79l-1.64,2.63q-.37,0-3.06-2.94a31.55,31.55,0,0,1-4.14-5.49,30.85,30.85,0,0,1-2.5-5.79,31.93,31.93,0,0,1-3,6.75,23.27,23.27,0,0,1-4.38,5.12c-1.79,1.6-2.82,2.4-3.07,2.4l-1.71-2.3c.29,0,1.37-.83,3.24-2.5a22.42,22.42,0,0,0,4.8-6.24,37.82,37.82,0,0,0,3-7.45l-.23-1.09h-6.74v-2.63Z"/><path d="M689.37,252.56h2.74V271h6.69V256.7h2.63v19.2H698.8v-2.45H683v2.45h-2.6V256.7H683V271h6.38Z"/><path d="M708.55,264.21a14.33,14.33,0,0,1-.87,4.41L706,268a17.83,17.83,0,0,0,1-4.06Zm-.09-1.14-1.9.09-.28-1.82.69,0a17.22,17.22,0,0,0,2.47-2.68l.21-.26-1.43.08h-1.56l-.2-1.79.66,0a21.22,21.22,0,0,0,2.3-4.29l1.91.41-1.17,2.22a8.29,8.29,0,0,1-1.18,1.74l1,0,.67,0,.53-.77.49-.84,1.81.71A26,26,0,0,1,709,261.4l1.48-.11a8.81,8.81,0,0,0,1.2-.23l-.21-.63-.25-.77,1.5-.2a14.11,14.11,0,0,1,.64,1.6l.59,2-1.71.44-.21-.95A25.38,25.38,0,0,1,708.46,263.07Zm8.06,6.24h2.37V273h7v-3.42h2.3v6.33h-2.3v-1H709.62v1h-2.27v-6.33h2.27V273h6.9Zm-7.2-1.07c0-.77.07-1.42.07-2a12.35,12.35,0,0,0-.12-2l1.45-.08a9.67,9.67,0,0,1,.23,1.94,18.66,18.66,0,0,0,.08,2.07Zm3.06-.44a14.58,14.58,0,0,0-.79-3.67l1.4-.33a13,13,0,0,1,.59,1.76l.41,1.73Zm4.29-13.43-.08-.25a4.42,4.42,0,0,0-.66-1.41l2.25-.3a5,5,0,0,1,.84,2h2.53v1.82H714v-1.82Zm-2.2,2.92h6.41V259h-6.41Zm0,2.8h6.38v1.66H714.5Zm.08,8.4V263h6.28v5.51Zm4.41-3.85h-2.52v2.22H719Zm4.85-.36a22.94,22.94,0,0,1-.86,4.42l-1.74-.64a17.81,17.81,0,0,0,.87-3.4c0-.17.07-.38.13-.63Zm.31-1.12-2,.07-.31-1.81.69,0a16,16,0,0,0,2.73-2.94l-1.61.08h-1.53l-.23-1.79.67,0a12.87,12.87,0,0,0,2.12-3.83,3,3,0,0,1,.17-.46l1.82.51a30.21,30.21,0,0,1-1.92,3.57c-.05.07-.11.16-.18.28l1,0,.71,0a3.94,3.94,0,0,0,.51-.74l.51-.87,1.74.59a27,27,0,0,1-4.37,5.67l1.61-.21,1.1-.17-.23-.67-.3-.76,1.58-.21c.34.82.55,1.36.64,1.64l.58,2-1.71.43-.23-.94A19.26,19.26,0,0,1,724.15,263.16Zm.43,5.16.06-2-.11-2,1.46-.13a7.43,7.43,0,0,1,.25,1.94,15.12,15.12,0,0,0,.08,2.07Zm3.07.3q-.06-.37-.15-1.29a22.11,22.11,0,0,0-.77-3.12l1.48-.39a16.17,16.17,0,0,1,1,3.63c0,.15.07.35.13.61Z"/><path d="M739,257h3.65v18.26h-2.28V273.5h-4.49v2H733.6V257h2.58a12.73,12.73,0,0,0,1.4-3.49,5.17,5.17,0,0,1,.18-.64l2.3.69A8.72,8.72,0,0,1,739,257Zm1.37,2.1h-4.49v4.87h4.49Zm0,7h-4.49v5.31h4.49Zm7.74-9.63h7.79q0,1.67-.07,7.29a65.2,65.2,0,0,1-.38,8,5.21,5.21,0,0,1-1.27,3.18c-.63.55-2.11.82-4.46.82q-1,0-1.2,0l-.79-2.5.74,0c1.36.07,2.24.1,2.64.1a2.16,2.16,0,0,0,1-.18,1.86,1.86,0,0,0,.71-1q.68-1.63.67-11.62v-1.84h-6a23.46,23.46,0,0,1-2.86,6.15l-2-1.91a23.61,23.61,0,0,0,3.57-10.5l2.38.34c0,.22,0,.64-.07,1.26A11.29,11.29,0,0,1,748.1,256.44Zm1.15,13.15a35.83,35.83,0,0,0-3.19-6.36l2.12-1.12a40,40,0,0,1,2.93,5.13l.54,1.13Z"/><path d="M764.72,270.51a15.85,15.85,0,0,1-3.16,4.49l-1.89-1.45a16,16,0,0,0,3.09-4Zm11.7-12.76h6.3v1.78H760.23v-1.78h6.1L766,257l-.59-1h-4.08v-1.81h8.55l-.28-.54-.59-.87,2.38-.43.61.94.53.9h9.25v1.81h-4.47l-.08.23A7.77,7.77,0,0,1,776.42,257.75Zm3.83,10.82h-17.8v-7.84h17.8Zm-2.4-6.1h-13v1.33h13Zm-13,4.36h13v-1.45h-13Zm3.55,2.61v3a.78.78,0,0,0,.87.89h5a1.18,1.18,0,0,0,.9-.27,4.47,4.47,0,0,0,.4-1.87,2.85,2.85,0,0,1,0-.51l2.3.76a5.91,5.91,0,0,1-.77,3.15c-.43.54-1.32.81-2.68.81H769a2.42,2.42,0,0,1-2.88-3v-3Zm6.41-13.38h-6.92l.49.79a7,7,0,0,1,.38.74l.08.16h5a5,5,0,0,0,.61-.95Zm-2.45,16.49a15.43,15.43,0,0,0-2.3-2.86l1.77-1.12.38.36a18.26,18.26,0,0,1,1.86,2l.21.26Zm8.71,2.3a28.31,28.31,0,0,0-2.61-4.06l-.25-.33,1.84-1a31.27,31.27,0,0,1,2.65,3.45l.46.69Z"/><path d="M787.6,265.61a34.05,34.05,0,0,0,8.53-2.07h-6.67v-4.83l-1.27.62-1.43-2a26.56,26.56,0,0,0,8.47-4.93l2.12.79-1.07.92h8.22v1.4l-.23.18a24.63,24.63,0,0,1-2.14,1.64c-.12.06-.28.17-.49.3h6.41v5.9H800l-1.23.72a7.14,7.14,0,0,1,.9,1.09l.81,1.23a19.72,19.72,0,0,0,6.57-2.25l1.73,1.46a13.7,13.7,0,0,1-1.81,1l-1.69.76a11.46,11.46,0,0,0,4.52,5.14L808,274.24a14.84,14.84,0,0,1-4.32-5.18c-.12-.24-.28-.55-.48-.92l-1,.23-1,.23a13.58,13.58,0,0,1,.33,2.81c0,1.82-.33,3-1,3.56s-2.09.83-4.25.83a7.54,7.54,0,0,1-.92,0l-.92-2.37c.68.06,1.59.1,2.74.1,1,0,1.58-.13,1.8-.4a2.82,2.82,0,0,0,.31-1.62,6.09,6.09,0,0,0,0-.94,35.68,35.68,0,0,1-4.07,2.13,64.44,64.44,0,0,1-7.57,2.39l-1-2.12a30.36,30.36,0,0,0,12.21-4.39l-.13-.39-.36-.69a32.44,32.44,0,0,1-8.11,3.2l-2,.51-1-2a34.22,34.22,0,0,0,10.26-3.35l-.3-.38-.31-.31a45.4,45.4,0,0,1-6.59,2.05c-.41.08-.95.2-1.63.36Zm10.55-8,.4-.23a10.27,10.27,0,0,0,1-.61l1.23-.84h-6.49a13.42,13.42,0,0,1-2.48,1.5l-.33.18Zm-6.46,1.94v2h5.95v-2Zm14.11,2v-2h-6v2Z"/><path d="M606.94,290.1c-.05-.23-.08-.4-.1-.52-.09-.4-.17-.75-.26-1l-.38-1.28h-1.4a12.22,12.22,0,0,1-2.28,2.86l-.28.28-1.84-1.63a15.5,15.5,0,0,0,4.14-5.72l2.35.3-.41.92a6.18,6.18,0,0,1-.3.62l-.16.23h6v2.14h-3.5l.36,1,.43,1.38Zm-6.54,7.3a26.17,26.17,0,0,0,6-7.15l1.71,1.07-.26.51c-.17.34-.39.73-.66,1.18l-.92,1.45v12.08h-2.32v-9.22a9.76,9.76,0,0,1-1.28,1.3l-1.3,1.13ZM620.52,291v2.28h3.38v2.19h-3.38v8.15a2.92,2.92,0,0,1-.56,2,3.12,3.12,0,0,1-2.32.63h-4.11l-.69-2.35,4.52.1c.56,0,.84-.26.84-.79v-7.74H607.73v-2.19H618.2V291Zm-7.68,11.34-.56-.84a39.87,39.87,0,0,0-2.94-3.65l1.87-1.2.35.33a34,34,0,0,1,3.32,3.85Zm6.43-15,.44,1.23.41,1.38-2.38.35-.41-1.61a7.42,7.42,0,0,0-.38-1.12l-.08-.23h-1.73a16.45,16.45,0,0,1-2.4,2.81l-1.84-1.58a14,14,0,0,0,3.91-5.42l2.34.28-.4.92-.44.85h7.59v2.14Z"/><path d="M632.22,292.73v-1.87a12.22,12.22,0,0,1-1.81.95l-2,.79-1.23-2.48a22.61,22.61,0,0,0,10.45-7h2.58A24.38,24.38,0,0,0,650.73,290l-1.33,2.53-1.68-.72a13.61,13.61,0,0,1-1.76-.89v1.79Zm-2,2.93h17.49v10.88h-2.52v-1.46H632.78v1.46h-2.53Zm15,2.17H632.78v5.08h12.44Zm-.08-7.4c-.53-.34-.95-.62-1.28-.82a25,25,0,0,1-4.93-4.26,31.14,31.14,0,0,1-5.94,5.08Z"/><path d="M656.73,290v4h4.78v2.22h-4.78v7H654.1V287.8h7.71V290Z"/><path d="M664.16,295.57a8.32,8.32,0,0,1,2.18-5.78,7.5,7.5,0,0,1,11,0,8.76,8.76,0,0,1,0,11.53,7.08,7.08,0,0,1-5.5,2.38,7.17,7.17,0,0,1-5.52-2.37A8.21,8.21,0,0,1,664.16,295.57Zm2.73-.16a6.09,6.09,0,0,0,1.43,4,4.61,4.61,0,0,0,7.13.08,6.22,6.22,0,0,0,1.35-4.07,5.7,5.7,0,0,0-1.35-3.87,4.92,4.92,0,0,0-7.22,0A5.79,5.79,0,0,0,666.89,295.41Z"/><path d="M692.55,303.3h-3.24l-4.39-6.9,0,6.9h-2.63V287.8h4.11c3.46,0,5.19,1.55,5.19,4.67a4.73,4.73,0,0,1-.91,2.94,3.47,3.47,0,0,1-2.46,1.35Zm-7.66-8h.8q3.24,0,3.24-2.78c0-1.79-1.08-2.68-3.22-2.68h-.82Z"/><path d="M706.7,292.85l-3.88,10.65h-.64l-3.65-10.7-1.76,10.5h-2.63l2.6-15.91h1.94l4,10.65,3.85-10.65h2l2.32,15.91h-2.63Z"/><path d="M712.72,295.57a8.28,8.28,0,0,1,2.19-5.78,7.49,7.49,0,0,1,11,0,8.76,8.76,0,0,1,0,11.53,7.08,7.08,0,0,1-5.5,2.38,7.17,7.17,0,0,1-5.52-2.37A8.25,8.25,0,0,1,712.72,295.57Zm2.74-.16a6,6,0,0,0,1.43,4,4.59,4.59,0,0,0,7.12.08,6.22,6.22,0,0,0,1.35-4.07,5.7,5.7,0,0,0-1.35-3.87,4.91,4.91,0,0,0-7.21,0A5.74,5.74,0,0,0,715.46,295.41Z"/><path d="M738.33,290.94a3,3,0,0,0-2.52-1.41,2.39,2.39,0,0,0-1.64.59,2,2,0,0,0-.66,1.57c0,.66.8,1.43,2.41,2.34s2.42,1.35,2.44,1.35a3.71,3.71,0,0,1,1.71,3,5.43,5.43,0,0,1-1.37,3.85A4.87,4.87,0,0,1,735,303.7a5.29,5.29,0,0,1-4.75-3l1.66-1.63a3.88,3.88,0,0,0,1.23,1.63,2.82,2.82,0,0,0,1.84.74,2.19,2.19,0,0,0,1.77-.76,2.77,2.77,0,0,0,.65-1.87,2.15,2.15,0,0,0-.48-1.39,11.51,11.51,0,0,0-3.28-1.84q-2.8-1.23-2.8-3.53a4.59,4.59,0,0,1,1.29-3.31,4.32,4.32,0,0,1,3.23-1.34,5.43,5.43,0,0,1,4.24,1.73Z"/><path d="M745.79,299.82l-1.38,3.48h-2.78l6-15.91H750l5.87,15.91h-2.8l-1.31-3.48Zm2.88-8.63-2.24,6.56h4.62Z"/><path d="M764.17,287.59h3.65v18.26h-2.27v-1.71h-4.49v2h-2.28V287.59h2.58a12.66,12.66,0,0,0,1.41-3.5,5.66,5.66,0,0,1,.18-.63l2.29.69A8.56,8.56,0,0,1,764.17,287.59Zm1.38,2.1h-4.49v4.87h4.49Zm0,7h-4.49V302h4.49Zm7.74-9.63h7.79q0,1.67-.07,7.29a65.32,65.32,0,0,1-.38,8,5.2,5.2,0,0,1-1.28,3.18c-.62.55-2.1.82-4.45.82q-1,0-1.2,0l-.8-2.5.75,0c1.36.07,2.24.1,2.64.1a2.16,2.16,0,0,0,1-.18,1.86,1.86,0,0,0,.71-1q.66-1.64.66-11.62v-1.84h-6a23.46,23.46,0,0,1-2.86,6.15l-2-1.91a23.49,23.49,0,0,0,3.58-10.5l2.37.34c0,.22,0,.64-.06,1.26A12.72,12.72,0,0,1,773.29,287.08Zm1.15,13.15a36.53,36.53,0,0,0-3.19-6.36l2.11-1.12a38.89,38.89,0,0,1,2.94,5.13l.54,1.13Z"/><path d="M789.91,301.15a15.72,15.72,0,0,1-3.17,4.49l-1.89-1.45a15.53,15.53,0,0,0,3.09-4Zm11.69-12.77h6.31v1.79H785.42v-1.79h6.1l-.38-.71-.59-1h-4.09v-1.81H795l-.28-.54-.59-.87,2.37-.43.62.94.53.9h9.25v1.81h-4.47l-.08.23A7.31,7.31,0,0,1,801.6,288.38Zm3.83,10.83H787.64v-7.84h17.79Zm-2.4-6.1H790v1.33h13Zm-13,4.36h13V296H790Zm3.55,2.61v3a.78.78,0,0,0,.87.89h5a1.19,1.19,0,0,0,.91-.27,4.65,4.65,0,0,0,.4-1.87,3,3,0,0,1,0-.52l2.29.77a5.93,5.93,0,0,1-.76,3.15c-.43.54-1.32.81-2.68.81h-5.44a2.42,2.42,0,0,1-2.89-3v-3ZM800,286.7h-6.92l.49.79a8.11,8.11,0,0,1,.38.74l.08.15h5a5.06,5.06,0,0,0,.61-.94Zm-2.45,16.49a15.85,15.85,0,0,0-2.3-2.86l1.76-1.12c.16.15.28.27.39.36a18.26,18.26,0,0,1,1.86,2l.2.26Zm8.71,2.3a28.31,28.31,0,0,0-2.61-4.06c-.07-.08-.15-.19-.25-.33l1.84-1a32.55,32.55,0,0,1,2.65,3.45c.12.18.27.41.46.68Z"/><path d="M818.43,288.87h4.21l-.33-.89-.46-1.08h-2.68V285h6.1l-.28-.54a8.23,8.23,0,0,0-.66-.92l2.5-.48a6.68,6.68,0,0,1,.56.92l.49,1h6.38v1.91h-2.73a3.74,3.74,0,0,1-.74,2h4.13v2H818.43V292h-2.07v6.84l1.28-.72,1.25-.81v2.45a43.91,43.91,0,0,1-5.67,3.14l-1.15.51-.41-2.63.39-.13a8.83,8.83,0,0,0,2.09-.82V292h-2.32v-2.1h2.32v-6.89h2.22v6.89h2.07Zm11.39,11.29v2.73a.79.79,0,0,0,.89.89h1.1a.8.8,0,0,0,.77-.33,6.42,6.42,0,0,0,.28-1.79,8.35,8.35,0,0,1,0-.87l2.22.77c0,1.77-.24,2.94-.7,3.51a3.08,3.08,0,0,1-2.49.86h-1.89a2.54,2.54,0,0,1-1.84-.62,3.19,3.19,0,0,1-.64-2.32v-2.83h-2.22q-.51,5-7.4,6.38l-1.23-2.22a11.33,11.33,0,0,0,4.51-1.31,4,4,0,0,0,1.85-2.85h-3.27V292h13.74v8.12ZM822,293.87v1.36h9.29v-1.36Zm0,2.94v1.51h9.29v-1.51Zm7.18-9.91h-4.93l.41,1,.35.95h3.37a3.66,3.66,0,0,0,.77-1.79A.67.67,0,0,1,829.21,286.9Z"/><polyline class="cls-9" points="303 154 314.5 165.5 303 176"/><polyline class="cls-9" points="549 154 560.5 165.5 549 176"/></svg>