<svg xmlns="http://www.w3.org/2000/svg" xmlns:xlink="http://www.w3.org/1999/xlink" width="994" height="768" viewBox="0 0 994 768"><defs><style>.cls-1{fill:#009a90;}.cls-2{fill:none;}.cls-3{isolation:isolate;}.cls-4{fill:#fff;}.cls-5{fill:#3398bc;}.cls-6{clip-path:url(#clip-path);}.cls-10,.cls-11,.cls-12,.cls-14,.cls-15,.cls-16,.cls-7{opacity:0.3;mix-blend-mode:overlay;}.cls-7{fill:url(#未命名漸層_72);}.cls-8{clip-path:url(#clip-path-2);}.cls-9{clip-path:url(#clip-path-3);}.cls-10{fill:url(#未命名漸層_3);}.cls-11{fill:url(#未命名漸層_3-2);}.cls-12{fill:url(#未命名漸層_3-3);}.cls-13{clip-path:url(#clip-path-4);}.cls-14{fill:url(#未命名漸層_3-4);}.cls-15{fill:url(#未命名漸層_3-5);}.cls-16{fill:url(#未命名漸層_3-7);}.cls-17{fill:url(#未命名漸層_416);}.cls-18{fill:#2f5559;}.cls-19{fill:url(#未命名漸層_416-2);}.cls-20{fill:#1a1a1a;}.cls-21{fill:url(#夏日綠);}.cls-22{fill:#00573f;}.cls-23{fill:url(#夏日綠-2);}.cls-24{fill:#1ddd74;}.cls-25{fill:#22283f;}.cls-26{fill:url(#未命名漸層_209);}.cls-27{fill:#ffe500;}.cls-28{fill:url(#未命名漸層_361);}.cls-29{fill:#333;}.cls-30{fill:url(#未命名漸層_209-2);}.cls-31{fill:#003d67;}.cls-32{fill:url(#未命名漸層_431);}.cls-33{fill:url(#未命名漸層_431-2);}.cls-34{fill:url(#未命名漸層_431-3);}.cls-35{fill:url(#未命名漸層_209-3);}.cls-36{fill:#0a0067;}.cls-37{fill:url(#未命名漸層_361-2);}.cls-38{fill:url(#未命名漸層_209-4);}.cls-39{fill:#00aea5;}.cls-40{fill:#009d85;}</style><clipPath id="clip-path"><polygon id="_剪裁路徑_" data-name="&lt;剪裁路徑&gt;" class="cls-1" points="333.3 579.43 314.26 579.43 314.26 592.15 314.26 635.4 333.3 635.4 333.3 627.73 361.46 627.73 361.46 617.3 333.3 617.3 333.3 592.15 372.24 592.15 372.24 579.43 333.3 579.43"/></clipPath><linearGradient id="未命名漸層_72" x1="296.63" y1="610.47" x2="378.84" y2="610.47" gradientUnits="userSpaceOnUse"><stop offset="0" stop-color="#d4ff94"/><stop offset="1" stop-color="#fff" stop-opacity="0"/></linearGradient><clipPath id="clip-path-2"><path class="cls-2" d="M122.87,535.19H92.49c-4.82,0-8.18,5.74-8,12.36,1.36,70.77-4.76,90.41-1,99.48,1-.25,28.14-4.59,33.24-39.75,0,0,1.14-19,2.52-37.5h45.66c19.69,0,35.65-15.49,35.65-34.59Z"/></clipPath><clipPath id="clip-path-3"><rect class="cls-2" x="77.9" y="516.27" width="125.6" height="139.36"/></clipPath><linearGradient id="未命名漸層_3" x1="81.93" y1="548.13" x2="128.38" y2="591.88" gradientUnits="userSpaceOnUse"><stop offset="0" stop-color="#6cc1a6"/><stop offset="1" stop-color="#006770" stop-opacity="0"/></linearGradient><linearGradient id="未命名漸層_3-2" x1="676.37" y1="385.12" x2="682.69" y2="420.3" gradientTransform="matrix(0.42, -0.72, 0.7, 0.43, -459.04, 880.89)" xlink:href="#未命名漸層_3"/><linearGradient id="未命名漸層_3-3" x1="663.32" y1="174.42" x2="669.63" y2="209.6" gradientTransform="matrix(0.51, -0.51, 0.86, 0.31, -493.2, 854.78)" xlink:href="#未命名漸層_3"/><clipPath id="clip-path-4"><circle class="cls-2" cx="151.28" cy="599.9" r="17.07" transform="translate(-133.78 50.81) rotate(-13.28)"/></clipPath><linearGradient id="未命名漸層_3-4" x1="159.67" y1="582.71" x2="143.61" y2="609.7" xlink:href="#未命名漸層_3"/><linearGradient id="未命名漸層_3-5" x1="780.22" y1="-230.31" x2="764.16" y2="-203.32" gradientTransform="matrix(0.51, 0.86, -0.86, 0.51, -430.06, 37.95)" xlink:href="#未命名漸層_3"/><linearGradient id="未命名漸層_3-7" x1="161.19" y1="548" x2="160.36" y2="539.68" xlink:href="#未命名漸層_3"/><linearGradient id="未命名漸層_416" x1="482.89" y1="289.52" x2="566.04" y2="289.52" gradientUnits="userSpaceOnUse"><stop offset="0" stop-color="#f7e873"/><stop offset="0.19" stop-color="#f2df6c"/><stop offset="0.5" stop-color="#e4c557"/><stop offset="0.88" stop-color="#ce9e38"/><stop offset="0.99" stop-color="#e8ce57"/></linearGradient><linearGradient id="未命名漸層_416-2" x1="525.86" y1="285.68" x2="564.67" y2="285.68" xlink:href="#未命名漸層_416"/><linearGradient id="夏日綠" x1="633.38" y1="289.52" x2="716.54" y2="289.52" gradientUnits="userSpaceOnUse"><stop offset="0" stop-color="#7cc490"/><stop offset="0.27" stop-color="#38b676"/><stop offset="0.5" stop-color="#00aa61"/><stop offset="0.57" stop-color="#00a75c"/><stop offset="1" stop-color="#009945"/></linearGradient><linearGradient id="夏日綠-2" x1="676.36" y1="285.68" x2="715.16" y2="285.68" xlink:href="#夏日綠"/><linearGradient id="未命名漸層_209" x1="632.94" y1="439.14" x2="727.03" y2="439.14" gradientUnits="userSpaceOnUse"><stop offset="0" stop-color="#4f40d0"/><stop offset="0.36" stop-color="#4c6de0"/><stop offset="1" stop-color="#45c5ff"/></linearGradient><linearGradient id="未命名漸層_361" x1="672.91" y1="434.8" x2="716.82" y2="434.8" gradientUnits="userSpaceOnUse"><stop offset="0" stop-color="#4f40d0"/><stop offset="0.14" stop-color="#4c64dd"/><stop offset="0.31" stop-color="#4a87e9"/><stop offset="0.48" stop-color="#48a2f3"/><stop offset="0.65" stop-color="#46b6fa"/><stop offset="0.82" stop-color="#45c1fe"/><stop offset="1" stop-color="#45c5ff"/></linearGradient><linearGradient id="未命名漸層_209-2" x1="632.94" y1="610.53" x2="720.76" y2="610.53" xlink:href="#未命名漸層_209"/><linearGradient id="未命名漸層_431" x1="780.87" y1="437.95" x2="868.7" y2="437.95" gradientUnits="userSpaceOnUse"><stop offset="0" stop-color="#69ffc2"/><stop offset="0.37" stop-color="#3bd1c8"/><stop offset="0.85" stop-color="#049ad0"/></linearGradient><linearGradient id="未命名漸層_431-2" x1="780.87" y1="611.72" x2="874.97" y2="611.72" xlink:href="#未命名漸層_431"/><linearGradient id="未命名漸層_431-3" x1="813.79" y1="607.37" x2="857.7" y2="607.37" xlink:href="#未命名漸層_431"/><linearGradient id="未命名漸層_209-3" x1="482.4" y1="439.14" x2="576.49" y2="439.14" xlink:href="#未命名漸層_209"/><linearGradient id="未命名漸層_361-2" x1="522.37" y1="434.8" x2="566.28" y2="434.8" xlink:href="#未命名漸層_361"/><linearGradient id="未命名漸層_209-4" x1="482.4" y1="610.53" x2="570.22" y2="610.53" xlink:href="#未命名漸層_209"/></defs><title>formosaas_logo_process</title><g class="cls-3"><g id="圖層_1" data-name="圖層 1"><rect class="cls-4" x="-239" y="-91" width="1604" height="2264"/><rect class="cls-5" x="95.14" y="66.81" width="47.91" height="47.91" rx="3.04" ry="3.04"/><path class="cls-5" d="M196.28,82.53a14.56,14.56,0,0,1,4.88.79,10.66,10.66,0,0,1,3.78,2.24,10,10,0,0,1,2.45,3.54,11.8,11.8,0,0,1,.88,4.68,12.07,12.07,0,0,1-.88,4.72,10.11,10.11,0,0,1-2.45,3.57,10.85,10.85,0,0,1-3.78,2.26,15.59,15.59,0,0,1-9.8,0,11.12,11.12,0,0,1-3.82-2.26,10,10,0,0,1-2.47-3.57,12.07,12.07,0,0,1-.88-4.72,11.8,11.8,0,0,1,.88-4.68,9.91,9.91,0,0,1,2.47-3.54,10.93,10.93,0,0,1,3.82-2.24A14.67,14.67,0,0,1,196.28,82.53Zm0,17.73a4.09,4.09,0,0,0,3.57-1.59A8.3,8.3,0,0,0,201,93.82,8.25,8.25,0,0,0,199.85,89a4.09,4.09,0,0,0-3.57-1.59A4.22,4.22,0,0,0,192.62,89a8.24,8.24,0,0,0-1.16,4.84,8.3,8.3,0,0,0,1.16,4.85A4.22,4.22,0,0,0,196.28,100.26Z"/><path class="cls-5" d="M213.94,105.35V83.16h3.94a3.33,3.33,0,0,1,.83.08,1.49,1.49,0,0,1,.55.27,1.05,1.05,0,0,1,.34.48,4.34,4.34,0,0,1,.21.73l.36,2.07a11,11,0,0,1,2.74-3,5.55,5.55,0,0,1,3.32-1.09,3.81,3.81,0,0,1,2.44.73l-.78,4.09a1,1,0,0,1-.34.63,1.18,1.18,0,0,1-.69.18,2.37,2.37,0,0,1-.68,0,3.89,3.89,0,0,0-1.7,0,7.54,7.54,0,0,0-3.9,3.42v13.61Z"/><path class="cls-5" d="M233.76,105.35V83.16h4.11a1.89,1.89,0,0,1,1,.27,1.53,1.53,0,0,1,.58.84l.37,1.2A11.37,11.37,0,0,1,241,84.41a7.61,7.61,0,0,1,1.3-.84,7,7,0,0,1,1.5-.55,6.91,6.91,0,0,1,1.76-.21,5.24,5.24,0,0,1,3.33,1,6.49,6.49,0,0,1,2,2.77,6.42,6.42,0,0,1,1.36-1.75A7.08,7.08,0,0,1,254,83.69a8.3,8.3,0,0,1,2-.66,9.71,9.71,0,0,1,2.07-.22,9.36,9.36,0,0,1,3.38.57A6.55,6.55,0,0,1,263.88,85a7.24,7.24,0,0,1,1.51,2.65,11.55,11.55,0,0,1,.51,3.56v14.11h-6.63V91.24q0-3.43-3-3.44a3,3,0,0,0-2.23.89,3.45,3.45,0,0,0-.89,2.55v14.11h-6.63V91.24a3.79,3.79,0,0,0-.75-2.67,3,3,0,0,0-2.21-.77,3.74,3.74,0,0,0-1.7.41,6.14,6.14,0,0,0-1.51,1.09v16Z"/><path class="cls-5" d="M283,82.76a14.52,14.52,0,0,1,4.88.78,10.81,10.81,0,0,1,3.78,2.24,10,10,0,0,1,2.46,3.54A12,12,0,0,1,295,94a12.22,12.22,0,0,1-.87,4.72,10.13,10.13,0,0,1-2.46,3.57,10.7,10.7,0,0,1-3.78,2.26,14.27,14.27,0,0,1-4.88.8,14.51,14.51,0,0,1-4.92-.8,10.92,10.92,0,0,1-3.81-2.26,9.93,9.93,0,0,1-2.48-3.57,12.22,12.22,0,0,1-.87-4.72,12,12,0,0,1,.87-4.68,9.81,9.81,0,0,1,2.48-3.54,11,11,0,0,1,3.81-2.24A14.76,14.76,0,0,1,283,82.76Zm0,17.73a4.11,4.11,0,0,0,3.58-1.6A8.36,8.36,0,0,0,287.73,94a8.33,8.33,0,0,0-1.14-4.84A4.14,4.14,0,0,0,283,87.62a4.25,4.25,0,0,0-3.66,1.58A8.24,8.24,0,0,0,278.19,94a8.28,8.28,0,0,0,1.16,4.85A4.21,4.21,0,0,0,283,100.49Z"/><path class="cls-5" d="M315.69,87.67a1.8,1.8,0,0,1-.54.58,1.5,1.5,0,0,1-.74.17,2.44,2.44,0,0,1-.94-.2l-1-.44a9.18,9.18,0,0,0-1.23-.44,5.37,5.37,0,0,0-1.56-.2,3.33,3.33,0,0,0-1.94.48,1.53,1.53,0,0,0-.67,1.33,1.31,1.31,0,0,0,.44,1,4.12,4.12,0,0,0,1.16.72,17.25,17.25,0,0,0,1.65.59c.61.18,1.24.39,1.88.62a16.46,16.46,0,0,1,1.89.8,7.35,7.35,0,0,1,1.64,1.13,5,5,0,0,1,1.17,1.64,5.57,5.57,0,0,1,.44,2.31,7.6,7.6,0,0,1-.6,3,6.37,6.37,0,0,1-1.79,2.4,8.44,8.44,0,0,1-2.93,1.56,13.21,13.21,0,0,1-4,.56,12.47,12.47,0,0,1-2.27-.22,14.08,14.08,0,0,1-2.19-.58,12.08,12.08,0,0,1-2-.86,9.05,9.05,0,0,1-1.54-1.08l1.54-2.44a2.38,2.38,0,0,1,.66-.68,1.89,1.89,0,0,1,1-.24,2.13,2.13,0,0,1,1,.25c.3.18.64.36,1,.56a8.64,8.64,0,0,0,1.25.56,5.48,5.48,0,0,0,1.81.25,4.51,4.51,0,0,0,1.31-.16,2.26,2.26,0,0,0,.85-.43,1.73,1.73,0,0,0,.47-.63,1.69,1.69,0,0,0,.15-.7,1.43,1.43,0,0,0-.45-1.09,3.79,3.79,0,0,0-1.17-.74,14.46,14.46,0,0,0-1.66-.58c-.62-.18-1.25-.38-1.89-.61a15.12,15.12,0,0,1-1.9-.82,6.65,6.65,0,0,1-1.66-1.22,5.77,5.77,0,0,1-1.17-1.81,6.67,6.67,0,0,1-.45-2.59,6.84,6.84,0,0,1,.54-2.69,6.33,6.33,0,0,1,1.64-2.23A8.12,8.12,0,0,1,305.68,83a11.78,11.78,0,0,1,3.85-.57,12.59,12.59,0,0,1,2.32.21,13.3,13.3,0,0,1,2.11.6,10.1,10.1,0,0,1,1.8.91,8.77,8.77,0,0,1,1.43,1.15Z"/><path class="cls-5" d="M394.83,87.67a1.8,1.8,0,0,1-.54.58,1.47,1.47,0,0,1-.74.17,2.44,2.44,0,0,1-.94-.2l-1-.44a9.18,9.18,0,0,0-1.23-.44,5.32,5.32,0,0,0-1.56-.2,3.33,3.33,0,0,0-1.94.48,1.53,1.53,0,0,0-.67,1.33,1.34,1.34,0,0,0,.44,1,4.12,4.12,0,0,0,1.16.72,17.25,17.25,0,0,0,1.65.59c.61.18,1.24.39,1.89.62a17.1,17.1,0,0,1,1.88.8,7.65,7.65,0,0,1,1.65,1.13A5.13,5.13,0,0,1,396,95.48a5.57,5.57,0,0,1,.44,2.31,7.6,7.6,0,0,1-.6,3,6.37,6.37,0,0,1-1.79,2.4,8.35,8.35,0,0,1-2.93,1.56,13.21,13.21,0,0,1-4,.56,12.47,12.47,0,0,1-2.27-.22,14.38,14.38,0,0,1-2.19-.58,12.08,12.08,0,0,1-2-.86,9.05,9.05,0,0,1-1.54-1.08l1.54-2.44a2.38,2.38,0,0,1,.66-.68,1.91,1.91,0,0,1,1-.24,2.11,2.11,0,0,1,1,.25c.3.18.64.36,1,.56a8.64,8.64,0,0,0,1.25.56,5.53,5.53,0,0,0,1.81.25,4.51,4.51,0,0,0,1.31-.16,2.19,2.19,0,0,0,.85-.43,1.77,1.77,0,0,0,.48-.63,1.87,1.87,0,0,0,.15-.7,1.43,1.43,0,0,0-.45-1.09,4,4,0,0,0-1.18-.74,14.46,14.46,0,0,0-1.66-.58c-.62-.18-1.25-.38-1.89-.61a15.12,15.12,0,0,1-1.9-.82,6.65,6.65,0,0,1-1.66-1.22,5.77,5.77,0,0,1-1.17-1.81,6.67,6.67,0,0,1-.45-2.59,6.84,6.84,0,0,1,.54-2.69,6.33,6.33,0,0,1,1.64-2.23A8.12,8.12,0,0,1,384.82,83a11.78,11.78,0,0,1,3.85-.57,12.59,12.59,0,0,1,2.32.21,13.3,13.3,0,0,1,2.11.6,10.1,10.1,0,0,1,1.8.91,8.77,8.77,0,0,1,1.43,1.15Z"/><path class="cls-5" d="M333.65,82.47a12.94,12.94,0,0,1,4.6.79,10.15,10.15,0,0,1,3.57,2.27,10.28,10.28,0,0,1,2.31,3.59,12.88,12.88,0,0,1,.82,4.74,13.17,13.17,0,0,1-.82,4.78,10.27,10.27,0,0,1-2.31,3.61,9.92,9.92,0,0,1-3.57,2.29,12.51,12.51,0,0,1-4.6.81,12.71,12.71,0,0,1-4.63-.81,10.08,10.08,0,0,1-5.93-5.9,13.17,13.17,0,0,1-.82-4.78,12.88,12.88,0,0,1,.82-4.74,10.07,10.07,0,0,1,2.34-3.59A10.32,10.32,0,0,1,329,83.26,13.15,13.15,0,0,1,333.65,82.47Zm0,18A3.75,3.75,0,0,0,337,98.81a8.93,8.93,0,0,0,1.09-4.91A8.87,8.87,0,0,0,337,89a3.77,3.77,0,0,0-3.37-1.61A3.87,3.87,0,0,0,330.21,89a8.78,8.78,0,0,0-1.09,4.9,8.84,8.84,0,0,0,1.09,4.91A3.84,3.84,0,0,0,333.65,100.42Z"/><path class="cls-5" d="M345.76,83.57c-.26,1-1.74,9.34.4,20.68.24,1.22-3.84,1.38-4.19.68s-2.7-15.66,0-20.73c.36-.69.6-.77,1.4-.91C344.69,83,345.88,83.11,345.76,83.57Z"/><path class="cls-5" d="M362.1,82.47a12.94,12.94,0,0,1,4.6.79,10.15,10.15,0,0,1,3.57,2.27,10.28,10.28,0,0,1,2.31,3.59,12.88,12.88,0,0,1,.82,4.74,13.17,13.17,0,0,1-.82,4.78,10.27,10.27,0,0,1-2.31,3.61,9.92,9.92,0,0,1-3.57,2.29,12.51,12.51,0,0,1-4.6.81,12.71,12.71,0,0,1-4.63-.81,10.08,10.08,0,0,1-5.93-5.9,13.17,13.17,0,0,1-.82-4.78,12.88,12.88,0,0,1,.82-4.74,10.07,10.07,0,0,1,2.34-3.59,10.32,10.32,0,0,1,3.59-2.27A13.15,13.15,0,0,1,362.1,82.47Zm0,18a3.75,3.75,0,0,0,3.37-1.61,8.93,8.93,0,0,0,1.09-4.91,8.87,8.87,0,0,0-1.09-4.9,3.77,3.77,0,0,0-3.37-1.61A3.87,3.87,0,0,0,358.66,89a8.78,8.78,0,0,0-1.09,4.9,8.84,8.84,0,0,0,1.09,4.91A3.84,3.84,0,0,0,362.1,100.42Z"/><path class="cls-5" d="M374.21,83.57c-.26,1-1.74,9.34.4,20.68.24,1.22-3.84,1.38-4.19.68s-2.7-15.66,0-20.73c.36-.69.6-.77,1.4-.91C373.14,83,374.33,83.11,374.21,83.57Z"/><path class="cls-5" d="M184.37,74.08l-1,3a2.76,2.76,0,0,1-2.6,1.86H169.56v8.13h8.33a.7.7,0,0,1,.66.94l-.57,1.6a4.88,4.88,0,0,1-4.58,3.22h-3.84v12.5H163V74a.76.76,0,0,1,.77-.76h20A.64.64,0,0,1,184.37,74.08Z"/><path class="cls-4" d="M103.25,117s2.83-10.5,3.4-16.07c.19-1.59.37-10.66,1.25-11,1-.37,20.27-15.1,20.53-16.24,1-1.68-.32,3.68-.92,5.5-1.19,3.58-13,11.29-14.44,13.5-1.1,1.66-3,20.71-7.62,25s-2.2,2.85-2.2,2.85Z"/><path class="cls-4" d="M110.83,100.11a80.35,80.35,0,0,0,9.31-6.89c3-2.67,1.07,1.42-.51,4.41-.5,1-5.94,6-6.93,6.74-3.35,2.58-7.41,6.1-5.23,1.42C110.05,100.24,110.83,100.11,110.83,100.11Z"/><rect class="cls-1" x="118.38" y="306.11" width="19.91" height="19.91"/><rect class="cls-1" x="83.45" y="274.03" width="27.73" height="73.12"/><path class="cls-1" d="M91.67,397.36H164.4a0,0,0,0,1,0,0v0a20.17,20.17,0,0,1-20.17,20.17H91.67a0,0,0,0,1,0,0V397.36a0,0,0,0,1,0,0Z"/><rect class="cls-1" x="120.69" y="429.44" width="19.91" height="19.91" rx="9.95" ry="9.95"/><path class="cls-1" d="M83.08,397.36h27.73a0,0,0,0,1,0,0v45.86a27.26,27.26,0,0,1-27.26,27.26h-.47a0,0,0,0,1,0,0V397.36A0,0,0,0,1,83.08,397.36Z"/><polygon class="cls-1" points="153.5 294.2 118.38 294.2 118.38 274.03 162.81 274.03 153.5 294.2"/><path class="cls-1" d="M321.16,304.74l-.48,1.44a1.31,1.31,0,0,1-1.24.89h-5.33v3.87h4a.33.33,0,0,1,.31.45l-.27.76a2.31,2.31,0,0,1-2.18,1.53h-1.83v5.95H311V304.7a.36.36,0,0,1,.36-.36h9.54A.3.3,0,0,1,321.16,304.74Z"/><rect class="cls-1" x="232.21" y="267.24" width="130.89" height="130.89"/><path class="cls-4" d="M319.51,315.53H259.6l8.23-27.81h80.35C348.18,303.08,335.34,315.53,319.51,315.53Z"/><rect class="cls-4" x="293.47" y="331.96" width="27.45" height="27.45" rx="13.73" ry="13.73"/><path class="cls-4" d="M254,377.66h0s6.06-13.2.83-80c-.42-5.31,2.59-9.94,6.47-9.94h24.43c-1.6,1.34-5,58-5,58C276.52,375,253.14,377.67,254,377.66Z"/><path class="cls-1" d="M254,415.92a8.32,8.32,0,0,1,2.76.44,6.18,6.18,0,0,1,2.14,1.27,5.62,5.62,0,0,1,1.39,2,6.73,6.73,0,0,1,.5,2.65,6.9,6.9,0,0,1-.5,2.67,5.66,5.66,0,0,1-1.39,2,6,6,0,0,1-2.14,1.28,8.07,8.07,0,0,1-2.76.45,8.25,8.25,0,0,1-2.79-.45A6.32,6.32,0,0,1,249,427a5.68,5.68,0,0,1-1.4-2,6.9,6.9,0,0,1-.49-2.67,6.73,6.73,0,0,1,.49-2.65,5.64,5.64,0,0,1,1.4-2,6.46,6.46,0,0,1,2.16-1.27A8.5,8.5,0,0,1,254,415.92Zm0,10a2.32,2.32,0,0,0,2-.9,4.69,4.69,0,0,0,.65-2.75,4.63,4.63,0,0,0-.65-2.74,2.32,2.32,0,0,0-2-.9,2.37,2.37,0,0,0-2.07.9,4.63,4.63,0,0,0-.66,2.74,4.69,4.69,0,0,0,.66,2.75A2.37,2.37,0,0,0,254,426Z"/><path class="cls-1" d="M264,428.84V416.27h2.23a2,2,0,0,1,.47.05.75.75,0,0,1,.31.15.65.65,0,0,1,.2.28,2.64,2.64,0,0,1,.11.41l.21,1.17a6,6,0,0,1,1.55-1.68A3.16,3.16,0,0,1,271,416a2.2,2.2,0,0,1,1.38.41l-.44,2.32a.53.53,0,0,1-.2.36.61.61,0,0,1-.38.1,1.34,1.34,0,0,1-.39,0,2.07,2.07,0,0,0-1,0,4.2,4.2,0,0,0-2.21,1.93v7.71Z"/><path class="cls-1" d="M275.21,428.84V416.27h2.33a1,1,0,0,1,.58.16.88.88,0,0,1,.34.47l.2.68a6.17,6.17,0,0,1,.66-.6,4,4,0,0,1,.73-.47,4.53,4.53,0,0,1,.85-.32,4.44,4.44,0,0,1,1-.11,2.88,2.88,0,0,1,1.88.59,3.62,3.62,0,0,1,1.14,1.57,3.65,3.65,0,0,1,.77-1,4.22,4.22,0,0,1,1-.66,4.7,4.7,0,0,1,1.11-.38,5.81,5.81,0,0,1,1.17-.12,5.35,5.35,0,0,1,1.91.32,3.51,3.51,0,0,1,1.4.93,4.06,4.06,0,0,1,.86,1.51,6.54,6.54,0,0,1,.29,2v8h-3.76v-8c0-1.3-.55-2-1.67-2a1.75,1.75,0,0,0-1.27.5,2,2,0,0,0-.5,1.45v8h-3.75v-8a2.14,2.14,0,0,0-.43-1.51,1.67,1.67,0,0,0-1.25-.44,2.12,2.12,0,0,0-1,.23,3.55,3.55,0,0,0-.85.62v9.09Z"/><path class="cls-1" d="M303.1,416.05a8.32,8.32,0,0,1,2.76.44,6.18,6.18,0,0,1,2.14,1.27,5.67,5.67,0,0,1,1.39,2,6.8,6.8,0,0,1,.5,2.65,7,7,0,0,1-.5,2.68,5.75,5.75,0,0,1-1.39,2,6.2,6.2,0,0,1-2.14,1.28,8.07,8.07,0,0,1-2.76.45,8.25,8.25,0,0,1-2.79-.45,6.48,6.48,0,0,1-2.16-1.28,5.77,5.77,0,0,1-1.4-2,7,7,0,0,1-.49-2.68,6.8,6.8,0,0,1,.49-2.65,5.69,5.69,0,0,1,1.4-2,6.46,6.46,0,0,1,2.16-1.27A8.5,8.5,0,0,1,303.1,416.05Zm0,10a2.33,2.33,0,0,0,2-.91,6.1,6.1,0,0,0,0-5.48,2.32,2.32,0,0,0-2-.9,2.37,2.37,0,0,0-2.07.9,6,6,0,0,0,0,5.48A2.38,2.38,0,0,0,303.1,426.09Z"/><path class="cls-1" d="M321.6,418.83a1,1,0,0,1-.31.33.83.83,0,0,1-.41.09,1.31,1.31,0,0,1-.54-.11l-.57-.25a7,7,0,0,0-.7-.25,3,3,0,0,0-.88-.11,1.88,1.88,0,0,0-1.1.27.88.88,0,0,0-.38.76.76.76,0,0,0,.25.58,2.06,2.06,0,0,0,.66.4,8.85,8.85,0,0,0,.93.34c.35.1.7.22,1.07.35a10.86,10.86,0,0,1,1.06.45,4.45,4.45,0,0,1,.94.64,3.13,3.13,0,0,1,.66.93,3.26,3.26,0,0,1,.24,1.31,4.23,4.23,0,0,1-.34,1.72,3.54,3.54,0,0,1-1,1.36,4.77,4.77,0,0,1-1.66.88,7.45,7.45,0,0,1-2.27.32,6.85,6.85,0,0,1-1.28-.12,8.5,8.5,0,0,1-1.25-.33,6.91,6.91,0,0,1-1.1-.49,5.65,5.65,0,0,1-.88-.61l.88-1.38a1.26,1.26,0,0,1,.37-.39,1.09,1.09,0,0,1,.57-.14,1.18,1.18,0,0,1,.59.15l.56.31a4.3,4.3,0,0,0,.71.32,3,3,0,0,0,1,.14,2.58,2.58,0,0,0,.74-.09,1.32,1.32,0,0,0,.49-.24,1.14,1.14,0,0,0,.27-.36,1.06,1.06,0,0,0,.08-.4.79.79,0,0,0-.25-.61,2.19,2.19,0,0,0-.67-.42,7.86,7.86,0,0,0-.94-.33c-.35-.1-.71-.21-1.07-.34A8.47,8.47,0,0,1,315,423a3.41,3.41,0,0,1-.94-.69,3.17,3.17,0,0,1-.67-1,3.83,3.83,0,0,1-.25-1.47,3.92,3.92,0,0,1,.3-1.52,3.69,3.69,0,0,1,.93-1.27,4.53,4.53,0,0,1,1.55-.86,6.53,6.53,0,0,1,2.18-.33,7.12,7.12,0,0,1,1.32.13,6.31,6.31,0,0,1,1.19.34,5.4,5.4,0,0,1,1,.51,4.44,4.44,0,0,1,.81.65Z"/><path class="cls-1" d="M366.41,418.83a1,1,0,0,1-.31.33.8.8,0,0,1-.41.09,1.31,1.31,0,0,1-.54-.11l-.57-.25a7,7,0,0,0-.7-.25,3,3,0,0,0-.88-.11,1.88,1.88,0,0,0-1.1.27.88.88,0,0,0-.38.76.76.76,0,0,0,.25.58,2.06,2.06,0,0,0,.66.4,8.85,8.85,0,0,0,.93.34c.35.1.7.22,1.07.35a9.91,9.91,0,0,1,1.06.45,4.45,4.45,0,0,1,.94.64,3.13,3.13,0,0,1,.66.93,3.26,3.26,0,0,1,.24,1.31,4.39,4.39,0,0,1-.33,1.72,3.67,3.67,0,0,1-1,1.36,4.68,4.68,0,0,1-1.66.88,7.4,7.4,0,0,1-2.27.32,6.93,6.93,0,0,1-1.28-.12,8.37,8.37,0,0,1-1.24-.33,7,7,0,0,1-1.11-.49,5.65,5.65,0,0,1-.88-.61l.88-1.38a1.26,1.26,0,0,1,.37-.39,1.09,1.09,0,0,1,.57-.14,1.15,1.15,0,0,1,.59.15l.56.31a4.71,4.71,0,0,0,.71.32,3,3,0,0,0,1,.14,2.55,2.55,0,0,0,.73-.09,1.32,1.32,0,0,0,.49-.24,1.14,1.14,0,0,0,.27-.36,1.06,1.06,0,0,0,.08-.4.79.79,0,0,0-.25-.61,2.19,2.19,0,0,0-.67-.42,7.28,7.28,0,0,0-.94-.33c-.35-.1-.71-.21-1.07-.34a9.15,9.15,0,0,1-1.07-.47,3.57,3.57,0,0,1-.94-.69,3.17,3.17,0,0,1-.67-1,3.83,3.83,0,0,1-.25-1.47,3.76,3.76,0,0,1,.31-1.52,3.54,3.54,0,0,1,.92-1.27,4.53,4.53,0,0,1,1.55-.86,6.57,6.57,0,0,1,2.18-.33,7.12,7.12,0,0,1,1.32.13,6.31,6.31,0,0,1,1.19.34,5.4,5.4,0,0,1,1,.51,4.44,4.44,0,0,1,.81.65Z"/><path class="cls-1" d="M331.77,415.88a7.26,7.26,0,0,1,2.61.45,5.83,5.83,0,0,1,2,1.29,5.67,5.67,0,0,1,1.3,2,7.31,7.31,0,0,1,.47,2.68,7.48,7.48,0,0,1-.47,2.71,5.56,5.56,0,0,1-3.32,3.34,7.66,7.66,0,0,1-5.23,0,5.82,5.82,0,0,1-2-1.29,5.75,5.75,0,0,1-1.32-2,7.48,7.48,0,0,1-.46-2.71,7.31,7.31,0,0,1,.46-2.68,5.58,5.58,0,0,1,1.32-2,5.82,5.82,0,0,1,2-1.29A7.31,7.31,0,0,1,331.77,415.88Zm0,10.17a2.13,2.13,0,0,0,1.91-.91,6.64,6.64,0,0,0,0-5.56,2.13,2.13,0,0,0-1.91-.91,2.18,2.18,0,0,0-1.95.91,6.54,6.54,0,0,0,0,5.56A2.18,2.18,0,0,0,331.77,426.05Z"/><path class="cls-1" d="M338.63,416.51a31.57,31.57,0,0,0,.23,11.71c.13.69-2.18.78-2.38.38s-1.53-8.86,0-11.74c.2-.38.34-.43.79-.51C338,416.2,338.7,416.25,338.63,416.51Z"/><path class="cls-1" d="M347.88,415.88a7.3,7.3,0,0,1,2.61.45,5.69,5.69,0,0,1,2,1.29,5.56,5.56,0,0,1,1.31,2,7.31,7.31,0,0,1,.47,2.68,7.48,7.48,0,0,1-.47,2.71,5.63,5.63,0,0,1-3.32,3.34,7.66,7.66,0,0,1-5.23,0,5.82,5.82,0,0,1-2-1.29,5.75,5.75,0,0,1-1.32-2,7.48,7.48,0,0,1-.46-2.71,7.31,7.31,0,0,1,.46-2.68,5.58,5.58,0,0,1,1.32-2,5.82,5.82,0,0,1,2-1.29A7.31,7.31,0,0,1,347.88,415.88Zm0,10.17a2.13,2.13,0,0,0,1.91-.91,6.64,6.64,0,0,0,0-5.56,2.13,2.13,0,0,0-1.91-.91,2.18,2.18,0,0,0-1.95.91,6.54,6.54,0,0,0,0,5.56A2.18,2.18,0,0,0,347.88,426.05Z"/><path class="cls-1" d="M354.74,416.51a31.69,31.69,0,0,0,.22,11.71c.14.69-2.17.78-2.37.38s-1.53-8.86,0-11.74c.2-.38.34-.43.79-.51C354.13,416.2,354.81,416.25,354.74,416.51Z"/><path class="cls-1" d="M247.24,411.13l-.57,1.71a1.57,1.57,0,0,1-1.47,1.06h-6.34v4.6h4.72a.4.4,0,0,1,.37.53l-.32.91a2.78,2.78,0,0,1-2.6,1.82h-2.17v7.08h-3.74V411.08a.44.44,0,0,1,.44-.43H246.9A.36.36,0,0,1,247.24,411.13Z"/><rect class="cls-1" x="231.9" y="502.73" width="57.97" height="14.51"/><rect class="cls-1" x="231.9" y="502.73" width="12.2" height="55.97"/><rect class="cls-1" x="256.29" y="527.6" width="33.58" height="10.43"/><rect class="cls-1" x="268.49" y="535.45" width="21.39" height="23.25"/><rect class="cls-1" x="256.29" y="548.33" width="33.58" height="10.36"/><rect class="cls-1" x="314.26" y="502.73" width="57.97" height="12.72"/><rect class="cls-1" x="314.26" y="502.73" width="19.04" height="55.97"/><rect class="cls-1" x="343.25" y="523.99" width="28.99" height="9.29"/><rect class="cls-1" x="326.46" y="540.6" width="35" height="10.44"/><polygon id="_剪裁路徑_2" data-name="&lt;剪裁路徑&gt;" class="cls-1" points="333.3 579.43 314.26 579.43 314.26 592.15 314.26 635.4 333.3 635.4 333.3 627.73 361.46 627.73 361.46 617.3 333.3 617.3 333.3 592.15 372.24 592.15 372.24 579.43 333.3 579.43"/><g class="cls-6"><rect class="cls-7" x="296.63" y="569.37" width="82.21" height="82.21"/></g><rect class="cls-1" x="343.25" y="600.69" width="28.99" height="9.29"/><path class="cls-1" d="M184.92,154.84h-9.63v3.89h8.92v4.05h-8.92v8.94h-5.37V150.79h15Z"/><path class="cls-1" d="M213.93,161.26a10.86,10.86,0,0,1-2.87,8,12.11,12.11,0,0,1-15.84,0,12.49,12.49,0,0,1,0-15.93,12.16,12.16,0,0,1,15.83,0A10.91,10.91,0,0,1,213.93,161.26Zm-7.15,5.3a6.33,6.33,0,0,0,1.16-2.25,10.75,10.75,0,0,0,.38-3.06,10.35,10.35,0,0,0-.43-3.21,6.13,6.13,0,0,0-1.14-2.13,4.31,4.31,0,0,0-1.65-1.23,5.25,5.25,0,0,0-1.95-.38,5.18,5.18,0,0,0-1.93.37,4.51,4.51,0,0,0-1.67,1.21,5.82,5.82,0,0,0-1.14,2.17,10.37,10.37,0,0,0-.45,3.21,10.56,10.56,0,0,0,.43,3.19,6.36,6.36,0,0,0,1.13,2.14,4.34,4.34,0,0,0,1.65,1.22,5.1,5.1,0,0,0,4,0A4.42,4.42,0,0,0,206.78,166.56Z"/><path class="cls-1" d="M241.5,171.72h-6.59l-5.7-7.68h-2.5v7.68h-5.37V150.79h9.06a20.93,20.93,0,0,1,3.19.21,7,7,0,0,1,2.5.91,5.56,5.56,0,0,1,1.88,1.82,5.27,5.27,0,0,1,.69,2.81,6.25,6.25,0,0,1-1.07,3.78,8.08,8.08,0,0,1-3.08,2.43Zm-8.42-14.52a2.7,2.7,0,0,0-.32-1.35,2.26,2.26,0,0,0-1.11-.89,4,4,0,0,0-1.28-.27c-.49,0-1.06-.05-1.7-.05h-2v5.64h1.66a14.67,14.67,0,0,0,2.17-.13,3,3,0,0,0,1.46-.58,2.81,2.81,0,0,0,.82-1A3.26,3.26,0,0,0,233.08,157.2Z"/><path class="cls-1" d="M268.28,171.72h-5.37v-14L259,166.8H255.3l-3.88-9.09v14h-5.08V150.79h6.26l4.71,10.5,4.7-10.5h6.27Z"/><path class="cls-1" d="M297.27,161.26a10.91,10.91,0,0,1-2.87,8,12.11,12.11,0,0,1-15.84,0,12.49,12.49,0,0,1,0-15.93,12.16,12.16,0,0,1,15.83,0A10.91,10.91,0,0,1,297.27,161.26Zm-7.16,5.3a6.19,6.19,0,0,0,1.17-2.25,11.12,11.12,0,0,0,.38-3.06,10.33,10.33,0,0,0-.44-3.21,6.13,6.13,0,0,0-1.14-2.13,4.16,4.16,0,0,0-1.65-1.23,5.16,5.16,0,0,0-1.94-.38,5.23,5.23,0,0,0-1.94.37,4.48,4.48,0,0,0-1.66,1.21,6,6,0,0,0-1.15,2.17,10.69,10.69,0,0,0-.44,3.21,10.26,10.26,0,0,0,.43,3.19,6.19,6.19,0,0,0,1.13,2.14,4.38,4.38,0,0,0,1.64,1.22,5.13,5.13,0,0,0,4,0A4.39,4.39,0,0,0,290.11,166.56Z"/><path class="cls-1" d="M322.26,165.14a6,6,0,0,1-2.62,5,11.77,11.77,0,0,1-7.12,1.93,19.59,19.59,0,0,1-4.54-.46,22.89,22.89,0,0,1-3.62-1.16v-5H305a12.46,12.46,0,0,0,3.75,2.06,12.09,12.09,0,0,0,4,.71,11.86,11.86,0,0,0,1.3-.08,5.5,5.5,0,0,0,1.31-.28,3.23,3.23,0,0,0,1-.63,1.48,1.48,0,0,0,.4-1.13,1.52,1.52,0,0,0-.58-1.19,4.13,4.13,0,0,0-1.71-.76c-.78-.19-1.62-.37-2.49-.53a17.47,17.47,0,0,1-2.47-.63,7.71,7.71,0,0,1-3.8-2.32,5.74,5.74,0,0,1-1.16-3.65,5.6,5.6,0,0,1,2.62-4.77,11.47,11.47,0,0,1,6.74-1.85,20.77,20.77,0,0,1,4.09.4,19,19,0,0,1,3.49,1v4.82h-.58a11,11,0,0,0-3.1-1.7,10.75,10.75,0,0,0-3.74-.68,10.2,10.2,0,0,0-1.35.09,5.17,5.17,0,0,0-1.28.35,2.35,2.35,0,0,0-.94.64,1.36,1.36,0,0,0-.4,1,1.47,1.47,0,0,0,.63,1.28,7.25,7.25,0,0,0,2.39.8l2.22.47a20.76,20.76,0,0,1,2.28.62,7.57,7.57,0,0,1,3.55,2.14A5.23,5.23,0,0,1,322.26,165.14Z"/><path class="cls-1" d="M347.77,171.72h-5.58l-1.45-4.23H333l-1.46,4.23h-5.44l7.73-20.93H340Zm-8.33-8.07-2.58-7.5-2.57,7.5Z"/><path class="cls-1" d="M372.59,171.72H367l-1.46-4.23h-7.75l-1.45,4.23h-5.44l7.73-20.93h6.21Zm-8.33-8.07-2.57-7.5-2.58,7.5Z"/><path class="cls-1" d="M394.83,165.14a6,6,0,0,1-2.62,5,11.75,11.75,0,0,1-7.12,1.93,19.59,19.59,0,0,1-4.54-.46,23.23,23.23,0,0,1-3.62-1.16v-5h.59a12.46,12.46,0,0,0,3.75,2.06,12.1,12.1,0,0,0,4,.71,11.7,11.7,0,0,0,1.29-.08,5.5,5.5,0,0,0,1.31-.28,3.4,3.4,0,0,0,1-.63,1.62,1.62,0,0,0-.19-2.32,4.14,4.14,0,0,0-1.7-.76c-.79-.19-1.62-.37-2.5-.53A17.47,17.47,0,0,1,382,163a7.71,7.71,0,0,1-3.8-2.32,5.74,5.74,0,0,1-1.16-3.65,5.6,5.6,0,0,1,2.62-4.77,11.47,11.47,0,0,1,6.74-1.85,20.77,20.77,0,0,1,4.09.4,18.73,18.73,0,0,1,3.49,1v4.82h-.58a11,11,0,0,0-3.1-1.7,10.75,10.75,0,0,0-3.74-.68,10.2,10.2,0,0,0-1.35.09,5.17,5.17,0,0,0-1.28.35,2.35,2.35,0,0,0-.94.64,1.36,1.36,0,0,0-.4,1,1.46,1.46,0,0,0,.64,1.28,7.07,7.07,0,0,0,2.39.8l2.21.47a20.76,20.76,0,0,1,2.28.62,7.57,7.57,0,0,1,3.55,2.14A5.23,5.23,0,0,1,394.83,165.14Z"/><rect class="cls-1" x="230.37" y="579.43" width="57.97" height="14.51"/><polygon class="cls-1" points="236.23 635.4 235 635.4 238.5 579.43 255.12 579.43 236.23 635.4"/><polygon class="cls-1" points="288.34 614.73 255.1 614.73 258.62 604.31 288.34 604.31 288.34 614.73"/><rect class="cls-1" x="266.95" y="612.15" width="21.39" height="23.25"/><polygon class="cls-1" points="281.83 635.4 248.12 635.4 251.62 625.03 281.83 625.03 281.83 635.4"/><polyline class="cls-1" points="266.95 614.59 263.4 625.03 266.95 625.03 266.95 614.73"/><polygon class="cls-1" points="230.37 579.43 241.62 579.43 235.99 635.4 230.37 635.4 230.37 579.43"/><rect class="cls-1" x="92.72" y="134.48" width="47.61" height="11.92"/><rect class="cls-1" x="92.72" y="134.48" width="12.48" height="45.97"/><rect class="cls-1" x="115.21" y="154.91" width="25.12" height="8.56"/><rect class="cls-1" x="125.23" y="161.35" width="15.1" height="19.09"/><rect class="cls-1" x="115.21" y="171.93" width="25.12" height="8.51"/><g class="cls-8"><g class="cls-9"><rect class="cls-1" x="68" y="498.56" width="147.92" height="177.69"/><polygon class="cls-10" points="37.42 655.07 -5.86 591.6 170.5 482.7 213.79 546.17 37.42 655.07"/><rect class="cls-11" x="96.71" y="488.7" width="83.87" height="174.11" transform="translate(705.28 403.58) rotate(86.64)"/></g><rect class="cls-12" x="1.98" y="518.26" width="103.07" height="123.85" transform="translate(633.7 526.66) rotate(90)"/></g><circle class="cls-1" cx="151.28" cy="599.9" r="17.07" transform="translate(-133.78 50.81) rotate(-13.28)"/><g class="cls-13"><path class="cls-14" d="M163.54,603.65a15.9,15.9,0,0,1-31.79,0c0-8.78,8.93-23.39,17.71-23.39S163.54,594.87,163.54,603.65Z"/></g><g class="cls-13"><path class="cls-15" d="M149.82,605.74a15.9,15.9,0,1,1-16.21-27.35c7.55-4.48,24.68-4.24,29.15,3.31S157.37,601.26,149.82,605.74Z"/><path class="cls-14" d="M163.54,603.65a15.9,15.9,0,0,1-31.79,0c0-8.78,8.93-23.39,17.71-23.39S163.54,594.87,163.54,603.65Z"/></g><path class="cls-16" d="M121.6,535.19H201a0,0,0,0,1,0,0v22.15a5.58,5.58,0,0,1-5.58,5.58H121.6a0,0,0,0,1,0,0V535.19A0,0,0,0,1,121.6,535.19Z"/><polygon class="cls-17" points="566.04 272.4 566.04 255.33 560.5 251 513 251 487.06 251 487.06 268.51 487.06 324.45 482.89 325.93 487.06 328.04 513 328.04 513 317.49 551.36 317.49 551.36 304.37 546.08 301.7 513 301.69 513 272.4 566.04 272.4"/><polygon id="_路徑_" data-name="&lt;路徑&gt;" class="cls-18" points="482.89 251 482.89 268.03 482.89 325.93 508.38 325.93 508.38 315.67 546.08 315.67 546.08 301.7 508.38 301.7 508.38 268.03 560.5 268.03 560.5 251 482.89 251"/><rect class="cls-19" x="525.86" y="279.46" width="38.81" height="12.43"/><path class="cls-20" d="M486.26,344.87H482v1.72H486v1.79H482v3.94h-2.37v-9.23h6.61Z"/><path class="cls-20" d="M498.6,347.71a4.8,4.8,0,0,1-1.26,3.5,5.35,5.35,0,0,1-7,0,5.49,5.49,0,0,1,0-7,5.33,5.33,0,0,1,7,0A4.78,4.78,0,0,1,498.6,347.71ZM495.45,350a2.74,2.74,0,0,0,.51-1,4.87,4.87,0,0,0,.17-1.35,4.76,4.76,0,0,0-.19-1.41,2.75,2.75,0,0,0-.51-1,2,2,0,0,0-.73-.54,2.36,2.36,0,0,0-1.71,0,2,2,0,0,0-.73.53,2.55,2.55,0,0,0-.51,1,4.69,4.69,0,0,0-.19,1.42,4.43,4.43,0,0,0,.19,1.4,2.67,2.67,0,0,0,.5.95,1.9,1.9,0,0,0,.72.54,2.38,2.38,0,0,0,.88.17,2.19,2.19,0,0,0,.87-.18A1.93,1.93,0,0,0,495.45,350Z"/><path class="cls-20" d="M510.31,352.32H507.4l-2.51-3.39h-1.1v3.39h-2.37v-9.23h4a9.44,9.44,0,0,1,1.41.09,3.22,3.22,0,0,1,1.11.4,2.44,2.44,0,0,1,.82.81,2.22,2.22,0,0,1,.31,1.23,2.8,2.8,0,0,1-.47,1.67,3.55,3.55,0,0,1-1.36,1.07Zm-3.71-6.41a1.2,1.2,0,0,0-.14-.59.93.93,0,0,0-.49-.39,1.6,1.6,0,0,0-.57-.12c-.21,0-.46,0-.75,0h-.86v2.48h.73a8.44,8.44,0,0,0,1,0,1.42,1.42,0,0,0,.64-.26,1.16,1.16,0,0,0,.36-.42A1.41,1.41,0,0,0,506.6,345.91Z"/><path class="cls-20" d="M521.82,352.32h-2.37v-6.18l-1.71,4H516.1l-1.72-4v6.18h-2.24v-9.23h2.77l2.07,4.63,2.07-4.63h2.77Z"/><path class="cls-20" d="M534.16,347.71a4.8,4.8,0,0,1-1.27,3.5,5.35,5.35,0,0,1-7,0,5.52,5.52,0,0,1,0-7,5.35,5.35,0,0,1,7,0A4.82,4.82,0,0,1,534.16,347.71ZM531,350a2.92,2.92,0,0,0,.52-1,4.9,4.9,0,0,0,.16-1.35,4.45,4.45,0,0,0-.19-1.41,2.93,2.93,0,0,0-.5-1,2.1,2.1,0,0,0-.73-.54,2.3,2.3,0,0,0-.86-.16,2.18,2.18,0,0,0-.85.16,2,2,0,0,0-.74.53,2.7,2.7,0,0,0-.5,1,4.68,4.68,0,0,0-.2,1.42,4.74,4.74,0,0,0,.19,1.4,2.84,2.84,0,0,0,.5.95,2,2,0,0,0,.73.54,2.29,2.29,0,0,0,.87.17,2.12,2.12,0,0,0,.87-.18A1.93,1.93,0,0,0,531,350Z"/><path class="cls-20" d="M544.87,349.42a2.62,2.62,0,0,1-1.16,2.21,5.18,5.18,0,0,1-3.14.86,8.47,8.47,0,0,1-2-.21,9.25,9.25,0,0,1-1.59-.51v-2.21h.26a5.76,5.76,0,0,0,1.65.91,5.36,5.36,0,0,0,1.76.31,4.67,4.67,0,0,0,.57,0,2,2,0,0,0,.57-.12,1.24,1.24,0,0,0,.45-.28.64.64,0,0,0,.18-.49.68.68,0,0,0-.26-.53,1.75,1.75,0,0,0-.75-.34c-.35-.08-.71-.16-1.1-.23a6.94,6.94,0,0,1-1.09-.28,3.4,3.4,0,0,1-1.68-1,2.61,2.61,0,0,1,.65-3.72,5.06,5.06,0,0,1,3-.81,9,9,0,0,1,1.8.18,7.49,7.49,0,0,1,1.54.44v2.13h-.25a4.82,4.82,0,0,0-1.37-.75,4.72,4.72,0,0,0-1.65-.3,3.81,3.81,0,0,0-.59,0,2.65,2.65,0,0,0-.57.15,1.19,1.19,0,0,0-.42.28.65.65,0,0,0-.17.43.63.63,0,0,0,.28.56,3.24,3.24,0,0,0,1,.36l1,.21a8.08,8.08,0,0,1,1,.27,3.35,3.35,0,0,1,1.56.94A2.33,2.33,0,0,1,544.87,349.42Z"/><path class="cls-20" d="M556.26,352.32H553.8l-.64-1.87h-3.42l-.64,1.87h-2.4l3.41-9.23h2.74Zm-3.68-3.56-1.13-3.31-1.14,3.31Z"/><path class="cls-20" d="M567.65,352.32h-2.46l-.65-1.87h-3.41l-.65,1.87h-2.39l3.41-9.23h2.74ZM564,348.76l-1.13-3.31-1.14,3.31Z"/><path class="cls-20" d="M577.37,349.42a2.62,2.62,0,0,1-1.16,2.21,5.18,5.18,0,0,1-3.14.86,8.47,8.47,0,0,1-2-.21,9.66,9.66,0,0,1-1.6-.51v-2.21h.26a6,6,0,0,0,1.66.91,5.35,5.35,0,0,0,1.75.31,4.43,4.43,0,0,0,.57,0,2,2,0,0,0,.58-.12,1.44,1.44,0,0,0,.45-.28.64.64,0,0,0,.18-.49.68.68,0,0,0-.26-.53,1.75,1.75,0,0,0-.75-.34l-1.1-.23a6.94,6.94,0,0,1-1.09-.28,3.4,3.4,0,0,1-1.68-1,2.52,2.52,0,0,1-.51-1.61,2.47,2.47,0,0,1,1.16-2.11,5.06,5.06,0,0,1,3-.81,9,9,0,0,1,1.8.18,7.68,7.68,0,0,1,1.54.44v2.13h-.25a5,5,0,0,0-1.37-.75,4.72,4.72,0,0,0-1.65-.3,3.81,3.81,0,0,0-.59,0,2.65,2.65,0,0,0-.57.15,1.19,1.19,0,0,0-.42.28.65.65,0,0,0-.17.43.63.63,0,0,0,.28.56,3.15,3.15,0,0,0,1,.36l1,.21a8.08,8.08,0,0,1,1,.27,3.46,3.46,0,0,1,1.56.94A2.33,2.33,0,0,1,577.37,349.42Z"/><polygon class="cls-21" points="716.54 272.4 716.54 255.33 711 251 663.49 251 637.55 251 637.55 268.51 637.55 324.45 633.38 325.93 637.55 328.04 663.49 328.04 663.49 317.49 701.85 317.49 701.85 304.37 696.57 301.7 663.49 301.69 663.49 272.4 716.54 272.4"/><polygon id="_路徑_2" data-name="&lt;路徑&gt;" class="cls-22" points="633.38 251 633.38 268.03 633.38 325.93 658.88 325.93 658.88 315.67 696.57 315.67 696.57 301.7 658.88 301.7 658.88 268.03 711 268.03 711 251 633.38 251"/><rect class="cls-23" x="676.36" y="279.46" width="38.81" height="12.43"/><path class="cls-20" d="M636.76,344.87h-4.25v1.72h3.94v1.79h-3.94v3.94h-2.37v-9.23h6.62Z"/><path class="cls-20" d="M649.09,347.71a4.8,4.8,0,0,1-1.26,3.5,5.35,5.35,0,0,1-7,0,5.52,5.52,0,0,1,0-7,5.33,5.33,0,0,1,7,0A4.78,4.78,0,0,1,649.09,347.71ZM645.94,350a2.74,2.74,0,0,0,.51-1,4.52,4.52,0,0,0,.17-1.35,4.45,4.45,0,0,0-.19-1.41,2.93,2.93,0,0,0-.5-1,2.1,2.1,0,0,0-.73-.54,2.3,2.3,0,0,0-.86-.16,2.18,2.18,0,0,0-.85.16,2,2,0,0,0-.74.53,2.55,2.55,0,0,0-.5,1,4.68,4.68,0,0,0-.2,1.42,4.43,4.43,0,0,0,.19,1.4,2.84,2.84,0,0,0,.5.95,2.07,2.07,0,0,0,.72.54,2.38,2.38,0,0,0,.88.17,2.15,2.15,0,0,0,.87-.18A1.93,1.93,0,0,0,645.94,350Z"/><path class="cls-20" d="M660.81,352.32H657.9l-2.51-3.39h-1.11v3.39h-2.37v-9.23h4a9.4,9.4,0,0,1,1.4.09,3.08,3.08,0,0,1,1.11.4,2.48,2.48,0,0,1,.83.81,2.31,2.31,0,0,1,.3,1.23,2.73,2.73,0,0,1-.47,1.67,3.55,3.55,0,0,1-1.36,1.07Zm-3.72-6.41a1.2,1.2,0,0,0-.14-.59.93.93,0,0,0-.49-.39,1.59,1.59,0,0,0-.56-.12c-.22,0-.47,0-.76,0h-.86v2.48H655a8.44,8.44,0,0,0,1,0,1.37,1.37,0,0,0,.64-.26,1.3,1.3,0,0,0,.37-.42A1.58,1.58,0,0,0,657.09,345.91Z"/><path class="cls-20" d="M672.31,352.32h-2.37v-6.18l-1.71,4h-1.64l-1.71-4v6.18h-2.25v-9.23h2.77l2.08,4.63,2.07-4.63h2.76Z"/><path class="cls-20" d="M684.65,347.71a4.76,4.76,0,0,1-1.27,3.5,5.33,5.33,0,0,1-7,0,5.49,5.49,0,0,1,0-7,5.33,5.33,0,0,1,7,0A4.78,4.78,0,0,1,684.65,347.71ZM681.49,350a2.76,2.76,0,0,0,.52-1,4.87,4.87,0,0,0,.17-1.35,4.43,4.43,0,0,0-.2-1.41,2.59,2.59,0,0,0-.5-1,2,2,0,0,0-.73-.54,2.27,2.27,0,0,0-.86-.16,2.22,2.22,0,0,0-.85.16,1.93,1.93,0,0,0-.73.53,2.55,2.55,0,0,0-.51,1,4.69,4.69,0,0,0-.19,1.42,4.76,4.76,0,0,0,.18,1.4,3,3,0,0,0,.5.95,2,2,0,0,0,.73.54,2.36,2.36,0,0,0,.87.17,2.2,2.2,0,0,0,.88-.18A1.9,1.9,0,0,0,681.49,350Z"/><path class="cls-20" d="M695.36,349.42a2.61,2.61,0,0,1-1.15,2.21,5.2,5.2,0,0,1-3.14.86,8.35,8.35,0,0,1-2-.21,9.66,9.66,0,0,1-1.6-.51v-2.21h.26a5.76,5.76,0,0,0,1.65.91,5.4,5.4,0,0,0,1.76.31,4.67,4.67,0,0,0,.57,0,2,2,0,0,0,.58-.12,1.44,1.44,0,0,0,.45-.28.73.73,0,0,0-.08-1,1.85,1.85,0,0,0-.76-.34c-.34-.08-.71-.16-1.1-.23a7.24,7.24,0,0,1-1.09-.28,3.41,3.41,0,0,1-1.67-1,2.53,2.53,0,0,1-.52-1.61,2.5,2.5,0,0,1,1.16-2.11,5.06,5.06,0,0,1,3-.81,9.18,9.18,0,0,1,1.81.18,7.87,7.87,0,0,1,1.54.44v2.13h-.26a4.82,4.82,0,0,0-1.37-.75,4.68,4.68,0,0,0-1.65-.3,3.9,3.9,0,0,0-.59,0,2.65,2.65,0,0,0-.57.15,1.07,1.07,0,0,0-.41.28.61.61,0,0,0-.18.43.65.65,0,0,0,.28.56,3.23,3.23,0,0,0,1.06.36l1,.21a7.65,7.65,0,0,1,1,.27,3.44,3.44,0,0,1,1.57.94A2.37,2.37,0,0,1,695.36,349.42Z"/><path class="cls-20" d="M706.75,352.32h-2.46l-.64-1.87h-3.42l-.64,1.87h-2.4l3.41-9.23h2.74Zm-3.67-3.56-1.14-3.31-1.14,3.31Z"/><path class="cls-20" d="M718.14,352.32h-2.46l-.64-1.87h-3.42l-.64,1.87h-2.4l3.41-9.23h2.74Zm-3.68-3.56-1.13-3.31-1.14,3.31Z"/><path class="cls-20" d="M727.86,349.42a2.62,2.62,0,0,1-1.16,2.21,5.16,5.16,0,0,1-3.14.86,8.47,8.47,0,0,1-2-.21,9.54,9.54,0,0,1-1.59-.51v-2.21h.26a5.76,5.76,0,0,0,1.65.91,5.4,5.4,0,0,0,1.76.31,4.67,4.67,0,0,0,.57,0,2,2,0,0,0,.57-.12,1.24,1.24,0,0,0,.45-.28.64.64,0,0,0,.18-.49.68.68,0,0,0-.26-.53,1.75,1.75,0,0,0-.75-.34c-.35-.08-.71-.16-1.1-.23a6.94,6.94,0,0,1-1.09-.28,3.45,3.45,0,0,1-1.68-1,2.61,2.61,0,0,1,.65-3.72,5.06,5.06,0,0,1,3-.81,9,9,0,0,1,1.8.18,7.49,7.49,0,0,1,1.54.44v2.13h-.25a4.82,4.82,0,0,0-1.37-.75,4.72,4.72,0,0,0-1.65-.3,3.81,3.81,0,0,0-.59,0,2.65,2.65,0,0,0-.57.15,1.07,1.07,0,0,0-.41.28.61.61,0,0,0-.18.43.63.63,0,0,0,.28.56,3.24,3.24,0,0,0,1,.36l1,.21a8.08,8.08,0,0,1,1,.27,3.35,3.35,0,0,1,1.56.94A2.33,2.33,0,0,1,727.86,349.42Z"/><polygon class="cls-24" points="867.03 272.4 867.03 255.33 861.49 251 813.99 251 788.04 251 788.04 268.51 788.04 324.45 783.88 325.93 788.04 328.04 813.99 328.04 813.99 317.49 852.35 317.49 852.35 304.37 847.06 301.7 813.99 301.69 813.99 272.4 867.03 272.4"/><polygon id="_路徑_3" data-name="&lt;路徑&gt;" class="cls-25" points="783.88 251 783.88 268.03 783.88 325.93 809.37 325.93 809.37 315.67 847.06 315.67 847.06 301.7 809.37 301.7 809.37 268.03 861.49 268.03 861.49 251 783.88 251"/><rect class="cls-24" x="826.85" y="279.46" width="38.81" height="12.43"/><path class="cls-20" d="M787.25,344.87H783v1.72h3.94v1.79H783v3.94h-2.37v-9.23h6.62Z"/><path class="cls-20" d="M799.59,347.71a4.76,4.76,0,0,1-1.27,3.5,5.33,5.33,0,0,1-7,0,5.49,5.49,0,0,1,0-7,5.33,5.33,0,0,1,7,0A4.82,4.82,0,0,1,799.59,347.71ZM796.43,350a2.92,2.92,0,0,0,.52-1,4.9,4.9,0,0,0,.16-1.35,4.45,4.45,0,0,0-.19-1.41,2.75,2.75,0,0,0-.5-1,2,2,0,0,0-.73-.54,2.27,2.27,0,0,0-.86-.16,2.22,2.22,0,0,0-.85.16,2,2,0,0,0-.74.53,2.7,2.7,0,0,0-.5,1,4.68,4.68,0,0,0-.2,1.42,4.74,4.74,0,0,0,.19,1.4,3,3,0,0,0,.5.95,2,2,0,0,0,.73.54,2.32,2.32,0,0,0,.87.17,2.2,2.2,0,0,0,.88-.18A2,2,0,0,0,796.43,350Z"/><path class="cls-20" d="M811.3,352.32h-2.91l-2.51-3.39h-1.1v3.39h-2.37v-9.23h4a9.44,9.44,0,0,1,1.41.09,3.1,3.1,0,0,1,1.1.4,2.48,2.48,0,0,1,.83.81,2.31,2.31,0,0,1,.31,1.23,2.73,2.73,0,0,1-.48,1.67,3.51,3.51,0,0,1-1.35,1.07Zm-3.72-6.41a1.1,1.1,0,0,0-.14-.59.9.9,0,0,0-.49-.39,1.59,1.59,0,0,0-.56-.12c-.22,0-.47,0-.75,0h-.86v2.48h.73a8.12,8.12,0,0,0,1,0,1.46,1.46,0,0,0,.65-.26,1.39,1.39,0,0,0,.36-.42A1.42,1.42,0,0,0,807.58,345.91Z"/><path class="cls-20" d="M822.81,352.32h-2.37v-6.18l-1.71,4h-1.65l-1.71-4v6.18h-2.24v-9.23h2.76l2.08,4.63,2.07-4.63h2.77Z"/><path class="cls-20" d="M835.14,347.71a4.8,4.8,0,0,1-1.26,3.5,5.35,5.35,0,0,1-7,0,5.49,5.49,0,0,1,0-7,5.33,5.33,0,0,1,7,0A4.78,4.78,0,0,1,835.14,347.71ZM832,350a2.74,2.74,0,0,0,.51-1,4.87,4.87,0,0,0,.17-1.35,4.76,4.76,0,0,0-.19-1.41,2.75,2.75,0,0,0-.51-1,2.07,2.07,0,0,0-.72-.54,2.34,2.34,0,0,0-.86-.16,2.23,2.23,0,0,0-.86.16,2,2,0,0,0-.73.53,2.55,2.55,0,0,0-.51,1,4.69,4.69,0,0,0-.19,1.42,4.43,4.43,0,0,0,.19,1.4,2.67,2.67,0,0,0,.5.95,2,2,0,0,0,.72.54,2.38,2.38,0,0,0,.88.17,2.19,2.19,0,0,0,.87-.18A1.93,1.93,0,0,0,832,350Z"/><path class="cls-20" d="M845.86,349.42a2.62,2.62,0,0,1-1.16,2.21,5.18,5.18,0,0,1-3.14.86,8.41,8.41,0,0,1-2-.21,9.66,9.66,0,0,1-1.6-.51v-2.21h.26a5.9,5.9,0,0,0,1.65.91,5.4,5.4,0,0,0,1.76.31,4.43,4.43,0,0,0,.57,0,2,2,0,0,0,.58-.12,1.44,1.44,0,0,0,.45-.28.64.64,0,0,0,.18-.49.68.68,0,0,0-.26-.53,1.75,1.75,0,0,0-.75-.34c-.35-.08-.72-.16-1.11-.23a7.11,7.11,0,0,1-1.08-.28,3.4,3.4,0,0,1-1.68-1,2.52,2.52,0,0,1-.51-1.61,2.49,2.49,0,0,1,1.15-2.11,5.11,5.11,0,0,1,3-.81,9,9,0,0,1,1.8.18,7.68,7.68,0,0,1,1.54.44v2.13h-.25a5,5,0,0,0-1.37-.75,4.72,4.72,0,0,0-1.65-.3,4,4,0,0,0-.6,0,2.73,2.73,0,0,0-.56.15,1.11,1.11,0,0,0-.42.28.6.6,0,0,0-.17.43.63.63,0,0,0,.28.56,3.06,3.06,0,0,0,1,.36l1,.21a8,8,0,0,1,1,.27,3.44,3.44,0,0,1,1.57.94A2.33,2.33,0,0,1,845.86,349.42Z"/><path class="cls-20" d="M857.24,352.32h-2.46l-.64-1.87h-3.41l-.65,1.87h-2.4l3.41-9.23h2.74Zm-3.67-3.56-1.14-3.31-1.13,3.31Z"/><path class="cls-20" d="M868.63,352.32h-2.46l-.64-1.87h-3.42l-.64,1.87h-2.4l3.41-9.23h2.74ZM865,348.76l-1.14-3.31-1.13,3.31Z"/><path class="cls-20" d="M878.35,349.42a2.61,2.61,0,0,1-1.15,2.21,5.18,5.18,0,0,1-3.14.86,8.35,8.35,0,0,1-2-.21,9.66,9.66,0,0,1-1.6-.51v-2.21h.26a5.76,5.76,0,0,0,1.65.91,5.4,5.4,0,0,0,1.76.31,4.43,4.43,0,0,0,.57,0,2,2,0,0,0,.58-.12,1.44,1.44,0,0,0,.45-.28.73.73,0,0,0-.08-1,1.85,1.85,0,0,0-.76-.34c-.34-.08-.71-.16-1.1-.23a7.24,7.24,0,0,1-1.09-.28,3.41,3.41,0,0,1-1.67-1,2.52,2.52,0,0,1-.51-1.61,2.49,2.49,0,0,1,1.15-2.11,5.07,5.07,0,0,1,3-.81,9.16,9.16,0,0,1,1.8.18,7.87,7.87,0,0,1,1.54.44v2.13h-.26a5,5,0,0,0-3-1.05,3.9,3.9,0,0,0-.59,0,2.82,2.82,0,0,0-.57.15,1.07,1.07,0,0,0-.41.28.61.61,0,0,0-.18.43.65.65,0,0,0,.28.56,3.23,3.23,0,0,0,1.06.36l1,.21a7.65,7.65,0,0,1,1,.27,3.44,3.44,0,0,1,1.57.94A2.37,2.37,0,0,1,878.35,349.42Z"/><polygon class="cls-26" points="727.03 419.78 727.03 400.46 720.76 395.56 667.01 395.56 637.65 395.56 637.65 415.37 637.65 478.67 632.94 480.35 637.65 482.73 667.01 482.73 667.01 470.79 710.41 470.79 710.41 455.94 704.43 452.93 667.01 452.92 667.01 419.78 727.03 419.78"/><polygon id="_路徑_4" data-name="&lt;路徑&gt;" class="cls-27" points="632.94 395.56 632.94 414.83 632.94 480.35 661.78 480.35 661.78 468.74 704.43 468.74 704.43 452.93 661.78 452.93 661.78 414.83 720.76 414.83 720.76 395.56 632.94 395.56"/><rect class="cls-28" x="681.56" y="427.76" width="43.91" height="14.07"/><path class="cls-29" d="M636.75,501.78H632v1.94h4.45v2H632v4.47h-2.68V499.76h7.48Z"/><path class="cls-29" d="M650.71,505a5.41,5.41,0,0,1-1.43,4,6,6,0,0,1-7.9,0,6.21,6.21,0,0,1,0-7.95,6.06,6.06,0,0,1,7.89,0A5.46,5.46,0,0,1,650.71,505Zm-3.57,2.64a3.06,3.06,0,0,0,.58-1.12,5.43,5.43,0,0,0,.19-1.53,5.31,5.31,0,0,0-.21-1.6,3.27,3.27,0,0,0-.57-1.07,2.21,2.21,0,0,0-.83-.61,2.66,2.66,0,0,0-1-.19,2.38,2.38,0,0,0-1,.19,2.23,2.23,0,0,0-.83.6,2.89,2.89,0,0,0-.58,1.08,5.55,5.55,0,0,0-.22,1.61,5,5,0,0,0,.22,1.59,3.27,3.27,0,0,0,.56,1.07,2.41,2.41,0,0,0,.82.61,2.6,2.6,0,0,0,1,.19,2.37,2.37,0,0,0,1-.2A2.13,2.13,0,0,0,647.14,507.63Z"/><path class="cls-29" d="M664,510.21h-3.3l-2.84-3.83h-1.25v3.83H653.9V499.76h4.52a10.37,10.37,0,0,1,1.59.1,3.42,3.42,0,0,1,1.25.46,2.65,2.65,0,0,1,.94.91,2.62,2.62,0,0,1,.35,1.4,3.11,3.11,0,0,1-.54,1.89,4.12,4.12,0,0,1-1.53,1.21ZM659.76,503a1.34,1.34,0,0,0-.16-.68,1.14,1.14,0,0,0-.55-.44,2.08,2.08,0,0,0-.64-.13c-.24,0-.53,0-.85,0h-1v2.81h.83a8.11,8.11,0,0,0,1.08-.06,1.5,1.5,0,0,0,.73-.29,1.23,1.23,0,0,0,.41-.48A1.53,1.53,0,0,0,659.76,503Z"/><path class="cls-29" d="M677,510.21h-2.68v-7l-1.94,4.54h-1.86l-1.94-4.54v7H666V499.76h3.13l2.35,5.24,2.35-5.24H677Z"/><path class="cls-29" d="M691,505a5.41,5.41,0,0,1-1.44,4,6,6,0,0,1-7.9,0,6.24,6.24,0,0,1,0-7.95,6.07,6.07,0,0,1,7.9,0A5.46,5.46,0,0,1,691,505Zm-3.58,2.64a3.08,3.08,0,0,0,.59-1.12,5.82,5.82,0,0,0,.19-1.53,5.28,5.28,0,0,0-.22-1.6,3.27,3.27,0,0,0-.57-1.07,2.18,2.18,0,0,0-.82-.61,2.75,2.75,0,0,0-1-.19,2.38,2.38,0,0,0-1,.19,2.23,2.23,0,0,0-.83.6,2.75,2.75,0,0,0-.57,1.08A5.22,5.22,0,0,0,683,505a5.28,5.28,0,0,0,.21,1.59,3.27,3.27,0,0,0,.56,1.07,2.41,2.41,0,0,0,.82.61,2.6,2.6,0,0,0,1,.19,2.37,2.37,0,0,0,1-.2A2.06,2.06,0,0,0,687.37,507.63Z"/><path class="cls-29" d="M703.07,506.92a3,3,0,0,1-1.31,2.51,5.89,5.89,0,0,1-3.55,1,10.11,10.11,0,0,1-2.27-.23,11.85,11.85,0,0,1-1.8-.58v-2.51h.29a6.21,6.21,0,0,0,1.87,1,6,6,0,0,0,2,.36,6.49,6.49,0,0,0,.65-.05,2.17,2.17,0,0,0,.65-.14,1.83,1.83,0,0,0,.51-.31.77.77,0,0,0,.2-.56.79.79,0,0,0-.29-.6,2.16,2.16,0,0,0-.86-.38c-.39-.09-.81-.18-1.24-.26a10,10,0,0,1-1.23-.31,3.88,3.88,0,0,1-1.9-1.17,2.94,2.94,0,0,1,.73-4.2,5.72,5.72,0,0,1,3.36-.92,10.69,10.69,0,0,1,2,.2,9.32,9.32,0,0,1,1.74.5v2.41h-.28a5.72,5.72,0,0,0-1.55-.85,5.47,5.47,0,0,0-1.87-.34,4.91,4.91,0,0,0-.67.05,2.74,2.74,0,0,0-.64.17,1.19,1.19,0,0,0-.47.32.7.7,0,0,0-.2.49.73.73,0,0,0,.32.63,3.39,3.39,0,0,0,1.19.4l1.1.24a8.15,8.15,0,0,1,1.14.31,3.8,3.8,0,0,1,1.78,1.07A2.61,2.61,0,0,1,703.07,506.92Z"/><path class="cls-29" d="M716,510.21h-2.78l-.73-2.12h-3.86l-.73,2.12h-2.71L709,499.76h3.11Zm-4.15-4-1.29-3.74-1.28,3.74Z"/><path class="cls-29" d="M728.84,510.21h-2.78l-.73-2.12h-3.86l-.73,2.12H718l3.86-10.45H725Zm-4.16-4-1.28-3.74-1.29,3.74Z"/><path class="cls-29" d="M739.84,506.92a3,3,0,0,1-1.31,2.51,5.87,5.87,0,0,1-3.55,1,10,10,0,0,1-2.26-.23,11.63,11.63,0,0,1-1.81-.58v-2.51h.29a6.21,6.21,0,0,0,1.87,1,6.08,6.08,0,0,0,2,.36,6.29,6.29,0,0,0,.65-.05,2.17,2.17,0,0,0,.65-.14,1.58,1.58,0,0,0,.51-.31.77.77,0,0,0,.2-.56.79.79,0,0,0-.29-.6,2.17,2.17,0,0,0-.85-.38c-.4-.09-.81-.18-1.25-.26a10,10,0,0,1-1.23-.31,3.92,3.92,0,0,1-1.9-1.17,2.85,2.85,0,0,1-.58-1.82,2.81,2.81,0,0,1,1.31-2.38,5.72,5.72,0,0,1,3.36-.92,10.69,10.69,0,0,1,2,.2,9.44,9.44,0,0,1,1.75.5v2.41h-.29a5.57,5.57,0,0,0-1.55-.85,5.47,5.47,0,0,0-1.87-.34,5,5,0,0,0-.67.05,2.88,2.88,0,0,0-.64.17,1.27,1.27,0,0,0-.47.32.7.7,0,0,0-.2.49.73.73,0,0,0,.32.63,3.47,3.47,0,0,0,1.19.4l1.11.24a9,9,0,0,1,1.14.31,3.71,3.71,0,0,1,1.77,1.07A2.61,2.61,0,0,1,739.84,506.92Z"/><polygon class="cls-27" points="727.03 592.35 727.03 573.04 720.76 568.13 667.01 568.13 637.65 568.13 637.65 587.95 637.65 651.25 632.94 652.93 637.65 655.3 667.01 655.3 667.01 643.37 710.41 643.37 710.41 628.52 704.43 625.5 667.01 625.49 667.01 592.35 727.03 592.35"/><polygon id="_路徑_5" data-name="&lt;路徑&gt;" class="cls-30" points="632.94 568.13 632.94 587.41 632.94 652.93 661.78 652.93 661.78 641.31 704.43 641.31 704.43 625.5 661.78 625.5 661.78 587.41 720.76 587.41 720.76 568.13 632.94 568.13"/><rect class="cls-27" x="681.56" y="600.34" width="43.91" height="14.07"/><path class="cls-29" d="M636.75,674.36H632v1.94h4.45v2H632v4.46h-2.68V672.34h7.48Z"/><path class="cls-29" d="M650.71,677.56a5.42,5.42,0,0,1-1.43,4,6,6,0,0,1-7.9,0,6.21,6.21,0,0,1,0-7.95,6.06,6.06,0,0,1,7.89,0A5.43,5.43,0,0,1,650.71,677.56Zm-3.57,2.65a3.11,3.11,0,0,0,.58-1.13,6.19,6.19,0,0,0,0-3.12,3.27,3.27,0,0,0-.57-1.07,2.21,2.21,0,0,0-.83-.61,2.47,2.47,0,0,0-1-.19,2.56,2.56,0,0,0-1,.18,2.15,2.15,0,0,0-.83.61A2.89,2.89,0,0,0,643,676a5.47,5.47,0,0,0-.22,1.6,5,5,0,0,0,.22,1.59,3.08,3.08,0,0,0,.56,1.07,2.18,2.18,0,0,0,.82.61,2.61,2.61,0,0,0,1,.2,2.54,2.54,0,0,0,1-.2A2.13,2.13,0,0,0,647.14,680.21Z"/><path class="cls-29" d="M664,682.78h-3.3L657.83,679h-1.25v3.83H653.9V672.34h4.52a10.37,10.37,0,0,1,1.59.1,3.25,3.25,0,0,1,1.25.46,2.57,2.57,0,0,1,.94.91,2.59,2.59,0,0,1,.35,1.4,3.06,3.06,0,0,1-.54,1.88,4.14,4.14,0,0,1-1.53,1.22Zm-4.21-7.25a1.3,1.3,0,0,0-.16-.67,1.08,1.08,0,0,0-.55-.44,2.07,2.07,0,0,0-.64-.14l-.85,0h-1v2.81h.83a8.11,8.11,0,0,0,1.08-.06,1.5,1.5,0,0,0,.73-.29,1.23,1.23,0,0,0,.41-.48A1.58,1.58,0,0,0,659.76,675.53Z"/><path class="cls-29" d="M677,682.78h-2.68v-7l-1.94,4.54h-1.86l-1.94-4.54v7H666V672.34h3.13l2.35,5.24,2.35-5.24H677Z"/><path class="cls-29" d="M691,677.56a5.42,5.42,0,0,1-1.44,4,6,6,0,0,1-7.9,0,6.24,6.24,0,0,1,0-7.95,6.07,6.07,0,0,1,7.9,0A5.43,5.43,0,0,1,691,677.56Zm-3.58,2.65a3.13,3.13,0,0,0,.59-1.13,5.68,5.68,0,0,0,.19-1.52,5.28,5.28,0,0,0-.22-1.6,3.27,3.27,0,0,0-.57-1.07,2.18,2.18,0,0,0-.82-.61,2.64,2.64,0,0,0-1.94,0,2.15,2.15,0,0,0-.83.61,2.75,2.75,0,0,0-.57,1.08,5.16,5.16,0,0,0-.22,1.6,5.28,5.28,0,0,0,.21,1.59,3.08,3.08,0,0,0,.56,1.07,2.18,2.18,0,0,0,.82.61,2.61,2.61,0,0,0,1,.2,2.54,2.54,0,0,0,1-.2A2.06,2.06,0,0,0,687.37,680.21Z"/><path class="cls-29" d="M703.07,679.5a3,3,0,0,1-1.31,2.51,5.89,5.89,0,0,1-3.55,1,9.56,9.56,0,0,1-2.27-.23,10.83,10.83,0,0,1-1.8-.58v-2.5h.29a6.18,6.18,0,0,0,1.87,1,5.58,5.58,0,0,0,2.64.32,2.53,2.53,0,0,0,.65-.14,1.64,1.64,0,0,0,.51-.32.73.73,0,0,0,.2-.56.77.77,0,0,0-.29-.59,2,2,0,0,0-.86-.38c-.39-.1-.81-.18-1.24-.27a8.5,8.5,0,0,1-1.23-.31,3.8,3.8,0,0,1-1.9-1.16,2.94,2.94,0,0,1,.73-4.2,5.65,5.65,0,0,1,3.36-.92,9.94,9.94,0,0,1,2,.2,9.32,9.32,0,0,1,1.74.5v2.4h-.28a6,6,0,0,0-1.55-.84,5.24,5.24,0,0,0-1.87-.34,4.92,4.92,0,0,0-.67,0,2.34,2.34,0,0,0-.64.18,1.1,1.1,0,0,0-.47.32.69.69,0,0,0-.2.48.74.74,0,0,0,.32.64,3.39,3.39,0,0,0,1.19.4l1.1.23c.36.08.74.18,1.14.31a3.88,3.88,0,0,1,1.78,1.07A2.64,2.64,0,0,1,703.07,679.5Z"/><path class="cls-29" d="M716,682.78h-2.78l-.73-2.11h-3.86l-.73,2.11h-2.71L709,672.34h3.11Zm-4.15-4L710.51,675l-1.28,3.75Z"/><path class="cls-29" d="M728.84,682.78h-2.78l-.73-2.11h-3.86l-.73,2.11H718l3.86-10.44H725Zm-4.16-4L723.4,675l-1.29,3.75Z"/><path class="cls-29" d="M739.84,679.5a3,3,0,0,1-1.31,2.51,5.87,5.87,0,0,1-3.55,1,9.42,9.42,0,0,1-2.26-.23,10.66,10.66,0,0,1-1.81-.58v-2.5h.29a6.18,6.18,0,0,0,1.87,1,6.08,6.08,0,0,0,2,.36,5.86,5.86,0,0,0,.65,0,2.53,2.53,0,0,0,.65-.14,1.44,1.44,0,0,0,.51-.32.73.73,0,0,0,.2-.56.77.77,0,0,0-.29-.59,2,2,0,0,0-.85-.38c-.4-.1-.81-.18-1.25-.27a8.5,8.5,0,0,1-1.23-.31,3.84,3.84,0,0,1-1.9-1.16,2.87,2.87,0,0,1-.58-1.82,2.8,2.8,0,0,1,1.31-2.38,5.65,5.65,0,0,1,3.36-.92,9.94,9.94,0,0,1,2,.2,9.44,9.44,0,0,1,1.75.5v2.4h-.29a5.82,5.82,0,0,0-1.55-.84,5.24,5.24,0,0,0-1.87-.34,5,5,0,0,0-.67,0,2.45,2.45,0,0,0-.64.18,1.16,1.16,0,0,0-.47.32.69.69,0,0,0-.2.48.74.74,0,0,0,.32.64,3.47,3.47,0,0,0,1.19.4l1.11.23c.35.08.73.18,1.14.31a3.79,3.79,0,0,1,1.77,1.07A2.64,2.64,0,0,1,739.84,679.5Z"/><polygon class="cls-31" points="874.97 419.78 874.97 400.46 868.7 395.56 814.94 395.56 785.59 395.56 785.59 415.37 785.59 478.67 780.87 480.35 785.59 482.73 814.94 482.73 814.94 470.79 858.35 470.79 858.35 455.94 852.37 452.93 814.94 452.92 814.94 419.78 874.97 419.78"/><polygon id="_路徑_6" data-name="&lt;路徑&gt;" class="cls-32" points="780.87 395.56 780.87 414.83 780.87 480.35 809.72 480.35 809.72 468.74 852.37 468.74 852.37 452.93 809.72 452.93 809.72 414.83 868.7 414.83 868.7 395.56 780.87 395.56"/><path class="cls-29" d="M784.69,501.78h-4.81v1.94h4.46v2h-4.46v4.47H777.2V499.76h7.49Z"/><path class="cls-29" d="M798.65,505a5.45,5.45,0,0,1-1.43,4,6.06,6.06,0,0,1-7.91,0,6.24,6.24,0,0,1,0-7.95,6.07,6.07,0,0,1,7.9,0A5.46,5.46,0,0,1,798.65,505Zm-3.57,2.64a3.06,3.06,0,0,0,.58-1.12,5.43,5.43,0,0,0,.19-1.53,5,5,0,0,0-.22-1.6,3.08,3.08,0,0,0-.56-1.07,2.21,2.21,0,0,0-.83-.61,2.66,2.66,0,0,0-1-.19,2.47,2.47,0,0,0-1,.19,2.31,2.31,0,0,0-.83.6,3,3,0,0,0-.57,1.08,5.22,5.22,0,0,0-.22,1.61,5.28,5.28,0,0,0,.21,1.59,3.49,3.49,0,0,0,.57,1.07,2.32,2.32,0,0,0,.82.61,2.53,2.53,0,0,0,1,.19,2.37,2.37,0,0,0,1-.2A2.13,2.13,0,0,0,795.08,507.63Z"/><path class="cls-29" d="M811.9,510.21h-3.29l-2.84-3.83h-1.25v3.83h-2.68V499.76h4.52a10.37,10.37,0,0,1,1.59.1,3.49,3.49,0,0,1,1.25.46,2.73,2.73,0,0,1,.94.91,2.62,2.62,0,0,1,.35,1.4,3.11,3.11,0,0,1-.54,1.89,4.12,4.12,0,0,1-1.53,1.21ZM807.7,503a1.34,1.34,0,0,0-.16-.68,1.12,1.12,0,0,0-.56-.44,2,2,0,0,0-.63-.13c-.25,0-.53,0-.85,0h-1v2.81h.83a8.11,8.11,0,0,0,1.08-.06,1.54,1.54,0,0,0,.73-.29,1.32,1.32,0,0,0,.41-.48A1.53,1.53,0,0,0,807.7,503Z"/><path class="cls-29" d="M824.92,510.21h-2.68v-7l-1.93,4.54h-1.86l-1.94-4.54v7H814V499.76h3.13l2.35,5.24,2.34-5.24h3.13Z"/><path class="cls-29" d="M838.88,505a5.41,5.41,0,0,1-1.43,4,6.06,6.06,0,0,1-7.91,0,6.24,6.24,0,0,1,0-7.95,6.07,6.07,0,0,1,7.9,0A5.46,5.46,0,0,1,838.88,505Zm-3.57,2.64a3.06,3.06,0,0,0,.58-1.12,5.43,5.43,0,0,0,.19-1.53,5.31,5.31,0,0,0-.21-1.6,3.27,3.27,0,0,0-.57-1.07,2.21,2.21,0,0,0-.83-.61,2.66,2.66,0,0,0-1-.19,2.38,2.38,0,0,0-1,.19,2.23,2.23,0,0,0-.83.6,2.89,2.89,0,0,0-.58,1.08,5.55,5.55,0,0,0-.22,1.61,5,5,0,0,0,.22,1.59,3.27,3.27,0,0,0,.56,1.07,2.32,2.32,0,0,0,.82.61,2.6,2.6,0,0,0,1,.19,2.37,2.37,0,0,0,1-.2A2.13,2.13,0,0,0,835.31,507.63Z"/><path class="cls-29" d="M851,506.92a3,3,0,0,1-1.3,2.51,5.92,5.92,0,0,1-3.56,1,10,10,0,0,1-2.26-.23,12,12,0,0,1-1.81-.58v-2.51h.3a5.71,5.71,0,0,0,4.5,1.34,2,2,0,0,0,.65-.14A1.58,1.58,0,0,0,848,508a.73.73,0,0,0,.2-.56.76.76,0,0,0-.29-.6,2.1,2.1,0,0,0-.85-.38c-.39-.09-.81-.18-1.25-.26a11.05,11.05,0,0,1-1.23-.31,3.84,3.84,0,0,1-1.89-1.17,2.94,2.94,0,0,1,.73-4.2,5.72,5.72,0,0,1,3.36-.92,10.69,10.69,0,0,1,2,.2,9.32,9.32,0,0,1,1.74.5v2.41h-.29a5.66,5.66,0,0,0-3.41-1.19,4.91,4.91,0,0,0-.67.05,2.83,2.83,0,0,0-.65.17,1.36,1.36,0,0,0-.47.32.69.69,0,0,0-.19.49.73.73,0,0,0,.31.63,3.46,3.46,0,0,0,1.2.4l1.1.24a9,9,0,0,1,1.14.31,3.71,3.71,0,0,1,1.77,1.07A2.61,2.61,0,0,1,851,506.92Z"/><path class="cls-29" d="M863.89,510.21h-2.78l-.73-2.12h-3.86l-.73,2.12h-2.72l3.86-10.45H860Zm-4.16-4-1.28-3.74-1.29,3.74Z"/><path class="cls-29" d="M876.78,510.21H874l-.73-2.12H869.4l-.73,2.12H866l3.86-10.45h3.1Zm-4.16-4-1.28-3.74-1.29,3.74Z"/><path class="cls-29" d="M887.78,506.92a3,3,0,0,1-1.31,2.51,5.89,5.89,0,0,1-3.55,1,10.11,10.11,0,0,1-2.27-.23,11.85,11.85,0,0,1-1.8-.58v-2.51h.29a6.21,6.21,0,0,0,1.87,1,6,6,0,0,0,2,.36,6.49,6.49,0,0,0,.65-.05,2.17,2.17,0,0,0,.65-.14,1.83,1.83,0,0,0,.51-.31.77.77,0,0,0,.2-.56.79.79,0,0,0-.29-.6,2.16,2.16,0,0,0-.86-.38c-.39-.09-.81-.18-1.24-.26a10,10,0,0,1-1.23-.31,3.88,3.88,0,0,1-1.9-1.17,2.94,2.94,0,0,1,.73-4.2,5.72,5.72,0,0,1,3.36-.92,10.69,10.69,0,0,1,2,.2,9.32,9.32,0,0,1,1.74.5v2.41h-.28a5.57,5.57,0,0,0-1.55-.85,5.47,5.47,0,0,0-1.87-.34,4.91,4.91,0,0,0-.67.05,2.74,2.74,0,0,0-.64.17,1.19,1.19,0,0,0-.47.32.7.7,0,0,0-.2.49.73.73,0,0,0,.32.63,3.39,3.39,0,0,0,1.19.4l1.1.24a8.15,8.15,0,0,1,1.14.31,3.8,3.8,0,0,1,1.78,1.07A2.61,2.61,0,0,1,887.78,506.92Z"/><polygon class="cls-33" points="874.97 592.35 874.97 573.04 868.7 568.13 814.94 568.13 785.59 568.13 785.59 587.95 785.59 651.25 780.87 652.93 785.59 655.3 814.94 655.3 814.94 643.37 858.35 643.37 858.35 628.52 852.37 625.5 814.94 625.49 814.94 592.35 874.97 592.35"/><polygon id="_路徑_7" data-name="&lt;路徑&gt;" class="cls-31" points="780.87 568.13 780.87 587.41 780.87 652.93 809.72 652.93 809.72 641.31 852.37 641.31 852.37 625.5 809.72 625.5 809.72 587.41 868.7 587.41 868.7 568.13 780.87 568.13"/><rect class="cls-34" x="829.5" y="600.34" width="43.91" height="14.07"/><path class="cls-29" d="M784.69,674.36h-4.81v1.94h4.46v2h-4.46v4.46H777.2V672.34h7.49Z"/><path class="cls-29" d="M798.65,677.56a5.46,5.46,0,0,1-1.43,4,6.06,6.06,0,0,1-7.91,0,6.24,6.24,0,0,1,0-7.95,6.07,6.07,0,0,1,7.9,0A5.43,5.43,0,0,1,798.65,677.56Zm-3.57,2.65a3.11,3.11,0,0,0,.58-1.13,5.3,5.3,0,0,0,.19-1.52,5,5,0,0,0-.22-1.6,3.08,3.08,0,0,0-.56-1.07,2.21,2.21,0,0,0-.83-.61,2.47,2.47,0,0,0-1-.19,2.65,2.65,0,0,0-1,.18,2.23,2.23,0,0,0-.83.61,3,3,0,0,0-.57,1.08,5.16,5.16,0,0,0-.22,1.6,5.28,5.28,0,0,0,.21,1.59,3.27,3.27,0,0,0,.57,1.07,2.1,2.1,0,0,0,.82.61,2.55,2.55,0,0,0,2,0A2.13,2.13,0,0,0,795.08,680.21Z"/><path class="cls-29" d="M811.9,682.78h-3.29L805.77,679h-1.25v3.83h-2.68V672.34h4.52a10.37,10.37,0,0,1,1.59.1,3.31,3.31,0,0,1,1.25.46,2.65,2.65,0,0,1,.94.91,2.59,2.59,0,0,1,.35,1.4,3.06,3.06,0,0,1-.54,1.88,4.14,4.14,0,0,1-1.53,1.22Zm-4.2-7.25a1.3,1.3,0,0,0-.16-.67,1.07,1.07,0,0,0-.56-.44,2,2,0,0,0-.63-.14l-.85,0h-1v2.81h.83a8.11,8.11,0,0,0,1.08-.06,1.54,1.54,0,0,0,.73-.29,1.32,1.32,0,0,0,.41-.48A1.58,1.58,0,0,0,807.7,675.53Z"/><path class="cls-29" d="M824.92,682.78h-2.68v-7l-1.93,4.54h-1.86l-1.94-4.54v7H814V672.34h3.13l2.35,5.24,2.34-5.24h3.13Z"/><path class="cls-29" d="M838.88,677.56a5.42,5.42,0,0,1-1.43,4,6.06,6.06,0,0,1-7.91,0,6.24,6.24,0,0,1,0-7.95,6.07,6.07,0,0,1,7.9,0A5.43,5.43,0,0,1,838.88,677.56Zm-3.57,2.65a3.11,3.11,0,0,0,.58-1.13,6.19,6.19,0,0,0,0-3.12,3.27,3.27,0,0,0-.57-1.07,2.21,2.21,0,0,0-.83-.61,2.47,2.47,0,0,0-1-.19,2.56,2.56,0,0,0-1,.18,2.15,2.15,0,0,0-.83.61,2.89,2.89,0,0,0-.58,1.08,5.47,5.47,0,0,0-.22,1.6,5,5,0,0,0,.22,1.59,3.08,3.08,0,0,0,.56,1.07,2.1,2.1,0,0,0,.82.61,2.61,2.61,0,0,0,1,.2,2.54,2.54,0,0,0,1-.2A2.13,2.13,0,0,0,835.31,680.21Z"/><path class="cls-29" d="M851,679.5a3,3,0,0,1-1.3,2.51,5.92,5.92,0,0,1-3.56,1,9.47,9.47,0,0,1-2.26-.23,11,11,0,0,1-1.81-.58v-2.5h.3a6.51,6.51,0,0,0,3.86,1.38,5.71,5.71,0,0,0,.64,0,2.35,2.35,0,0,0,.65-.14,1.44,1.44,0,0,0,.51-.32.7.7,0,0,0,.2-.56.74.74,0,0,0-.29-.59,2,2,0,0,0-.85-.38c-.39-.1-.81-.18-1.25-.27a9.21,9.21,0,0,1-1.23-.31,3.76,3.76,0,0,1-1.89-1.16,2.82,2.82,0,0,1-.58-1.82,2.78,2.78,0,0,1,1.31-2.38,5.65,5.65,0,0,1,3.36-.92,9.94,9.94,0,0,1,2,.2,9.32,9.32,0,0,1,1.74.5v2.4h-.29a5.76,5.76,0,0,0-1.54-.84,5.28,5.28,0,0,0-1.87-.34,4.92,4.92,0,0,0-.67,0,2.41,2.41,0,0,0-.65.18,1.23,1.23,0,0,0-.47.32.68.68,0,0,0-.19.48.73.73,0,0,0,.31.64,3.46,3.46,0,0,0,1.2.4l1.1.23c.35.08.73.18,1.14.31a3.79,3.79,0,0,1,1.77,1.07A2.64,2.64,0,0,1,851,679.5Z"/><path class="cls-29" d="M863.89,682.78h-2.78l-.73-2.11h-3.86l-.73,2.11h-2.72l3.86-10.44H860Zm-4.16-4L858.45,675l-1.29,3.75Z"/><path class="cls-29" d="M876.78,682.78H874l-.73-2.11H869.4l-.73,2.11H866l3.86-10.44h3.1Zm-4.16-4L871.34,675l-1.29,3.75Z"/><path class="cls-29" d="M887.78,679.5a3,3,0,0,1-1.31,2.51,5.89,5.89,0,0,1-3.55,1,9.56,9.56,0,0,1-2.27-.23,10.83,10.83,0,0,1-1.8-.58v-2.5h.29a6.18,6.18,0,0,0,1.87,1,5.58,5.58,0,0,0,2.64.32,2.53,2.53,0,0,0,.65-.14,1.64,1.64,0,0,0,.51-.32.73.73,0,0,0,.2-.56.77.77,0,0,0-.29-.59,2,2,0,0,0-.86-.38c-.39-.1-.81-.18-1.24-.27a8.5,8.5,0,0,1-1.23-.31,3.8,3.8,0,0,1-1.9-1.16,2.94,2.94,0,0,1,.73-4.2,5.65,5.65,0,0,1,3.36-.92,9.94,9.94,0,0,1,2,.2,9.32,9.32,0,0,1,1.74.5v2.4h-.28a5.82,5.82,0,0,0-1.55-.84,5.24,5.24,0,0,0-1.87-.34,4.92,4.92,0,0,0-.67,0,2.34,2.34,0,0,0-.64.18,1.1,1.1,0,0,0-.47.32.69.69,0,0,0-.2.48.74.74,0,0,0,.32.64,3.39,3.39,0,0,0,1.19.4l1.1.23c.36.08.74.18,1.14.31a3.88,3.88,0,0,1,1.78,1.07A2.64,2.64,0,0,1,887.78,679.5Z"/><polygon class="cls-35" points="576.49 419.78 576.49 400.46 570.22 395.56 516.47 395.56 487.11 395.56 487.11 415.37 487.11 478.67 482.4 480.35 487.11 482.73 516.47 482.73 516.47 470.79 559.88 470.79 559.88 455.94 553.89 452.93 516.47 452.92 516.47 419.78 576.49 419.78"/><polygon id="_路徑_8" data-name="&lt;路徑&gt;" class="cls-36" points="482.4 395.56 482.4 414.83 482.4 480.35 511.25 480.35 511.25 468.74 553.89 468.74 553.89 452.93 511.25 452.93 511.25 414.83 570.22 414.83 570.22 395.56 482.4 395.56"/><rect class="cls-37" x="531.02" y="427.76" width="43.91" height="14.07"/><path class="cls-20" d="M485.56,501.29h-4.33V503h4v1.82h-4v4h-2.41v-9.41h6.74Z"/><path class="cls-20" d="M500.18,505a5.41,5.41,0,0,1-1.44,4,6,6,0,0,1-7.9,0,6.24,6.24,0,0,1,0-7.95,6.07,6.07,0,0,1,7.9,0A5.46,5.46,0,0,1,500.18,505Zm-3.58,2.64a3.08,3.08,0,0,0,.59-1.12,5.82,5.82,0,0,0,.19-1.53,5.28,5.28,0,0,0-.22-1.6,3.27,3.27,0,0,0-.57-1.07,2.18,2.18,0,0,0-.82-.61,2.71,2.71,0,0,0-1-.19,2.38,2.38,0,0,0-1,.19,2.23,2.23,0,0,0-.83.6,2.75,2.75,0,0,0-.57,1.08,5.22,5.22,0,0,0-.22,1.61,5.28,5.28,0,0,0,.21,1.59,3.27,3.27,0,0,0,.56,1.07,2.35,2.35,0,0,0,.83.61,2.52,2.52,0,0,0,1,.19,2.37,2.37,0,0,0,1-.2A2.06,2.06,0,0,0,496.6,507.63Z"/><path class="cls-20" d="M513.43,510.21h-3.29l-2.85-3.83h-1.24v3.83h-2.68V499.76h4.51a10.6,10.6,0,0,1,1.6.1,3.56,3.56,0,0,1,1.25.46,2.7,2.7,0,0,1,.93.91,2.62,2.62,0,0,1,.35,1.4,3.11,3.11,0,0,1-.54,1.89,4,4,0,0,1-1.53,1.21ZM509.22,503a1.34,1.34,0,0,0-.16-.68,1.09,1.09,0,0,0-.55-.44,2,2,0,0,0-.64-.13c-.24,0-.53,0-.85,0h-1v2.81h.82a8.38,8.38,0,0,0,1.09-.06,1.5,1.5,0,0,0,.72-.29,1.35,1.35,0,0,0,.42-.48A1.69,1.69,0,0,0,509.22,503Z"/><path class="cls-20" d="M526.45,510.21h-2.68v-7l-1.94,4.54H520L518,503.21v7H515.5V499.76h3.12L521,505l2.34-5.24h3.13Z"/><path class="cls-20" d="M540.41,505a5.45,5.45,0,0,1-1.43,4,6.06,6.06,0,0,1-7.91,0,6.24,6.24,0,0,1,0-7.95,6.07,6.07,0,0,1,7.9,0A5.46,5.46,0,0,1,540.41,505Zm-3.57,2.64a3.22,3.22,0,0,0,.58-1.12,5.43,5.43,0,0,0,.19-1.53,5,5,0,0,0-.22-1.6,2.93,2.93,0,0,0-.57-1.07,2.18,2.18,0,0,0-.82-.61,2.7,2.7,0,0,0-1-.19,2.43,2.43,0,0,0-1,.19,2.23,2.23,0,0,0-.83.6,3,3,0,0,0-.57,1.08,5.22,5.22,0,0,0-.22,1.61,5.28,5.28,0,0,0,.21,1.59,3.11,3.11,0,0,0,.57,1.07,2.23,2.23,0,0,0,.82.61,2.53,2.53,0,0,0,1,.19,2.43,2.43,0,0,0,1-.2A2.21,2.21,0,0,0,536.84,507.63Z"/><path class="cls-20" d="M552.53,506.92a3,3,0,0,1-1.31,2.51,5.89,5.89,0,0,1-3.55,1,10,10,0,0,1-2.26-.23,11.63,11.63,0,0,1-1.81-.58v-2.51h.29a6.21,6.21,0,0,0,1.87,1,6.08,6.08,0,0,0,2,.36,6.29,6.29,0,0,0,.65-.05,2.17,2.17,0,0,0,.65-.14,1.58,1.58,0,0,0,.51-.31.77.77,0,0,0,.2-.56.79.79,0,0,0-.29-.6,2.17,2.17,0,0,0-.85-.38c-.4-.09-.81-.18-1.25-.26a10,10,0,0,1-1.23-.31,3.92,3.92,0,0,1-1.9-1.17,2.94,2.94,0,0,1,.73-4.2,5.72,5.72,0,0,1,3.36-.92,10.69,10.69,0,0,1,2,.2,9.44,9.44,0,0,1,1.75.5v2.41h-.29a5.57,5.57,0,0,0-1.55-.85,5.47,5.47,0,0,0-1.87-.34,5,5,0,0,0-.67.05,2.88,2.88,0,0,0-.64.17,1.27,1.27,0,0,0-.47.32.7.7,0,0,0-.2.49.73.73,0,0,0,.32.63,3.47,3.47,0,0,0,1.19.4l1.11.24a9,9,0,0,1,1.14.31,3.71,3.71,0,0,1,1.77,1.07A2.61,2.61,0,0,1,552.53,506.92Z"/><path class="cls-20" d="M565.42,510.21h-2.79l-.72-2.12H558l-.73,2.12H554.6l3.86-10.45h3.1Zm-4.16-4L560,502.44l-1.28,3.74Z"/><path class="cls-20" d="M578.3,510.21h-2.78l-.73-2.12h-3.86l-.73,2.12h-2.72l3.86-10.45h3.1Zm-4.15-4-1.29-3.74-1.28,3.74Z"/><path class="cls-20" d="M589.3,506.92a3,3,0,0,1-1.31,2.51,5.87,5.87,0,0,1-3.55,1,10,10,0,0,1-2.26-.23,12,12,0,0,1-1.81-.58v-2.51h.3a6.43,6.43,0,0,0,3.86,1.39,6.33,6.33,0,0,0,.64-.05,2.1,2.1,0,0,0,.65-.14,1.58,1.58,0,0,0,.51-.31.73.73,0,0,0,.2-.56.79.79,0,0,0-.29-.6,2.1,2.1,0,0,0-.85-.38c-.39-.09-.81-.18-1.25-.26a10.52,10.52,0,0,1-1.23-.31,3.92,3.92,0,0,1-1.9-1.17,2.85,2.85,0,0,1-.58-1.82,2.81,2.81,0,0,1,1.31-2.38,5.78,5.78,0,0,1,3.37-.92,10.77,10.77,0,0,1,2,.2,9.32,9.32,0,0,1,1.74.5v2.41h-.29a5.57,5.57,0,0,0-1.55-.85,5.47,5.47,0,0,0-1.87-.34,5.16,5.16,0,0,0-.67.05,2.88,2.88,0,0,0-.64.17,1.27,1.27,0,0,0-.47.32.69.69,0,0,0-.19.49.73.73,0,0,0,.31.63,3.47,3.47,0,0,0,1.19.4l1.11.24a9,9,0,0,1,1.14.31,3.71,3.71,0,0,1,1.77,1.07A2.61,2.61,0,0,1,589.3,506.92Z"/><polygon class="cls-36" points="576.49 592.35 576.49 573.04 570.22 568.13 516.47 568.13 487.11 568.13 487.11 587.95 487.11 651.25 482.4 652.93 487.11 655.3 516.47 655.3 516.47 643.37 559.88 643.37 559.88 628.52 553.89 625.5 516.47 625.49 516.47 592.35 576.49 592.35"/><polygon id="_路徑_9" data-name="&lt;路徑&gt;" class="cls-38" points="482.4 568.13 482.4 587.41 482.4 652.93 511.25 652.93 511.25 641.31 553.89 641.31 553.89 625.5 511.25 625.5 511.25 587.41 570.22 587.41 570.22 568.13 482.4 568.13"/><rect class="cls-36" x="531.02" y="600.34" width="43.91" height="14.07"/><path class="cls-20" d="M500.18,677.56a5.42,5.42,0,0,1-1.44,4,6,6,0,0,1-7.9,0,6.24,6.24,0,0,1,0-7.95,6.07,6.07,0,0,1,7.9,0A5.43,5.43,0,0,1,500.18,677.56Zm-3.58,2.65a3.13,3.13,0,0,0,.59-1.13,5.68,5.68,0,0,0,.19-1.52,5.28,5.28,0,0,0-.22-1.6,3.27,3.27,0,0,0-.57-1.07,2.18,2.18,0,0,0-.82-.61,2.52,2.52,0,0,0-1-.19,2.56,2.56,0,0,0-1,.18,2.15,2.15,0,0,0-.83.61,2.75,2.75,0,0,0-.57,1.08,5.16,5.16,0,0,0-.22,1.6,5.28,5.28,0,0,0,.21,1.59,3.08,3.08,0,0,0,.56,1.07,2.13,2.13,0,0,0,.83.61,2.53,2.53,0,0,0,2,0A2.06,2.06,0,0,0,496.6,680.21Z"/><path class="cls-20" d="M513.43,682.78h-3.29L507.29,679h-1.24v3.83h-2.68V672.34h4.51a10.6,10.6,0,0,1,1.6.1,3.38,3.38,0,0,1,1.25.46,2.52,2.52,0,0,1,1.28,2.31,3.06,3.06,0,0,1-.54,1.88,4.06,4.06,0,0,1-1.53,1.22Zm-4.21-7.25a1.3,1.3,0,0,0-.16-.67,1,1,0,0,0-.55-.44,2,2,0,0,0-.64-.14l-.85,0h-1v2.81h.82A8.38,8.38,0,0,0,508,677a1.5,1.5,0,0,0,.72-.29,1.35,1.35,0,0,0,.42-.48A1.75,1.75,0,0,0,509.22,675.53Z"/><path class="cls-20" d="M526.45,682.78h-2.68v-7l-1.94,4.54H520L518,675.79v7H515.5V672.34h3.12l2.36,5.24,2.34-5.24h3.13Z"/><path class="cls-20" d="M540.41,677.56a5.46,5.46,0,0,1-1.43,4,6.06,6.06,0,0,1-7.91,0,6.24,6.24,0,0,1,0-7.95,6.07,6.07,0,0,1,7.9,0A5.43,5.43,0,0,1,540.41,677.56Zm-3.57,2.65a3.27,3.27,0,0,0,.58-1.13,5.3,5.3,0,0,0,.19-1.52,5,5,0,0,0-.22-1.6,2.93,2.93,0,0,0-.57-1.07,2.18,2.18,0,0,0-.82-.61,2.5,2.5,0,0,0-1-.19,2.61,2.61,0,0,0-1,.18,2.15,2.15,0,0,0-.83.61,3,3,0,0,0-.57,1.08,5.16,5.16,0,0,0-.22,1.6,5.28,5.28,0,0,0,.21,1.59,2.93,2.93,0,0,0,.57,1.07,2,2,0,0,0,.82.61,2.54,2.54,0,0,0,1,.2,2.61,2.61,0,0,0,1-.2A2.21,2.21,0,0,0,536.84,680.21Z"/><path class="cls-20" d="M552.53,679.5a3,3,0,0,1-1.31,2.51,5.89,5.89,0,0,1-3.55,1,9.42,9.42,0,0,1-2.26-.23,10.66,10.66,0,0,1-1.81-.58v-2.5h.29a6.18,6.18,0,0,0,1.87,1,6.08,6.08,0,0,0,2,.36,5.86,5.86,0,0,0,.65,0,2.53,2.53,0,0,0,.65-.14,1.44,1.44,0,0,0,.51-.32.73.73,0,0,0,.2-.56.77.77,0,0,0-.29-.59,2,2,0,0,0-.85-.38c-.4-.1-.81-.18-1.25-.27a8.5,8.5,0,0,1-1.23-.31,3.84,3.84,0,0,1-1.9-1.16,2.94,2.94,0,0,1,.73-4.2,5.65,5.65,0,0,1,3.36-.92,9.94,9.94,0,0,1,2,.2,9.44,9.44,0,0,1,1.75.5v2.4h-.29a5.82,5.82,0,0,0-1.55-.84,5.24,5.24,0,0,0-1.87-.34,5,5,0,0,0-.67,0,2.45,2.45,0,0,0-.64.18,1.16,1.16,0,0,0-.47.32.69.69,0,0,0-.2.48.74.74,0,0,0,.32.64,3.47,3.47,0,0,0,1.19.4l1.11.23c.35.08.73.18,1.14.31a3.79,3.79,0,0,1,1.77,1.07A2.64,2.64,0,0,1,552.53,679.5Z"/><path class="cls-20" d="M565.42,682.78h-2.79l-.72-2.11H558l-.73,2.11H554.6l3.86-10.44h3.1Zm-4.16-4L560,675l-1.28,3.75Z"/><path class="cls-20" d="M578.3,682.78h-2.78l-.73-2.11h-3.86l-.73,2.11h-2.72l3.86-10.44h3.1Zm-4.15-4L572.86,675l-1.28,3.75Z"/><path class="cls-20" d="M589.3,679.5A3,3,0,0,1,588,682a5.87,5.87,0,0,1-3.55,1,9.47,9.47,0,0,1-2.26-.23,11,11,0,0,1-1.81-.58v-2.5h.3a6.51,6.51,0,0,0,3.86,1.38,5.84,5.84,0,0,0,.64,0,2.44,2.44,0,0,0,.65-.14,1.44,1.44,0,0,0,.51-.32.7.7,0,0,0,.2-.56.77.77,0,0,0-.29-.59,2,2,0,0,0-.85-.38c-.39-.1-.81-.18-1.25-.27a8.84,8.84,0,0,1-1.23-.31,3.84,3.84,0,0,1-1.9-1.16,2.87,2.87,0,0,1-.58-1.82,2.8,2.8,0,0,1,1.31-2.38,5.71,5.71,0,0,1,3.37-.92,10,10,0,0,1,2,.2,9.32,9.32,0,0,1,1.74.5v2.4h-.29a5.82,5.82,0,0,0-1.55-.84,5.24,5.24,0,0,0-1.87-.34,5.12,5.12,0,0,0-.67,0,2.45,2.45,0,0,0-.64.18,1.16,1.16,0,0,0-.47.32.68.68,0,0,0-.19.48.73.73,0,0,0,.31.64,3.47,3.47,0,0,0,1.19.4l1.11.23c.35.08.73.18,1.14.31a3.79,3.79,0,0,1,1.77,1.07A2.64,2.64,0,0,1,589.3,679.5Z"/><rect class="cls-31" x="830.54" y="427.76" width="46.24" height="14.07"/><path class="cls-39" d="M522.92,69.23a1,1,0,0,0-1,1v45a1,1,0,0,0,1,1h15V109.8h23.64V101H537.92V79.92h32.69v-9.7a1,1,0,0,0-1-1Z"/><rect class="cls-40" x="546.27" y="87.09" width="24.34" height="7.8"/><polyline class="cls-20" points="538.9 192 538.9 185.57 562.5 185.57 562.5 176.83 538.9 176.83 538.9 155.75 571.53 155.75 571.53 145.08 522.95 145.08 522.95 155.75 522.95 192"/><rect class="cls-20" x="547.24" y="162.9" width="24.29" height="7.78"/><path class="cls-20" d="M603.78,88.3h-9.87v4h9.15v4.15h-9.15v9.17H588.4V84.15h15.38Z"/><path class="cls-20" d="M632.46,94.89a11.2,11.2,0,0,1-2.94,8.16,12.43,12.43,0,0,1-16.24,0,11.2,11.2,0,0,1-2.94-8.16,11.2,11.2,0,0,1,2.94-8.18,12.48,12.48,0,0,1,16.23,0A11.17,11.17,0,0,1,632.46,94.89Zm-7.33,5.44A6.34,6.34,0,0,0,626.32,98a11.27,11.27,0,0,0,.39-3.14,10.87,10.87,0,0,0-.44-3.29,6.48,6.48,0,0,0-1.17-2.19,4.34,4.34,0,0,0-1.7-1.25,5.37,5.37,0,0,0-4,0,4.73,4.73,0,0,0-1.71,1.24,6.22,6.22,0,0,0-1.18,2.23,10.91,10.91,0,0,0-.45,3.29,10.73,10.73,0,0,0,.44,3.27,6.44,6.44,0,0,0,1.16,2.2,4.27,4.27,0,0,0,1.69,1.25,5.23,5.23,0,0,0,4.06,0A4.52,4.52,0,0,0,625.13,100.33Z"/><path class="cls-20" d="M659.69,105.62h-6.76l-5.84-7.87h-2.56v7.87H639V84.15h9.28a20.5,20.5,0,0,1,3.27.22,7,7,0,0,1,2.57.94,5.52,5.52,0,0,1,1.92,1.86,5.35,5.35,0,0,1,.72,2.88,6.35,6.35,0,0,1-1.11,3.88,8.24,8.24,0,0,1-3.14,2.49Zm-8.64-14.89a2.78,2.78,0,0,0-.33-1.39,2.28,2.28,0,0,0-1.14-.91,4.45,4.45,0,0,0-1.31-.28c-.5,0-1.08-.05-1.74-.05h-2v5.79h1.7a17,17,0,0,0,2.22-.13,3.25,3.25,0,0,0,1.5-.6,2.84,2.84,0,0,0,.84-1A3.3,3.3,0,0,0,651.05,90.73Z"/><path class="cls-20" d="M686.44,105.62h-5.51V91.25l-4,9.33h-3.82l-4-9.33v14.37h-5.22V84.15h6.43l4.83,10.77L680,84.15h6.43Z"/><path class="cls-20" d="M715.12,94.89a11.2,11.2,0,0,1-2.94,8.16,12.44,12.44,0,0,1-16.25,0A11.2,11.2,0,0,1,693,94.89a11.2,11.2,0,0,1,2.94-8.18,12.48,12.48,0,0,1,16.23,0A11.17,11.17,0,0,1,715.12,94.89Zm-7.34,5.44A6.35,6.35,0,0,0,709,98a11.27,11.27,0,0,0,.39-3.14,10.55,10.55,0,0,0-.45-3.29,6.48,6.48,0,0,0-1.17-2.19,4.31,4.31,0,0,0-1.69-1.25,5.4,5.4,0,0,0-4,0,4.73,4.73,0,0,0-1.71,1.24,6.07,6.07,0,0,0-1.17,2.23,10.91,10.91,0,0,0-.45,3.29,10.76,10.76,0,0,0,.43,3.27,6.45,6.45,0,0,0,1.17,2.2,4.31,4.31,0,0,0,1.68,1.25,5.26,5.26,0,0,0,4.07,0A4.49,4.49,0,0,0,707.78,100.33Z"/><path class="cls-20" d="M740,98.87a6.12,6.12,0,0,1-2.68,5.16,12.09,12.09,0,0,1-7.3,2,19.94,19.94,0,0,1-4.65-.47,23.7,23.7,0,0,1-3.71-1.19V99.21h.6a12.79,12.79,0,0,0,3.84,2.1,11.14,11.14,0,0,0,5.41.65,5.26,5.26,0,0,0,1.35-.29,3.24,3.24,0,0,0,1-.65,1.52,1.52,0,0,0,.41-1.15,1.56,1.56,0,0,0-.6-1.22,4.13,4.13,0,0,0-1.75-.78c-.81-.2-1.66-.38-2.56-.55a18.33,18.33,0,0,1-2.53-.64A8,8,0,0,1,723,94.3a5.9,5.9,0,0,1-1.19-3.75,5.75,5.75,0,0,1,2.69-4.89,11.7,11.7,0,0,1,6.91-1.9,21.72,21.72,0,0,1,4.19.41,20.07,20.07,0,0,1,3.58,1v5h-.59a11.42,11.42,0,0,0-3.18-1.74,11,11,0,0,0-3.84-.7,8.93,8.93,0,0,0-1.37.1,5.35,5.35,0,0,0-1.32.35,2.4,2.4,0,0,0-1,.66,1.41,1.41,0,0,0-.4,1,1.46,1.46,0,0,0,.65,1.3,7.09,7.09,0,0,0,2.45.83l2.27.48a23.09,23.09,0,0,1,2.34.63,7.82,7.82,0,0,1,3.64,2.2A5.42,5.42,0,0,1,740,98.87Z"/><path class="cls-20" d="M766.5,105.62h-5.72l-1.49-4.34h-7.94l-1.5,4.34h-5.58l7.93-21.47h6.37ZM758,97.35l-2.64-7.7-2.64,7.7Z"/><path class="cls-20" d="M793,105.62h-5.72l-1.5-4.34h-7.94l-1.49,4.34h-5.58l7.93-21.47h6.37Zm-8.55-8.27-2.64-7.7-2.64,7.7Z"/><path class="cls-20" d="M815.57,98.87a6.12,6.12,0,0,1-2.68,5.16,12.1,12.1,0,0,1-7.31,2,19.91,19.91,0,0,1-4.64-.47,23.82,23.82,0,0,1-3.72-1.19V99.21h.61a12.79,12.79,0,0,0,3.84,2.1,11.14,11.14,0,0,0,5.41.65,5.08,5.08,0,0,0,1.34-.29,3.18,3.18,0,0,0,1.05-.65,1.52,1.52,0,0,0,.41-1.15,1.56,1.56,0,0,0-.6-1.22,4.13,4.13,0,0,0-1.75-.78c-.81-.2-1.66-.38-2.56-.55a18.33,18.33,0,0,1-2.53-.64,8,8,0,0,1-3.9-2.38,5.9,5.9,0,0,1-1.19-3.75A5.75,5.75,0,0,1,800,85.66a11.68,11.68,0,0,1,6.91-1.9,21.72,21.72,0,0,1,4.19.41,20.32,20.32,0,0,1,3.58,1v5h-.59A11.42,11.42,0,0,0,811,88.41a11,11,0,0,0-3.84-.7,8.93,8.93,0,0,0-1.37.1,5.35,5.35,0,0,0-1.32.35,2.4,2.4,0,0,0-1,.66,1.41,1.41,0,0,0-.4,1,1.46,1.46,0,0,0,.65,1.3,7.09,7.09,0,0,0,2.45.83l2.27.48a23.09,23.09,0,0,1,2.34.63,7.82,7.82,0,0,1,3.64,2.2A5.42,5.42,0,0,1,815.57,98.87Z"/><path class="cls-20" d="M606.21,160.33h-9.87v4h9.15v4.15h-9.15v9.18h-5.51V156.17h15.38Z"/><path class="cls-20" d="M634.89,166.92a11.18,11.18,0,0,1-2.94,8.15c-2,2-4.67,3-8.13,3s-6.16-1-8.12-3a12.82,12.82,0,0,1,0-16.34,12.48,12.48,0,0,1,16.23,0A11.2,11.2,0,0,1,634.89,166.92Zm-7.34,5.43a6.35,6.35,0,0,0,1.2-2.31,11.27,11.27,0,0,0,.39-3.14,10.55,10.55,0,0,0-.45-3.29,6.48,6.48,0,0,0-1.17-2.19,4.41,4.41,0,0,0-1.69-1.25,5.4,5.4,0,0,0-4,0,4.73,4.73,0,0,0-1.71,1.24,6.15,6.15,0,0,0-1.17,2.23,11,11,0,0,0-.45,3.3,10.69,10.69,0,0,0,.43,3.26,6.36,6.36,0,0,0,1.17,2.2,4.44,4.44,0,0,0,1.68,1.26,5.21,5.21,0,0,0,2,.4,5.27,5.27,0,0,0,2-.41A4.39,4.39,0,0,0,627.55,172.35Z"/><path class="cls-20" d="M662.12,177.65h-6.77l-5.83-7.88H647v7.88h-5.5V156.17h9.28a21.74,21.74,0,0,1,3.27.22,7.24,7.24,0,0,1,2.57.94,5.64,5.64,0,0,1,1.92,1.87,5.29,5.29,0,0,1,.71,2.87,6.35,6.35,0,0,1-1.1,3.88,8.31,8.31,0,0,1-3.15,2.5Zm-8.64-14.9a2.71,2.71,0,0,0-.33-1.38,2.18,2.18,0,0,0-1.14-.91,3.89,3.89,0,0,0-1.31-.28c-.5,0-1.08-.05-1.75-.05h-2v5.78h1.7a16.78,16.78,0,0,0,2.22-.13,3.27,3.27,0,0,0,1.5-.59,2.75,2.75,0,0,0,.84-1A3.26,3.26,0,0,0,653.48,162.75Z"/><path class="cls-20" d="M688.86,177.65h-5.5V163.27l-4,9.33h-3.82l-4-9.33v14.38h-5.22V156.17h6.43L677.62,167l4.82-10.78h6.42Z"/><path class="cls-20" d="M717.55,166.92a11.18,11.18,0,0,1-2.94,8.15c-2,2-4.67,3-8.13,3s-6.16-1-8.12-3a12.82,12.82,0,0,1,0-16.34,12.48,12.48,0,0,1,16.23,0A11.2,11.2,0,0,1,717.55,166.92Zm-7.34,5.43a6.35,6.35,0,0,0,1.2-2.31,11.3,11.3,0,0,0,.38-3.14,10.57,10.57,0,0,0-.44-3.29,6.48,6.48,0,0,0-1.17-2.19,4.41,4.41,0,0,0-1.69-1.25,5.4,5.4,0,0,0-4,0,4.73,4.73,0,0,0-1.71,1.24,6.15,6.15,0,0,0-1.17,2.23,12.18,12.18,0,0,0,0,6.56,6.35,6.35,0,0,0,1.16,2.2,4.39,4.39,0,0,0,1.69,1.26,5.29,5.29,0,0,0,4.06,0A4.35,4.35,0,0,0,710.21,172.35Z"/><path class="cls-20" d="M742.45,170.9a6.13,6.13,0,0,1-2.69,5.15,12,12,0,0,1-7.3,2,20.54,20.54,0,0,1-4.65-.46,24.8,24.8,0,0,1-3.71-1.19v-5.15h.61a12.79,12.79,0,0,0,3.84,2.1,12.51,12.51,0,0,0,4.08.74A12.79,12.79,0,0,0,734,174a4.71,4.71,0,0,0,1.34-.29,3.39,3.39,0,0,0,1.05-.64,1.67,1.67,0,0,0-.19-2.38,4.13,4.13,0,0,0-1.75-.78c-.81-.19-1.66-.37-2.56-.54a19.87,19.87,0,0,1-2.53-.65,7.9,7.9,0,0,1-3.9-2.38,5.87,5.87,0,0,1-1.19-3.74,5.78,5.78,0,0,1,2.69-4.9,11.75,11.75,0,0,1,6.91-1.89,21,21,0,0,1,4.19.41,18.74,18.74,0,0,1,3.58,1v4.94H741a11.43,11.43,0,0,0-3.18-1.73,10.82,10.82,0,0,0-3.84-.7,10.66,10.66,0,0,0-1.38.09,5.6,5.6,0,0,0-1.32.35,2.66,2.66,0,0,0-1,.66,1.44,1.44,0,0,0-.41,1,1.52,1.52,0,0,0,.65,1.31A7.4,7.4,0,0,0,733,164l2.27.47c.73.16,1.51.37,2.35.64a7.87,7.87,0,0,1,3.64,2.19A5.45,5.45,0,0,1,742.45,170.9Z"/><path class="cls-20" d="M768.93,177.65h-5.72l-1.49-4.34h-8l-1.49,4.34H746.7l7.93-21.48H761Zm-8.55-8.28-2.64-7.69-2.64,7.69Z"/><path class="cls-20" d="M795.4,177.65h-5.71l-1.5-4.34h-7.94l-1.5,4.34h-5.58l7.93-21.48h6.37Zm-8.54-8.28-2.64-7.69-2.64,7.69Z"/><path class="cls-20" d="M818,170.9a6.13,6.13,0,0,1-2.69,5.15,12,12,0,0,1-7.3,2,20.54,20.54,0,0,1-4.65-.46,24.8,24.8,0,0,1-3.71-1.19v-5.15h.61a12.79,12.79,0,0,0,3.84,2.1,12.46,12.46,0,0,0,4.08.74,12.79,12.79,0,0,0,1.33-.09,4.79,4.79,0,0,0,1.34-.29,3.39,3.39,0,0,0,1-.64,1.67,1.67,0,0,0-.19-2.38,4.13,4.13,0,0,0-1.75-.78c-.81-.19-1.66-.37-2.56-.54a19.87,19.87,0,0,1-2.53-.65,7.9,7.9,0,0,1-3.9-2.38,5.87,5.87,0,0,1-1.19-3.74,5.78,5.78,0,0,1,2.69-4.9,11.73,11.73,0,0,1,6.91-1.89,21,21,0,0,1,4.19.41,18.74,18.74,0,0,1,3.58,1v4.94h-.59a11.43,11.43,0,0,0-3.18-1.73,10.82,10.82,0,0,0-3.84-.7,10.66,10.66,0,0,0-1.38.09,5.6,5.6,0,0,0-1.32.35,2.66,2.66,0,0,0-1,.66,1.44,1.44,0,0,0-.41,1,1.52,1.52,0,0,0,.65,1.31,7.4,7.4,0,0,0,2.45.83l2.27.47c.73.16,1.51.37,2.35.64a7.87,7.87,0,0,1,3.64,2.19A5.45,5.45,0,0,1,818,170.9Z"/></g></g></svg>