<svg id="圖層_1" data-name="圖層 1" xmlns="http://www.w3.org/2000/svg" xmlns:xlink="http://www.w3.org/1999/xlink" width="600" height="400" viewBox="0 0 600 400"><defs><style>.cls-1{fill:none;}.cls-2{fill:url(#未命名漸層_431);}.cls-3{clip-path:url(#clip-path);}.cls-4,.cls-5,.cls-6{opacity:0.2;}.cls-4{fill:url(#未命名漸層_588);}.cls-5{fill:url(#未命名漸層_588-2);}.cls-6{fill:url(#未命名漸層_588-3);}.cls-7{fill:#fff;}</style><linearGradient id="未命名漸層_431" x1="-58.54" y1="206.57" x2="637.46" y2="206.57" gradientUnits="userSpaceOnUse"><stop offset="0" stop-color="#69ffc2"/><stop offset="0.37" stop-color="#3bd1c8"/><stop offset="0.85" stop-color="#049ad0"/></linearGradient><clipPath id="clip-path"><rect class="cls-1" x="-58.54" y="2.8" width="686.7" height="406.27"/></clipPath><linearGradient id="未命名漸層_588" x1="588.83" y1="167.51" x2="575.3" y2="394.2" gradientUnits="userSpaceOnUse"><stop offset="0" stop-color="#69ffc2"/><stop offset="0.28" stop-color="#049ad0"/><stop offset="0.4" stop-color="#049ad0" stop-opacity="0.98"/><stop offset="0.5" stop-color="#059bd0" stop-opacity="0.93"/><stop offset="0.6" stop-color="#069cd0" stop-opacity="0.85"/><stop offset="0.69" stop-color="#089ecf" stop-opacity="0.73"/><stop offset="0.78" stop-color="#0aa0cf" stop-opacity="0.58"/><stop offset="0.86" stop-color="#0da3cf" stop-opacity="0.39"/><stop offset="0.94" stop-color="#10a6ce" stop-opacity="0.17"/><stop offset="1" stop-color="#12a8ce" stop-opacity="0"/></linearGradient><linearGradient id="未命名漸層_588-2" x1="-140.27" y1="310.75" x2="5.78" y2="409.42" xlink:href="#未命名漸層_588"/><linearGradient id="未命名漸層_588-3" x1="574.78" y1="221.72" x2="358.98" y2="363.54" xlink:href="#未命名漸層_588"/></defs><title>formosaas_index</title><rect class="cls-2" x="-58.54" y="-3.93" width="696" height="421"/><g class="cls-3"><path class="cls-4" d="M294.33,427.07,538.72,185.32a35.6,35.6,0,0,1,49-.92L852.34,427.07Z"/><path class="cls-5" d="M-333,509.07,17.6,162.24a75.7,75.7,0,0,1,104.23-2L502.15,509.07Z"/><path class="cls-6" d="M-96,438.58,296.18,50.64a47.13,47.13,0,0,1,64.9-1.22L785.42,438.58Z"/></g><path class="cls-7" d="M308.6,185.52l13.94-13.79a6.75,6.75,0,0,1,9.4-.11l53.79,51.7H354.12Z"/><path id="_路徑_" data-name="&lt;路徑&gt;" class="cls-7" d="M264.13,162.62a6.9,6.9,0,0,0-9.64.92l-3.81,4.54-48.8,55.24H228l10-11.87,15,11.87h19.49L246.8,202.2l15.26-18.08a5,5,0,0,1,7-.61l47.46,39.81H338.8Z"/><path class="cls-7" d="M287.64,223.32,262.81,202.5a1.52,1.52,0,0,1-.18-2.13l4-4.8a1.52,1.52,0,0,1,2.13-.19l33.31,27.94Z"/><path class="cls-7" d="M209.7,236.89h-8.1v3.27h7.51v3.41H201.6v7.52h-4.52V233.48H209.7Z"/><path class="cls-7" d="M233.24,242.29a9.17,9.17,0,0,1-2.42,6.69,10.2,10.2,0,0,1-13.33,0,10.52,10.52,0,0,1,0-13.4,10.21,10.21,0,0,1,13.32,0A9.14,9.14,0,0,1,233.24,242.29Zm-6,4.46a5.44,5.44,0,0,0,1-1.9,9.3,9.3,0,0,0,.32-2.57,8.8,8.8,0,0,0-.37-2.7,5,5,0,0,0-1-1.79,3.44,3.44,0,0,0-1.39-1,4.17,4.17,0,0,0-1.64-.32,4.4,4.4,0,0,0-1.62.3,3.85,3.85,0,0,0-1.4,1,4.92,4.92,0,0,0-1,1.83,8.86,8.86,0,0,0-.37,2.7,8.73,8.73,0,0,0,.36,2.68,5.27,5.27,0,0,0,1,1.8,3.64,3.64,0,0,0,1.39,1,4.24,4.24,0,0,0,1.66.33,4.29,4.29,0,0,0,1.67-.33A3.8,3.8,0,0,0,227.22,246.75Z"/><path class="cls-7" d="M255.57,251.09H250l-4.79-6.46h-2.11v6.46h-4.52V233.48h7.62a17.11,17.11,0,0,1,2.68.18,5.71,5.71,0,0,1,2.11.77A4.54,4.54,0,0,1,252.6,236a4.39,4.39,0,0,1,.58,2.36,5.25,5.25,0,0,1-.9,3.18,6.85,6.85,0,0,1-2.58,2.05Zm-7.08-12.22a2.22,2.22,0,0,0-.27-1.13,1.82,1.82,0,0,0-.94-.75,3.6,3.6,0,0,0-1.07-.23c-.41,0-.89,0-1.43,0h-1.65v4.74h1.4a13.32,13.32,0,0,0,1.82-.1,2.62,2.62,0,0,0,1.23-.49,2.37,2.37,0,0,0,.69-.81A2.63,2.63,0,0,0,248.49,238.87Z"/><path class="cls-7" d="M277.52,251.09H273V239.3L269.74,247h-3.13l-3.27-7.65v11.79h-4.28V233.48h5.27l4,8.84,3.95-8.84h5.27Z"/><path class="cls-7" d="M301.71,243a9.17,9.17,0,0,1-2.41,6.69,10.2,10.2,0,0,1-13.33,0,10.52,10.52,0,0,1,0-13.4,10.21,10.21,0,0,1,13.32,0A9.13,9.13,0,0,1,301.71,243Zm-6,4.46a5.3,5.3,0,0,0,1-1.9,9.3,9.3,0,0,0,.32-2.57,8.8,8.8,0,0,0-.37-2.7,5.3,5.3,0,0,0-1-1.79,3.44,3.44,0,0,0-1.39-1,4.38,4.38,0,0,0-3.26,0,3.7,3.7,0,0,0-1.4,1,4.92,4.92,0,0,0-1,1.83,8.86,8.86,0,0,0-.37,2.7,8.73,8.73,0,0,0,.36,2.68,5.27,5.27,0,0,0,.95,1.8,3.64,3.64,0,0,0,1.39,1,4.24,4.24,0,0,0,1.66.33,4.29,4.29,0,0,0,1.67-.33A3.69,3.69,0,0,0,295.69,247.41Z"/><path class="cls-7" d="M321.49,245.56a5,5,0,0,1-2.21,4.22,9.85,9.85,0,0,1-6,1.63,17,17,0,0,1-3.81-.38,20.56,20.56,0,0,1-3.05-1v-4.22h.5a10.48,10.48,0,0,0,3.15,1.72,10,10,0,0,0,3.35.61c.28,0,.64,0,1.09-.07a4.43,4.43,0,0,0,1.1-.24,2.79,2.79,0,0,0,.86-.53,1.26,1.26,0,0,0,.34-.95,1.31,1.31,0,0,0-.49-1,3.45,3.45,0,0,0-1.44-.64q-1-.24-2.1-.45a15.42,15.42,0,0,1-2.08-.52,6.55,6.55,0,0,1-3.2-2,4.8,4.8,0,0,1-1-3.07,4.7,4.7,0,0,1,2.2-4,9.63,9.63,0,0,1,5.68-1.56,17.2,17.2,0,0,1,3.43.34,16.53,16.53,0,0,1,2.94.84v4.06h-.49a9,9,0,0,0-2.6-1.42,8.82,8.82,0,0,0-3.15-.58,8.47,8.47,0,0,0-1.13.08,4.5,4.5,0,0,0-1.09.29,2.14,2.14,0,0,0-.79.54,1.17,1.17,0,0,0-.33.82,1.24,1.24,0,0,0,.53,1.07,6.13,6.13,0,0,0,2,.68l1.87.39c.59.13,1.23.3,1.92.52a6.37,6.37,0,0,1,3,1.8A4.41,4.41,0,0,1,321.49,245.56Z"/><path class="cls-7" d="M343.21,251.09h-4.69l-1.23-3.56h-6.51l-1.23,3.56H325l6.51-17.61h5.23Zm-7-6.79L334,238l-2.17,6.31Z"/><path class="cls-7" d="M364.93,251.09h-4.69L359,247.53H352.5l-1.23,3.56H346.7l6.5-17.61h5.23Zm-7-6.79L355.76,238l-2.17,6.31Z"/><path class="cls-7" d="M383.48,245.56a5,5,0,0,1-2.21,4.22,9.85,9.85,0,0,1-6,1.63,17,17,0,0,1-3.81-.38,20.56,20.56,0,0,1-3.05-1v-4.22h.5a10.36,10.36,0,0,0,3.15,1.72,10,10,0,0,0,3.35.61c.28,0,.64,0,1.09-.07a4.43,4.43,0,0,0,1.1-.24,2.79,2.79,0,0,0,.86-.53,1.26,1.26,0,0,0,.33-.95,1.28,1.28,0,0,0-.49-1,3.34,3.34,0,0,0-1.43-.64q-1-.24-2.1-.45a15.42,15.42,0,0,1-2.08-.52,6.55,6.55,0,0,1-3.2-2,4.8,4.8,0,0,1-1-3.07,4.7,4.7,0,0,1,2.2-4,9.59,9.59,0,0,1,5.67-1.56,17.22,17.22,0,0,1,3.44.34,16.53,16.53,0,0,1,2.94.84v4.06h-.49a9.24,9.24,0,0,0-2.61-1.42,8.74,8.74,0,0,0-3.15-.58,8.59,8.59,0,0,0-1.13.08,4.54,4.54,0,0,0-1.08.29,2.06,2.06,0,0,0-.79.54,1.17,1.17,0,0,0-.33.82,1.24,1.24,0,0,0,.53,1.07,6,6,0,0,0,2,.68l1.86.39c.6.13,1.24.3,1.93.52a6.42,6.42,0,0,1,3,1.8A4.46,4.46,0,0,1,383.48,245.56Z"/></svg>