<svg id="圖層_1" data-name="圖層 1" xmlns="http://www.w3.org/2000/svg" xmlns:xlink="http://www.w3.org/1999/xlink" width="100" height="100" viewBox="0 0 100 100"><defs><style>.cls-1{fill:url(#未命名漸層_431);}</style><linearGradient id="未命名漸層_431" x1="30.66" y1="27.84" x2="67.49" y2="79.21" gradientUnits="userSpaceOnUse"><stop offset="0" stop-color="#69ffc2"/><stop offset="0.37" stop-color="#3bd1c8"/><stop offset="0.85" stop-color="#049ad0"/></linearGradient></defs><title>geometry</title><path class="cls-1" d="M59.65,14.33A31.65,31.65,0,0,0,28.17,43.05l-9.68-2-7.6,35.86,35.38,7.49,1.9-8.95A31.61,31.61,0,1,0,59.65,14.33Zm-15,53.58a26.62,26.62,0,0,1-11.4-18.67l14.7,3.11ZM42.41,78.42,16.82,73l5.53-26.07,5.77,1.22a31.62,31.62,0,0,0,15.41,25Zm17.24-5.86a26.45,26.45,0,0,1-10.43-2.13L53.87,48.5,33.1,44.1A26.62,26.62,0,1,1,59.65,72.56Z"/></svg>