<svg id="圖層_1" data-name="圖層 1" xmlns="http://www.w3.org/2000/svg" xmlns:xlink="http://www.w3.org/1999/xlink" width="350" height="300" viewBox="0 0 350 300"><defs><style>.cls-1{fill:url(#未命名漸層_16);}</style><linearGradient id="未命名漸層_16" x1="154.86" y1="177.65" x2="170.28" y2="155.81" gradientUnits="userSpaceOnUse"><stop offset="0" stop-color="#3fc1ff"/><stop offset="0.24" stop-color="#42caf9"/><stop offset="0.64" stop-color="#4be4e8"/><stop offset="0.99" stop-color="#55ffd6"/></linearGradient></defs><title>light</title><path d="M321.84,110.07C309.36,76.52,273.09,52,231,48.41V75.23c31,3.35,57.09,20.7,65.81,44.14,7.81,21,.22,44.29-21.39,65.54-21.48,18.21-31.28,24.1-42.63,30.92L231,216.9v31.53c5.94-3.94,10.8-6.87,15.54-9.72,11.9-7.14,23.13-13.89,46.52-33.75l.69-.63c15.16-14.81,25.21-30.76,29.87-47.41A75.41,75.41,0,0,0,321.84,110.07Z"/><path d="M190.92,47.79c-6.69.58-17.17,6.48-22.65,12.69l-51.18,65.64,3.52,4.43L84.05,84.5C65.5,63.9,47.72,66.58,46.69,66.58a27.46,27.46,0,0,0-2.83.29,1,1,0,0,0-.86,1V232H70V114.18L178,247h27V49.5a1,1,0,0,0-.68-1C202.75,48,198.41,47,190.92,47.79ZM178,202.57l-43.12-54.32L178,93Z"/><polygon class="cls-1" points="178 92.95 134.88 148.25 178 202.57 178 92.95"/></svg>