<svg id="圖層_1" data-name="圖層 1" xmlns="http://www.w3.org/2000/svg" width="64" height="64" viewBox="0 0 64 64"><title>logo_icon</title><path d="M62.94,23.31c-2.81-7.57-11-13.1-20.5-13.92v6.06c7,.76,12.89,4.67,14.85,10,1.77,4.75.05,10-4.82,14.8a60.79,60.79,0,0,1-9.63,7l-.4.24v7.12c1.34-.89,2.44-1.55,3.51-2.2a66.61,66.61,0,0,0,10.5-7.62l.15-.14a24.2,24.2,0,0,0,6.75-10.7A17,17,0,0,0,62.94,23.31Z"/><path d="M33.39,9.52a9.43,9.43,0,0,0-5.11,2.86L16.73,27.2l.79,1L9.27,17.81c-4.19-4.65-8.2-4-8.44-4a5.65,5.65,0,0,0-.64.07.22.22,0,0,0-.19.22V51.1H6.1V24.51l24.38,30h6.09V9.91a.23.23,0,0,0-.15-.22A7.24,7.24,0,0,0,33.39,9.52ZM30.48,44.46,20.74,32.2l9.74-12.49Z"/></svg>