<?xml version="1.0" encoding="UTF-8"?>
<svg width="78px" height="53px" viewBox="0 0 78 53" version="1.1" xmlns="http://www.w3.org/2000/svg" xmlns:xlink="http://www.w3.org/1999/xlink">
    <!-- Generator: Sketch 51.1 (57501) - http://www.bohemiancoding.com/sketch -->
    <title>logo</title>
    <desc>Created with Sketch.</desc>
    <defs>
        <radialGradient cx="50%" cy="10.4223656%" fx="50%" fy="10.4223656%" r="99.4964776%" gradientTransform="translate(0.500000,0.104224),scale(0.679102,1.000000),rotate(90.000000),translate(-0.500000,-0.104224)" id="radialGradient-1">
            <stop stop-color="#269DEF" offset="0%"></stop>
            <stop stop-color="#4CD4BF" offset="100%"></stop>
        </radialGradient>
    </defs>
    <g id="Symbols" stroke="none" stroke-width="1" fill="none" fill-rule="evenodd">
        <g id="hello-" transform="translate(-14.000000, -25.000000)" fill="url(#radialGradient-1)">
            <path d="M14,74.9606799 L25.1664129,35.7949929 C25.3647808,35.0992264 25.9234447,34.5648366 26.6273315,34.3975517 C27.7019691,34.1421545 28.7801754,34.8062801 29.0355726,35.8809177 L33.5774102,54.9916595 C33.6963414,55.4920879 34.0035049,55.927456 34.4350803,56.2073059 C35.3618605,56.8082654 36.6003382,56.5441355 37.2012977,55.6173554 L56.4439927,25.9418976 C56.8127238,25.3732526 57.4443454,25.030031 58.1220767,25.030031 C59.2266462,25.030031 60.1220767,25.9254615 60.1220767,27.030031 L60.1220767,28.4327324 L60.1220767,71.1164594 C73.404073,66.2937395 80.7878545,60.5698976 82.2734211,53.9449338 C84.3798386,44.551253 72.2158195,39.2282791 70.0452257,38.1974427 C66.630086,36.5755592 66.3359306,30.2999407 70.0452257,29.0529667 C73.7545208,27.8059927 94.5293464,40.1129088 91.7439089,55.3658378 C90.0333812,64.7326093 80.954706,72.2773301 64.5078834,78 C60.5176185,77.1328587 56.3033214,76.4063135 51.9079188,75.8372937 L51.9079188,56.2710802 C51.9079188,55.9344105 51.7385038,55.6203401 51.4571569,55.4354338 C50.9956421,55.1321179 50.3756244,55.2603635 50.0723085,55.7218782 L50.0722783,55.7218584 C44.0075849,64.9496831 39.7206702,71.2329764 37.2115342,74.5717384 C34.4321164,74.4472173 31.6061247,74.3832438 28.7422459,74.3832438 C23.694615,74.3832438 18.7646791,74.5819749 14,74.9606799 Z" id="logo"></path>
        </g>
    </g>
</svg>