<svg xmlns="http://www.w3.org/2000/svg" width="1024" height="568" viewBox="0 0 1024 568"><defs><style>.cls-1,.cls-2,.cls-22,.cls-3,.cls-4{fill:#f7f8f8;}.cls-1,.cls-7{stroke:#c4c4c4;}.cls-1,.cls-11,.cls-14,.cls-15,.cls-2,.cls-3,.cls-4,.cls-6,.cls-7,.cls-9{stroke-miterlimit:10;}.cls-1,.cls-11,.cls-14,.cls-15,.cls-3,.cls-4,.cls-9{stroke-width:0.81px;}.cls-15,.cls-2,.cls-4,.cls-6,.cls-9{stroke:#087c4a;}.cls-2{stroke-width:1.62px;}.cls-11,.cls-3{stroke:#ef4926;}.cls-5{font-size:12.95px;letter-spacing:0.1em;}.cls-10,.cls-12,.cls-13,.cls-16,.cls-17,.cls-25,.cls-26,.cls-27,.cls-28,.cls-29,.cls-30,.cls-31,.cls-32,.cls-34,.cls-5,.cls-8{font-family:MicrosoftJhengHeiRegular, Microsoft JhengHei;}.cls-21,.cls-25,.cls-6,.cls-9{fill:#c4c4c4;}.cls-6{stroke-width:2.3px;}.cls-11,.cls-14,.cls-15,.cls-7{fill:none;}.cls-7{stroke-width:0.53px;}.cls-8{font-size:9.71px;letter-spacing:0.1em;}.cls-20,.cls-30,.cls-8{fill:#087c4a;}.cls-10,.cls-12,.cls-13,.cls-16{font-size:9.72px;letter-spacing:0.1em;}.cls-10{fill:#ababab;}.cls-13{fill:#666;}.cls-14{stroke:#ababab;}.cls-16{fill:#1a1a1a;}.cls-17{font-size:17.01px;fill:#4d4d4d;}.cls-18,.cls-31{fill:#ef4926;}.cls-19,.cls-32{fill:#ff8b1e;}.cls-23,.cls-27{fill:#333;}.cls-24,.cls-29{fill:#038065;}.cls-25,.cls-27,.cls-28,.cls-29,.cls-30,.cls-31,.cls-32,.cls-34{font-size:12px;letter-spacing:0.1em;}.cls-26{font-size:14px;fill:gray;letter-spacing:0.1em;}.cls-28,.cls-35{fill:#1e9d6e;}.cls-32{opacity:0.9;}.cls-33,.cls-34{fill:#f4c51e;}</style></defs><title>tw568_style</title><g id="圖層_1" data-name="圖層 1"><rect class="cls-1" x="179.33" y="490.84" width="17.89" height="18.38" rx="2.44" ry="2.44"/><polyline class="cls-2" points="183.99 499.15 188.04 503.2 194.52 496.32"/><rect class="cls-1" x="151.8" y="490.84" width="17.89" height="18.38" rx="2.44" ry="2.44"/><rect class="cls-3" x="210.11" y="490.84" width="17.89" height="18.38" rx="2.44" ry="2.44"/><rect class="cls-1" x="758.73" y="288.15" width="90.71" height="29.16" rx="4.45" ry="4.45"/><rect class="cls-2" x="758.71" y="339.61" width="90.71" height="29.16" rx="4.45" ry="4.45"/><rect class="cls-4" x="759.12" y="386.99" width="90.71" height="29.16" rx="4.45" ry="4.45"/><text class="cls-5"><tspan x="153.63" y="293.95" xml:space="preserve">姓  名</tspan></text><line class="cls-6" x1="150.93" y1="360.91" x2="611.85" y2="360.91"/><line class="cls-7" x1="150.93" y1="302.81" x2="611.85" y2="302.81"/><text class="cls-8" transform="translate(153.63 332.28)">姓　名</text><line class="cls-9" x1="150.93" y1="412.74" x2="611.85" y2="412.74"/><text class="cls-8" transform="translate(153.63 384.11)">姓　名</text><text class="cls-10" transform="translate(212.48 292.64)">請填寫真實名字。</text><text class="cls-5"><tspan x="153.63" y="448.63" xml:space="preserve">姓  名</tspan></text><line class="cls-11" x1="150.93" y1="457.5" x2="611.85" y2="457.5"/><text class="cls-10" transform="translate(212.48 447.33)">請填寫真實名字。</text><text class="cls-12" transform="translate(153.63 400.62)">張xxxx</text><text class="cls-10" transform="translate(154.44 350.14)">請填寫真實名字。</text><text class="cls-13" transform="translate(776.02 305.79)">鄉鎮市區</text><polyline class="cls-14" points="830.48 300.2 834.12 305.26 837.9 300.2"/><text class="cls-13" transform="translate(776.01 357.24)">鄉鎮市區</text><polyline class="cls-15" points="830.46 351.66 834.11 356.72 837.88 351.66"/><text class="cls-16" transform="translate(781.88 404.62)">台北市</text><rect class="cls-1" x="865.36" y="288.15" width="90.71" height="29.16" rx="4.45" ry="4.45"/><rect class="cls-2" x="865.36" y="339.61" width="90.71" height="29.16" rx="4.45" ry="4.45"/><rect class="cls-4" x="865.36" y="386.99" width="90.71" height="29.16" rx="4.45" ry="4.45"/><text class="cls-13" transform="translate(894.67 305.79)">請輸入</text><rect class="cls-3" x="759.12" y="434.77" width="90.71" height="29.16" rx="4.45" ry="4.45"/><text class="cls-13" transform="translate(776.41 451.77)">鄉鎮市區</text><polyline class="cls-11" points="830.87 447.8 834.51 452.86 838.29 447.8"/><rect class="cls-3" x="865.36" y="434.77" width="90.71" height="29.16" rx="4.45" ry="4.45"/><text class="cls-13" transform="translate(894.67 451.77)">請輸入</text><text class="cls-13" transform="translate(894.67 357.24)">請輸入</text><text class="cls-16" transform="translate(894.67 404.62)">請輸入</text><polyline class="cls-15" points="830.87 399.03 834.51 404.1 838.29 399.03"/><text class="cls-17" transform="translate(49.55 301.54)">未填前<tspan x="0" y="49.4">當前填寫</tspan><tspan x="0" y="98.8">已填寫</tspan><tspan x="0" y="148.21">必填未填</tspan></text><rect class="cls-18" x="874.39" y="97.7" width="50.29" height="121.48"/><rect class="cls-19" x="794.39" y="97.7" width="59.98" height="121.48"/><rect class="cls-20" x="663.61" y="97.7" width="115.76" height="121.48"/><rect class="cls-21" x="194.02" y="97.7" width="89.45" height="121.48"/><rect class="cls-22" x="27.5" y="97.7" width="151.5" height="121.48"/><rect class="cls-23" x="298.49" y="97.7" width="139.44" height="121.48"/><rect class="cls-24" x="524.94" y="97.7" width="123.65" height="121.48"/><text class="cls-25" transform="translate(28.31 58.72)">＃F7F8F8</text><text class="cls-26" transform="translate(28.31 81.68)">背景色/輸入框背景色</text><text class="cls-26" transform="matrix(1, 0.01, -0.01, 1, 196.03, 81.36)">邊框/說明文字</text><text class="cls-26" transform="translate(299.66 81.68)">文字/背景色</text><text class="cls-26" transform="translate(457.59 81.65) rotate(0.06)">按鈕色</text><text class="cls-26" transform="translate(530.62 81.68)">文字/按鈕</text><text class="cls-26" transform="translate(668 81.68)">按鈕陰影/完成</text><text class="cls-26" transform="translate(799.53 81.68)">HOVER</text><text class="cls-26" transform="translate(869.03 81.68)">重點/錯誤</text><text class="cls-25" transform="translate(198.35 58.72)">＃F7F8F8</text><text class="cls-27" transform="translate(298.77 58.72)">＃333333</text><text class="cls-28" transform="translate(457.36 58.72)">＃1E9D6E</text><text class="cls-29" transform="translate(530.7 58.72)">＃038065</text><text class="cls-30" transform="translate(668 58.72)">＃087C4A</text><text class="cls-31" transform="translate(869.32 58.72)">＃EF4926</text><text class="cls-32" transform="translate(799.35 58.72)">#FF8B1E</text><rect class="cls-33" x="943.71" y="97.7" width="50.29" height="121.48"/><text class="cls-26" transform="translate(944.62 81.68)">強調</text><text class="cls-34" transform="translate(943.81 58.72)">＃EF4926</text><rect class="cls-35" x="452.95" y="97.7" width="56.96" height="121.48"/><text class="cls-17" transform="translate(674.89 309.89)">未選擇<tspan x="0" y="49.4">HOVER</tspan><tspan x="0" y="98.8">已填寫</tspan><tspan x="0" y="148.21">必填未填</tspan></text><text class="cls-17" transform="translate(48.74 505.88)">勾選框</text></g></svg>