<?xml version="1.0" encoding="UTF-8"?>
<svg width="1129px" height="939px" viewBox="0 0 1129 939" version="1.1" xmlns="http://www.w3.org/2000/svg" xmlns:xlink="http://www.w3.org/1999/xlink">
    <!-- Generator: Sketch 51.2 (57519) - http://www.bohemiancoding.com/sketch -->
    <title>tw568_flowChart</title>
    <desc>Created with Sketch.</desc>
    <defs></defs>
    <g id="tw568_flowChart" stroke="none" stroke-width="1" fill="none" fill-rule="evenodd">
        <g id="tiles/main-page" transform="translate(6.000000, 91.000000)">
            <g id="main-page" transform="translate(-1.000000, 0.000000)">
                <rect id="Rectangle-7" fill="#1787E0" x="0.991735537" y="0" width="120" height="150" rx="5"></rect>
                <path d="M1.99173554,15.9006623 L1.99173554,144.991091 C1.99173554,147.211868 3.78048759,149 5.9952087,149 L115.988262,149 C118.200813,149 119.991736,147.206443 119.991736,144.991091 L119.991736,15.9006623 L1.99173554,15.9006623 Z" id="Rectangle-7" stroke="#1787E0" stroke-width="2" fill="#E4F3FF"></path>
                <ellipse id="Oval-4" fill="#55B4FF" cx="8.42975207" cy="7.45033113" rx="2.47933884" ry="2.48344371"></ellipse>
                <ellipse id="Oval-4" fill="#55B4FF" cx="15.3719008" cy="7.45033113" rx="2.47933884" ry="2.48344371"></ellipse>
                <ellipse id="Oval-4" fill="#55B4FF" cx="22.3140496" cy="7.45033113" rx="2.47933884" ry="2.48344371"></ellipse>
                <text id="Page-Title" font-family="PingFangTC-Regular, PingFang TC" font-size="18" font-weight="normal" letter-spacing="0.2166667" fill="#1787E0">
                    <tspan x="42.2792011" y="86.5165563">首頁</tspan>
                </text>
            </g>
        </g>
        <g id="tiles/inner-page" transform="translate(939.000000, 179.000000)">
            <g id="inner-page">
                <rect id="Rectangle-7" fill="#1787E0" x="0" y="0" width="120" height="150" rx="5"></rect>
                <path d="M0,7 L120,7 L120,144.994403 C120,147.758918 117.762654,150 114.996527,150 L5.00347316,150 C2.24013124,150 0,147.753811 0,144.994403 L0,7 Z" id="Rectangle-7-Copy" fill="#E4F3FF"></path>
                <ellipse id="Oval-4" fill="#55B4FF" cx="4.21487603" cy="3.72516556" rx="1.23966942" ry="1.24172185"></ellipse>
                <ellipse id="Oval-4" fill="#55B4FF" cx="7.68595041" cy="3.72516556" rx="1.23966942" ry="1.24172185"></ellipse>
                <ellipse id="Oval-4" fill="#55B4FF" cx="11.1570248" cy="3.72516556" rx="1.23966942" ry="1.24172185"></ellipse>
                <text id="Subpage" font-family="PingFangTC-Regular, PingFang TC" font-size="14" font-weight="normal" letter-spacing="0.142592639" fill="#1787E0">
                    <tspan x="31.7148147" y="86.0540541">方案比較</tspan>
                </text>
            </g>
        </g>
        <g id="tiles/modal" transform="translate(651.000000, 443.000000)">
            <g id="modal">
                <rect id="Rectangle-8" stroke="#1787E0" fill="#E4F3FF" x="0.5" y="0.5" width="119" height="149" rx="5"></rect>
                <path d="M108.351276,14.237406 L109.540482,13.0482 C110.178508,12.410174 111.202598,12.4098762 111.834054,13.0413321 C112.469912,13.6771904 112.462435,14.6996551 111.827186,15.334904 L110.63798,16.52411 L111.827186,17.7133161 C112.462435,18.348565 112.469912,19.3710297 111.834054,20.006888 C111.202598,20.6383439 110.178508,20.6380461 109.540482,20.0000201 L108.351276,18.8108141 L107.16207,20.0000201 C106.524044,20.6380461 105.499954,20.6383439 104.868498,20.006888 C104.23264,19.3710297 104.240117,18.348565 104.875366,17.7133161 L106.064572,16.52411 L104.875366,15.334904 C104.240117,14.6996551 104.23264,13.6771904 104.868498,13.0413321 C105.499954,12.4098762 106.524044,12.410174 107.16207,13.0482 L108.351276,14.237406 Z" id="Combined-Shape-Copy" fill="#1787E0"></path>
                <text id="Modal" font-family="PingFangTC-Regular, PingFang TC" font-size="14" font-weight="normal" letter-spacing="0.1833334" fill="#1787E0">
                    <tspan x="31.6333332" y="80.125">快速註冊</tspan>
                </text>
            </g>
        </g>
        <g id="tiles/inner-page" transform="translate(92.000000, 624.000000)">
            <g id="inner-page">
                <rect id="Rectangle-7" fill="#1787E0" x="0" y="0" width="120" height="150" rx="5"></rect>
                <path d="M0,7 L120,7 L120,144.994403 C120,147.758918 117.762654,150 114.996527,150 L5.00347316,150 C2.24013124,150 0,147.753811 0,144.994403 L0,7 Z" id="Rectangle-7-Copy" fill="#E4F3FF"></path>
                <ellipse id="Oval-4" fill="#55B4FF" cx="4.21487603" cy="3.72516556" rx="1.23966942" ry="1.24172185"></ellipse>
                <ellipse id="Oval-4" fill="#55B4FF" cx="7.68595041" cy="3.72516556" rx="1.23966942" ry="1.24172185"></ellipse>
                <ellipse id="Oval-4" fill="#55B4FF" cx="11.1570248" cy="3.72516556" rx="1.23966942" ry="1.24172185"></ellipse>
                <text id="Subpage" font-family="PingFangTC-Regular, PingFang TC" font-size="14" font-weight="normal" letter-spacing="0.142592639" fill="#1787E0">
                    <tspan x="31.7148147" y="86.0540541">填寫收寄</tspan>
                    <tspan x="38.786111" y="106.054054">件資料</tspan>
                </text>
            </g>
        </g>
        <g id="tiles/inner-page" transform="translate(280.000000, 783.000000)">
            <g id="inner-page">
                <rect id="Rectangle-7" fill="#1787E0" x="0" y="0" width="120" height="150" rx="5"></rect>
                <path d="M0,7 L120,7 L120,144.994403 C120,147.758918 117.762654,150 114.996527,150 L5.00347316,150 C2.24013124,150 0,147.753811 0,144.994403 L0,7 Z" id="Rectangle-7-Copy" fill="#E4F3FF"></path>
                <ellipse id="Oval-4" fill="#55B4FF" cx="4.21487603" cy="3.72516556" rx="1.23966942" ry="1.24172185"></ellipse>
                <ellipse id="Oval-4" fill="#55B4FF" cx="7.68595041" cy="3.72516556" rx="1.23966942" ry="1.24172185"></ellipse>
                <ellipse id="Oval-4" fill="#55B4FF" cx="11.1570248" cy="3.72516556" rx="1.23966942" ry="1.24172185"></ellipse>
                <text id="Subpage" font-family="PingFangTC-Regular, PingFang TC" font-size="14" font-weight="normal" letter-spacing="0.142592639" fill="#1787E0">
                    <tspan x="31.7148147" y="86.0540541">確認資料</tspan>
                    <tspan x="38.786111" y="106.054054">與金額</tspan>
                </text>
            </g>
        </g>
        <g id="tiles/inner-page" transform="translate(469.000000, 783.000000)">
            <g id="inner-page">
                <rect id="Rectangle-7" fill="#1787E0" x="0" y="0" width="120" height="150" rx="5"></rect>
                <path d="M0,7 L120,7 L120,144.994403 C120,147.758918 117.762654,150 114.996527,150 L5.00347316,150 C2.24013124,150 0,147.753811 0,144.994403 L0,7 Z" id="Rectangle-7-Copy" fill="#E4F3FF"></path>
                <ellipse id="Oval-4" fill="#55B4FF" cx="4.21487603" cy="3.72516556" rx="1.23966942" ry="1.24172185"></ellipse>
                <ellipse id="Oval-4" fill="#55B4FF" cx="7.68595041" cy="3.72516556" rx="1.23966942" ry="1.24172185"></ellipse>
                <ellipse id="Oval-4" fill="#55B4FF" cx="11.1570248" cy="3.72516556" rx="1.23966942" ry="1.24172185"></ellipse>
                <text id="Subpage" font-family="PingFangTC-Regular, PingFang TC" font-size="14" font-weight="normal" letter-spacing="0.142592639" fill="#1787E0">
                    <tspan x="31.7148147" y="86.0540541">選擇付款</tspan>
                    <tspan x="45.8574074" y="106.054054">方式</tspan>
                </text>
            </g>
        </g>
        <g id="tiles/main-page" transform="translate(985.000000, 783.000000)">
            <g id="main-page" transform="translate(-1.000000, 0.000000)">
                <rect id="Rectangle-7" fill="#1787E0" x="0.991735537" y="0" width="120" height="150" rx="5"></rect>
                <path d="M1.99173554,15.9006623 L1.99173554,144.991091 C1.99173554,147.211868 3.78048759,149 5.9952087,149 L115.988262,149 C118.200813,149 119.991736,147.206443 119.991736,144.991091 L119.991736,15.9006623 L1.99173554,15.9006623 Z" id="Rectangle-7" stroke="#1787E0" stroke-width="2" fill="#E4F3FF"></path>
                <ellipse id="Oval-4" fill="#55B4FF" cx="8.42975207" cy="7.45033113" rx="2.47933884" ry="2.48344371"></ellipse>
                <ellipse id="Oval-4" fill="#55B4FF" cx="15.3719008" cy="7.45033113" rx="2.47933884" ry="2.48344371"></ellipse>
                <ellipse id="Oval-4" fill="#55B4FF" cx="22.3140496" cy="7.45033113" rx="2.47933884" ry="2.48344371"></ellipse>
                <text id="Page-Title" font-family="PingFangTC-Regular, PingFang TC" font-size="18" font-weight="normal" letter-spacing="0.2166667" fill="#1787E0">
                    <tspan x="24.0625344" y="86.5165563">訂單完成</tspan>
                </text>
            </g>
        </g>
        <g id="tiles/inner-page" transform="translate(489.000000, 12.000000)">
            <g id="inner-page">
                <rect id="Rectangle-7" fill="#1787E0" x="0" y="0" width="120" height="150" rx="5"></rect>
                <path d="M0,7 L120,7 L120,144.994403 C120,147.758918 117.762654,150 114.996527,150 L5.00347316,150 C2.24013124,150 0,147.753811 0,144.994403 L0,7 Z" id="Rectangle-7-Copy" fill="#E4F3FF"></path>
                <ellipse id="Oval-4" fill="#55B4FF" cx="4.21487603" cy="3.72516556" rx="1.23966942" ry="1.24172185"></ellipse>
                <ellipse id="Oval-4" fill="#55B4FF" cx="7.68595041" cy="3.72516556" rx="1.23966942" ry="1.24172185"></ellipse>
                <ellipse id="Oval-4" fill="#55B4FF" cx="11.1570248" cy="3.72516556" rx="1.23966942" ry="1.24172185"></ellipse>
                <text id="Subpage" font-family="PingFangTC-Regular, PingFang TC" font-size="14" font-weight="normal" letter-spacing="0.142592639" fill="#1787E0">
                    <tspan x="31.7148147" y="86.0540541">查詢貨況</tspan>
                </text>
            </g>
        </g>
        <g id="處理程序" transform="translate(754.000000, 226.000000)">
            <rect id="Rectangle" stroke="#1787E0" stroke-width="1" fill-rule="nonzero" x="0.5" y="0.5" width="115" height="62"></rect>
            <text font-family="PingFangTC-Regular, PingFang TC" font-size="14" font-weight="normal" line-spacing="15" letter-spacing="2" fill="#0D60AD" fill-opacity="0.9">
                <tspan x="24.992" y="39.672">計算價格</tspan>
            </text>
        </g>
        <g id="處理程序" transform="translate(576.000000, 226.000000)">
            <rect id="Rectangle" stroke="#1787E0" stroke-width="1" fill-rule="nonzero" x="0.5" y="0.5" width="115" height="62"></rect>
            <text font-family="PingFangTC-Regular, PingFang TC" font-size="14" font-weight="normal" line-spacing="15" letter-spacing="2" fill="#0D60AD" fill-opacity="0.9">
                <tspan x="24.992" y="39.672">篩選方案</tspan>
            </text>
        </g>
        <g id="labels/label" transform="translate(152.000000, 493.000000)">
            <g id="label">
                <rect id="Rectangle" fill="#1787E0" x="0" y="0" width="116" height="63" rx="31.5"></rect>
                <text id="Label" font-family="PingFangTC-Regular, PingFang TC" font-size="13" font-weight="normal" letter-spacing="0.2166667" fill="#FFFFFF">
                    <tspan x="44.7833333" y="39.575">登入</tspan>
                </text>
            </g>
        </g>
        <g id="處理程序" transform="translate(94.000000, 826.000000)">
            <rect id="Rectangle" stroke="#1787E0" stroke-width="1" fill-rule="nonzero" x="0.5" y="0.5" width="115" height="62"></rect>
            <text font-family="PingFangTC-Regular, PingFang TC" font-size="14" font-weight="normal" line-spacing="15" letter-spacing="2" fill="#0D60AD" fill-opacity="0.9">
                <tspan x="24.992" y="39.672">計算價格</tspan>
            </text>
        </g>
        <g id="labels/label" transform="translate(989.000000, 497.000000)">
            <g id="label">
                <rect id="Rectangle" fill="#1787E0" x="0" y="0" width="116" height="63" rx="31.5"></rect>
                <text id="Label" font-family="PingFangTC-Regular, PingFang TC" font-size="13" font-weight="normal" letter-spacing="0.2166667" fill="#FFFFFF">
                    <tspan x="24.9583332" y="39.575">寄送驗證碼</tspan>
                </text>
            </g>
        </g>
        <g id="labels/label" transform="translate(403.000000, 224.000000)">
            <g id="label">
                <rect id="Rectangle" fill="#1787E0" x="0" y="0" width="116" height="63" rx="31.5"></rect>
                <text id="Label" font-family="PingFangTC-Regular, PingFang TC" font-size="13" font-weight="normal" letter-spacing="0.2166667" fill="#FFFFFF">
                    <tspan x="31.5666666" y="39.575">搜尋方案</tspan>
                </text>
            </g>
        </g>
        <g id="labels/label" transform="translate(403.000000, 343.000000)">
            <g id="label">
                <rect id="Rectangle" fill="#1787E0" x="0" y="0" width="116" height="63" rx="31.5"></rect>
                <text id="Label" font-family="PingFangTC-Regular, PingFang TC" font-size="13" font-weight="normal" letter-spacing="0.2166667" fill="#FFFFFF">
                    <tspan x="31.5666666" y="39.575">選擇方案</tspan>
                </text>
            </g>
        </g>
        <g id="labels/label" transform="translate(989.000000, 697.000000)">
            <g id="label">
                <rect id="Rectangle" fill="#1787E0" x="0" y="0" width="116" height="63" rx="31.5"></rect>
                <text id="Label" font-family="PingFangTC-Regular, PingFang TC" font-size="13" font-weight="normal" letter-spacing="0.2166667" fill="#FFFFFF">
                    <tspan x="44.7833333" y="39.575">註冊</tspan>
                </text>
            </g>
        </g>
        <g id="labels/label" transform="translate(646.000000, 826.000000)">
            <g id="label">
                <rect id="Rectangle" fill="#1787E0" x="0" y="0" width="116" height="63" rx="31.5"></rect>
                <text id="Label" font-family="PingFangTC-Regular, PingFang TC" font-size="13" font-weight="normal" letter-spacing="0.2166667" fill="#FFFFFF">
                    <tspan x="31.5666666" y="39.575">付款成功</tspan>
                </text>
            </g>
        </g>
        <g id="處理程序" transform="translate(813.000000, 826.000000)">
            <rect id="Rectangle" stroke="#1787E0" stroke-width="1" fill-rule="nonzero" x="0.5" y="0.5" width="115" height="62"></rect>
            <text font-family="PingFangTC-Regular, PingFang TC" font-size="14" font-weight="normal" line-spacing="15" letter-spacing="2" fill="#0D60AD" fill-opacity="0.9">
                <tspan x="20.492" y="24.672">產生單號/</tspan>
                <tspan x="16.992" y="39.672">計算預期到</tspan>
                <tspan x="32.992" y="54.672">達時間</tspan>
            </text>
        </g>
        <g id="資料" transform="translate(247.000000, 217.000000)">
            <path d="M18.5018982,0.5 L0.768599429,40.5 L98.4981018,40.5 L116.231401,0.5 L18.5018982,0.5 Z" id="Rectangle" stroke-opacity="0.8" stroke="#FF5B2C" stroke-width="1" fill="#F7E8DF" fill-rule="nonzero"></path>
            <text font-family="PingFangTC-Regular, PingFang TC" font-size="13" font-weight="normal" line-spacing="15" letter-spacing="1" fill="#451313" fill-opacity="0.9">
                <tspan x="22.064" y="26.624">選擇起始地</tspan>
            </text>
        </g>
        <g id="資料" transform="translate(247.000000, 62.000000)">
            <path d="M18.5018982,0.5 L0.768599429,40.5 L98.4981018,40.5 L116.231401,0.5 L18.5018982,0.5 Z" id="Rectangle" stroke-opacity="0.8" stroke="#FF5B2C" stroke-width="1" fill="#F7E8DF" fill-rule="nonzero"></path>
            <text font-family="PingFangTC-Regular, PingFang TC" font-size="13" font-weight="normal" line-spacing="15" letter-spacing="1" fill="#451313" fill-opacity="0.9">
                <tspan x="29.064" y="26.624">輸入單號</tspan>
            </text>
        </g>
        <g id="資料" transform="translate(229.000000, 257.000000)">
            <path d="M18.5018982,0.5 L0.768599429,40.5 L98.4981018,40.5 L116.231401,0.5 L18.5018982,0.5 Z" id="Rectangle" stroke-opacity="0.8" stroke="#FF5B2C" stroke-width="1" fill="#F7E8DF" fill-rule="nonzero"></path>
            <text font-family="PingFangTC-Regular, PingFang TC" font-size="13" font-weight="normal" line-spacing="15" letter-spacing="1" fill="#451313" fill-opacity="0.9">
                <tspan x="22.064" y="26.624">選擇目的地</tspan>
            </text>
        </g>
        <g id="資料" transform="translate(828.000000, 508.000000)">
            <path d="M18.5018982,0.5 L0.768599429,40.5 L98.4981018,40.5 L116.231401,0.5 L18.5018982,0.5 Z" id="Rectangle" stroke-opacity="0.8" stroke="#FF5B2C" stroke-width="1" fill="#F7E8DF" fill-rule="nonzero"></path>
            <text font-family="PingFangTC-Regular, PingFang TC" font-size="13" font-weight="normal" line-spacing="15" letter-spacing="1" fill="#451313" fill-opacity="0.9">
                <tspan x="29.064" y="26.624">輸入手機</tspan>
            </text>
        </g>
        <g id="資料" transform="translate(988.000000, 607.000000)">
            <path d="M18.5018982,0.5 L0.768599429,40.5 L98.4981018,40.5 L116.231401,0.5 L18.5018982,0.5 Z" id="Rectangle" stroke-opacity="0.8" stroke="#FF5B2C" stroke-width="1" fill="#F7E8DF" fill-rule="nonzero"></path>
            <text font-family="PingFangTC-Regular, PingFang TC" font-size="13" font-weight="normal" line-spacing="15" letter-spacing="1" fill="#451313" fill-opacity="0.9">
                <tspan x="22.064" y="26.624">輸入驗證碼</tspan>
            </text>
        </g>
        <g id="抉擇" transform="translate(394.000000, 458.000000)">
            <path d="M31.7568633,30.7650621 L20.5851238,112.045865 L101.865926,100.874125 L112.053741,20.5772477 L31.7568633,30.7650621 Z" id="Rectangle" stroke="#19836F" stroke-width="1" fill="#DBFFF4" fill-rule="nonzero" transform="translate(66.315494, 66.315494) rotate(-315.000000) translate(-66.315494, -66.315494) "></path>
            <text font-family="PingFangTC-Regular, PingFang TC" font-size="14" font-weight="normal" letter-spacing="2" fill="#000000" fill-opacity="0.9">
                <tspan x="27.5" y="71">是否有會員</tspan>
            </text>
        </g>
        <g id="labels/tick" transform="translate(315.000000, 508.000000)">
            <g id="tick">
                <circle id="Oval-3" fill="#4CBA38" cx="16" cy="16" r="16"></circle>
                <path d="M22,17 L22,11.0029293 C22,10.4490268 22.4438648,10 23,10 C23.5522847,10 24,10.4378814 24,11.0029293 L24,17 L24,18 C24,18.5522847 23.5553691,19 22.9991283,19 L9.00087166,19 C8.4481055,19 8,18.5561352 8,18 C8,17.4477153 8.44463086,17 9.00087166,17 L22,17 Z" id="Combined-Shape" fill="#FFFFFF" transform="translate(16.000000, 14.500000) scale(-1, 1) rotate(-315.000000) translate(-16.000000, -14.500000) "></path>
            </g>
        </g>
        <g id="labels/cross" transform="translate(572.000000, 508.000000)">
            <g id="cross">
                <circle id="Oval-3" fill="#FF6660" cx="16" cy="16" r="16"></circle>
                <path d="M15.9505895,14.536275 L20.1926138,10.2942507 C20.5859355,9.90092906 21.2169195,9.90311005 21.6074438,10.2936343 C22.0006907,10.6868813 21.9976921,11.3175996 21.6068274,11.7084643 L17.3648031,15.9504886 L21.6068274,20.1925129 C21.9976921,20.5833776 22.0006907,21.2140959 21.6074438,21.6073428 C21.2169195,21.9978671 20.5859355,22.0000481 20.1926138,21.6067265 L15.9505895,17.3647022 L11.7085652,21.6067265 C11.3152435,22.0000481 10.6842595,21.9978671 10.2937353,21.6073428 C9.9004883,21.2140959 9.90348691,20.5833776 10.2943516,20.1925129 L14.5363759,15.9504886 L10.2943516,11.7084643 C9.90348691,11.3175996 9.9004883,10.6868813 10.2937353,10.2936343 C10.6842595,9.90311005 11.3152435,9.90092906 11.7085652,10.2942507 L15.9505895,14.536275 Z" id="Combined-Shape" fill="#FFFFFF"></path>
            </g>
        </g>
        <g id="arrows/arrow-1.2" transform="translate(692.000000, 254.000000)">
            <g id="arrow-1.2">
                <path d="M0,3 L60.8459596,3" id="Line" stroke="#1787E0" stroke-linecap="square"></path>
                <polygon id="Triangle" fill="#1787E0" points="59 5.5 59 0.5 62 3"></polygon>
            </g>
        </g>
        <g id="arrows/arrow-1.2" transform="translate(771.000000, 522.000000)">
            <g id="arrow-1.2">
                <path d="M0,3 L60.8459596,3" id="Line" stroke="#1787E0" stroke-linecap="square"></path>
                <polygon id="Triangle" fill="#1787E0" points="59 5.5 59 0.5 62 3"></polygon>
            </g>
        </g>
        <g id="arrows/arrow-1.2" transform="translate(937.000000, 523.000000)">
            <g id="arrow-1.2">
                <path d="M0,3 L50.8712121,3" id="Line" stroke="#1787E0" stroke-linecap="square"></path>
                <polygon id="Triangle" fill="#1787E0" points="49 5.5 49 0.5 52 3"></polygon>
            </g>
        </g>
        <g id="arrows/arrow-1.2" transform="translate(1046.500000, 672.000000) rotate(-270.000000) translate(-1046.500000, -672.000000) translate(1023.000000, 669.000000)">
            <g id="arrow-1.2">
                <path d="M0,3 L45.8838384,3" id="Line" stroke="#1787E0" stroke-linecap="square"></path>
                <polygon id="Triangle" fill="#1787E0" points="44 5.5 44 0.5 47 3"></polygon>
            </g>
        </g>
        <g id="arrows/arrow-1.2" transform="translate(1046.500000, 584.000000) rotate(-270.000000) translate(-1046.500000, -584.000000) translate(1023.000000, 581.000000)">
            <g id="arrow-1.2">
                <path d="M0,3 L45.8838384,3" id="Line" stroke="#1787E0" stroke-linecap="square"></path>
                <polygon id="Triangle" fill="#1787E0" points="44 5.5 44 0.5 47 3"></polygon>
            </g>
        </g>
        <g id="arrows/arrow-1.2" transform="translate(929.000000, 855.000000)">
            <g id="arrow-1.2">
                <path d="M0,3 L54.8611111,3" id="Line" stroke="#1787E0" stroke-linecap="square"></path>
                <polygon id="Triangle" fill="#1787E0" points="53 5.5 53 0.5 56 3"></polygon>
            </g>
        </g>
        <g id="arrows/arrow-1.2" transform="translate(590.000000, 855.000000)">
            <g id="arrow-1.2">
                <path d="M0,3 L54.8611111,3" id="Line" stroke="#1787E0" stroke-linecap="square"></path>
                <polygon id="Triangle" fill="#1787E0" points="53 5.5 53 0.5 56 3"></polygon>
            </g>
        </g>
        <g id="arrows/arrow-1.2" transform="translate(347.000000, 254.000000)">
            <g id="arrow-1.2">
                <path d="M0,3 L54.8611111,3" id="Line" stroke="#1787E0" stroke-linecap="square"></path>
                <polygon id="Triangle" fill="#1787E0" points="53 5.5 53 0.5 56 3"></polygon>
            </g>
        </g>
        <g id="arrows/arrow-1.2" transform="translate(352.000000, 82.000000)">
            <g id="arrow-1.2">
                <path d="M0,5.5 L135.656566,5.5" id="Line" stroke="#1787E0" stroke-linecap="square"></path>
                <polygon id="Triangle" fill="#1787E0" points="134 8 134 3 137 5.5"></polygon>
            </g>
        </g>
        <g id="arrows/arrow-1.1" transform="translate(519.000000, 254.000000)" stroke="#1787E0">
            <g id="arrow-1.1">
                <path d="M1,3 L56.8585859,3" id="Line" stroke-linecap="square"></path>
                <circle id="Oval" fill="#FFFFFF" cx="2.5" cy="3" r="2.5"></circle>
            </g>
        </g>
        <g id="arrows/arrow-1.1" transform="translate(761.000000, 855.000000)" stroke="#1787E0">
            <g id="arrow-1.1">
                <path d="M1,3 L51.8712121,3" id="Line" stroke-linecap="square"></path>
                <circle id="Oval" fill="#FFFFFF" cx="2.5" cy="3" r="2.5"></circle>
            </g>
        </g>
        <g id="arrows/arrow-1.1" transform="translate(152.000000, 800.000000) rotate(-270.000000) translate(-152.000000, -800.000000) translate(126.000000, 797.000000)" stroke="#1787E0">
            <g id="arrow-1.1">
                <path d="M1,3 L51.8712121,3" id="Line" stroke-linecap="square"></path>
                <circle id="Oval" fill="#FFFFFF" cx="2.5" cy="3" r="2.5"></circle>
            </g>
        </g>
        <g id="arrows/arrow-4.1" transform="translate(126.000000, 79.000000)">
            <g id="arrow-4.1">
                <path d="M120,3 L71.0085458,3 C65.4809786,3 61,7.47956754 61,13.0054553 L61,167.994545 C61,173.520405 65.4830151,178 71.0085458,178 L120,178" id="Path-4" stroke="#1787E0"></path>
                <path d="M61.5185909,90.718254 L0.995833406,90.718254" id="Path-5" stroke="#1787E0"></path>
                <circle id="Oval--Copy-3" stroke="#1787E0" fill="#FFFFFF" cx="4" cy="90.5" r="3"></circle>
                <polygon id="Triangle-2-Copy-2" fill="#1787E0" points="118 6 118 0 121 3"></polygon>
                <polygon id="Triangle-2-Copy-4" fill="#1787E0" points="118 181 118 175 121 178"></polygon>
            </g>
        </g>
        <g id="arrows/arrow-1.1-dotted" transform="translate(370.500000, 524.500000) rotate(180.000000) translate(-370.500000, -524.500000) translate(347.000000, 522.000000)" stroke="#1787E0">
            <g id="arrow-1.1-dotted">
                <path d="M1,2.5 L46.8838384,2.5" id="Line" stroke-linecap="square" stroke-dasharray="3"></path>
                <circle id="Oval" fill="#FFFFFF" cx="2.5" cy="2.5" r="2.5"></circle>
            </g>
        </g>
        <g id="arrows/arrow-1.2-dotted" transform="translate(291.500000, 524.500000) rotate(180.000000) translate(-291.500000, -524.500000) translate(268.000000, 522.000000)">
            <g id="arrow-1.2-dotted">
                <path d="M0,2.5 L45.8838384,2.5" id="Line" stroke="#1787E0" stroke-linecap="square" stroke-dasharray="3"></path>
                <polygon id="Triangle" fill="#1787E0" points="44 5 44 0 47 2.5"></polygon>
            </g>
        </g>
        <g id="arrows/arrow-1.1-dotted" transform="translate(525.000000, 522.000000)" stroke="#1787E0">
            <g id="arrow-1.1-dotted">
                <path d="M1,2.5 L46.8838384,2.5" id="Line" stroke-linecap="square" stroke-dasharray="3"></path>
                <circle id="Oval" fill="#FFFFFF" cx="2.5" cy="2.5" r="2.5"></circle>
            </g>
        </g>
        <g id="arrows/arrow-1.2-dotted" transform="translate(604.000000, 522.000000)">
            <g id="arrow-1.2-dotted">
                <path d="M0,2.5 L45.8838384,2.5" id="Line" stroke="#1787E0" stroke-linecap="square" stroke-dasharray="3"></path>
                <polygon id="Triangle" fill="#1787E0" points="44 5 44 0 47 2.5"></polygon>
            </g>
        </g>
        <g id="arrows/arrow-1" transform="translate(193.500000, 589.500000) rotate(-270.000000) translate(-193.500000, -589.500000) translate(159.000000, 587.000000)">
            <g id="arrow-1">
                <path d="M1,2.5 L67.8308081,2.5" id="Line" stroke="#1787E0" stroke-linecap="square"></path>
                <circle id="Oval" stroke="#1787E0" fill="#FFFFFF" cx="2.5" cy="2.5" r="2.5"></circle>
                <polygon id="Triangle" fill="#1787E0" points="66 5 66 0 69 2.5"></polygon>
            </g>
        </g>
        <g id="arrows/arrow-1" transform="translate(400.000000, 855.000000)">
            <g id="arrow-1">
                <path d="M1,3 L67.8308081,3" id="Line" stroke="#1787E0" stroke-linecap="square"></path>
                <circle id="Oval" stroke="#1787E0" fill="#FFFFFF" cx="2.5" cy="3" r="2.5"></circle>
                <polygon id="Triangle" fill="#1787E0" points="66 5.5 66 0.5 69 3"></polygon>
            </g>
        </g>
        <g id="arrows/arrow-1" transform="translate(210.000000, 855.000000)">
            <g id="arrow-1">
                <path d="M1,3 L67.8308081,3" id="Line" stroke="#1787E0" stroke-linecap="square"></path>
                <circle id="Oval" stroke="#1787E0" fill="#FFFFFF" cx="2.5" cy="3" r="2.5"></circle>
                <polygon id="Triangle" fill="#1787E0" points="66 5.5 66 0.5 69 3"></polygon>
            </g>
        </g>
        <g id="arrows/arrow-1" transform="translate(870.000000, 257.000000)">
            <g id="arrow-1">
                <path d="M1,3 L67.8308081,3" id="Line" stroke="#1787E0" stroke-linecap="square"></path>
                <circle id="Oval" stroke="#1787E0" fill="#FFFFFF" cx="2.5" cy="3" r="2.5"></circle>
                <polygon id="Triangle" fill="#1787E0" points="66 5.5 66 0.5 69 3"></polygon>
            </g>
        </g>
        <g id="arrows/arrow-2.1" transform="translate(760.000000, 352.000000) scale(-1, 1) translate(-760.000000, -352.000000) translate(519.000000, 329.000000)">
            <g id="arrow-2.1">
                <path d="M3,0 L3,32.9997787 C3,38.5227484 7.47369655,43 12.990284,43 L480,43" id="Path-2" stroke="#1787E0"></path>
                <circle id="Oval-" stroke="#1787E0" fill="#FFFFFF" cx="3" cy="3" r="3"></circle>
                <polygon id="Triangle-2" fill="#1787E0" points="479 46 479 40 482 43"></polygon>
            </g>
        </g>
        <g id="arrows/arrow-1-dotted" transform="translate(461.000000, 440.000000) rotate(-270.000000) translate(-461.000000, -440.000000) translate(427.000000, 437.000000)">
            <g id="arrow-1-dotted">
                <path d="M1,3 L66.8333333,3" id="Line" stroke="#1787E0" stroke-linecap="square" stroke-dasharray="3"></path>
                <circle id="Oval" stroke="#1787E0" fill="#FFFFFF" cx="2.5" cy="3" r="2.5"></circle>
                <polygon id="Triangle" fill="#1787E0" points="65 5.5 65 0.5 68 3"></polygon>
            </g>
        </g>
        <g id="arrows/arrow-2.1" transform="translate(607.000000, 644.500000) scale(-1, 1) rotate(-90.000000) translate(-607.000000, -644.500000) translate(523.000000, 266.000000)">
            <g id="arrow-2.1">
                <path d="M3,0 L3,743.99913 C3,749.522458 7.48694109,754 12.9968196,754 L166,754" id="Path-2" stroke="#1787E0"></path>
                <circle id="Oval-" stroke="#1787E0" fill="#FFFFFF" cx="3" cy="3" r="3"></circle>
                <polygon id="Triangle-2" fill="#1787E0" points="165 757 165 751 168 754"></polygon>
            </g>
        </g>
    </g>
</svg>